<svg width="173" height="53" viewBox="0 0 173 53" fill="none" xmlns="http://www.w3.org/2000/svg">
<path fill-rule="evenodd" clip-rule="evenodd" d="M37.4258 3.92593C24.9585 3.92593 14.8517 14.0327 14.8517 26.5C14.8517 38.9673 24.9585 49.0741 37.4258 49.0741C49.8931 49.0741 59.9999 38.9673 59.9999 26.5C59.9999 11.8645 71.8643 0 86.4999 0C101.135 0 113 11.8645 113 26.5C113 38.9673 123.107 49.0741 135.574 49.0741C148.041 49.0741 158.148 38.9673 158.148 26.5C158.148 14.0327 148.041 3.92593 135.574 3.92593C127.626 3.92593 120.636 8.0321 116.611 14.2481C116.021 15.1581 114.806 15.4181 113.896 14.8288C112.986 14.2396 112.726 13.0242 113.315 12.1142C118.033 4.82815 126.239 0 135.574 0C150.209 0 162.074 11.8645 162.074 26.5C162.074 41.1355 150.209 53 135.574 53C120.938 53 109.074 41.1355 109.074 26.5C109.074 14.0327 98.9672 3.92593 86.4999 3.92593C74.0325 3.92593 63.9258 14.0327 63.9258 26.5C63.9258 41.1355 52.0613 53 37.4258 53C22.7902 53 10.9258 41.1355 10.9258 26.5C10.9258 11.8645 22.7902 0 37.4258 0C46.7606 0 54.9666 4.82815 59.6846 12.1142C60.2738 13.0242 60.0138 14.2396 59.1038 14.8288C58.1938 15.4181 56.9784 15.1581 56.3892 14.2481C52.3642 8.0321 45.3739 3.92593 37.4258 3.92593ZM108.178 38.1712C109.088 38.7604 109.348 39.9758 108.759 40.8858C104.041 48.1719 95.8347 53 86.4999 53C77.165 53 68.959 48.1719 64.2411 40.8858C63.6518 39.9758 63.9118 38.7604 64.8218 38.1712C65.7318 37.5819 66.9472 37.8419 67.5364 38.7519C71.5615 44.9679 78.5517 49.0741 86.4999 49.0741C94.448 49.0741 101.438 44.9679 105.463 38.7519C106.053 37.8419 107.268 37.5819 108.178 38.1712Z" fill="#373737"/>
<path d="M7.48562 17.1808C6.49522 16.1904 5.00574 15.8941 3.71172 16.4301C2.4177 16.9661 1.57397 18.2288 1.57397 19.6295V35.3332C1.57397 37.2457 3.1244 38.7961 5.03694 38.7961C6.94948 38.7961 8.4999 37.2457 8.4999 35.3332V27.9898L10.4401 29.93C11.7925 31.2824 13.9851 31.2824 15.3375 29.93L17.2777 27.9898V35.3332C17.2777 37.2457 18.8281 38.7961 20.7406 38.7961C22.6532 38.7961 24.2036 37.2457 24.2036 35.3332V19.6295C24.2036 18.2288 23.3599 16.9661 22.0659 16.4301C20.7718 15.8941 19.2824 16.1904 18.292 17.1808L12.8888 22.5839L7.48562 17.1808Z" fill="#373737" stroke="white" stroke-width="3" stroke-linecap="round" stroke-linejoin="round"/>
<path d="M57.574 33.0847V35.3334C57.574 37.2459 56.0236 38.7963 54.111 38.7963C52.1985 38.7963 50.6481 37.2459 50.6481 35.3334V19.6296C50.6481 17.7171 52.1985 16.1667 54.111 16.1667H65.8888L65.8915 16.1667C65.8916 16.1667 65.8917 16.1667 65.8918 16.1667L57.574 33.0847ZM57.574 33.0847L68.2661 38.4307C69.9767 39.286 72.0568 38.5927 72.9121 36.882C73.7674 35.1714 73.074 33.0913 71.3634 32.236L68.0936 30.6011C68.4992 30.4811 68.9443 30.3162 69.4005 30.0881C70.3016 29.6376 71.3087 28.9071 72.0827 27.7462C72.8711 26.5636 73.2777 25.1427 73.2777 23.5556C73.2777 21.9685 72.8711 20.5476 72.0827 19.365C71.3087 18.204 70.3016 17.4736 69.4005 17.023C68.5125 16.579 67.6665 16.3743 67.0715 16.2751C66.7659 16.2242 66.5036 16.1974 66.3042 16.1832C66.2039 16.176 66.1179 16.1719 66.0483 16.1696C66.0134 16.1684 65.9825 16.1677 65.9559 16.1673V16.1672L65.95 16.1672L65.9255 16.1669V16.1668L65.9162 16.1668L65.9062 16.1667L65.9017 16.1667L65.8979 16.1667L65.8973 16.1667L65.8951 16.1667C65.8944 16.1667 65.8938 16.1667 65.8932 16.1667C65.8932 16.1667 65.8931 16.1667 65.893 16.1667L57.574 33.0847ZM65.8918 30.9445C65.892 30.9445 65.8921 30.9445 65.8922 30.9445C65.8924 30.9445 65.8926 30.9445 65.8929 30.9445H65.8918ZM66.3031 23.2178L66.3126 23.1988L66.3031 23.2178C66.3096 23.221 66.3154 23.224 66.3206 23.2268C66.3328 23.2754 66.3518 23.3787 66.3518 23.5556C66.3518 23.7325 66.3328 23.8357 66.3206 23.8843C66.3154 23.8871 66.3096 23.8901 66.3031 23.8934L66.3126 23.9123L66.3031 23.8934C66.2097 23.9401 66.0743 23.9807 65.9329 24.0043C65.884 24.0125 65.8461 24.0166 65.8246 24.0185H57.574V23.0926H65.8246C65.8461 23.0945 65.884 23.0987 65.9329 23.1068C66.0743 23.1304 66.2097 23.1711 66.3031 23.2178Z" fill="#373737" stroke="white" stroke-width="3" stroke-linecap="round" stroke-linejoin="round"/>
<path d="M103.185 16.1667C101.273 16.1667 99.7222 17.7171 99.7222 19.6296C99.7222 21.5422 101.273 23.0926 103.185 23.0926H110.529L100.737 32.8847C99.7461 33.8751 99.4498 35.3646 99.9858 36.6586C100.522 37.9526 101.785 38.7963 103.185 38.7963H118.889C120.801 38.7963 122.352 37.2459 122.352 35.3334C122.352 33.4208 120.801 31.8704 118.889 31.8704H111.546L121.338 22.0783C122.328 21.0879 122.624 19.5985 122.088 18.3044C121.552 17.0104 120.29 16.1667 118.889 16.1667H103.185Z" fill="#373737" stroke="white" stroke-width="3" stroke-linecap="round" stroke-linejoin="round"/>
<path d="M160.111 27.5899L155.357 18.081C154.501 16.3703 152.421 15.677 150.71 16.5323C149 17.3876 148.306 19.4677 149.162 21.1783L157.014 36.882C157.6 38.0552 158.799 38.7963 160.111 38.7963C161.423 38.7963 162.622 38.0552 163.208 36.882L171.06 21.1783C171.916 19.4677 171.222 17.3876 169.512 16.5323C167.801 15.677 165.721 16.3703 164.866 18.081L160.111 27.5899Z" fill="#373737" stroke="white" stroke-width="3"/>
</svg>
