<svg width="290" height="159" viewBox="0 0 290 159" fill="none" xmlns="http://www.w3.org/2000/svg">
<path d="M81.9707 125.646C81.9473 125.546 81.9092 125.271 81.8564 124.819C81.8096 124.444 81.7686 124.134 81.7334 123.888C81.6807 124.181 81.6045 124.474 81.5049 124.767C81.4111 125.06 81.291 125.358 81.1445 125.663L77.7783 132.519L74.4121 125.522C74.2715 125.235 74.1484 124.957 74.043 124.688C73.9434 124.418 73.8555 124.151 73.7793 123.888C73.7734 124.157 73.75 124.441 73.709 124.74C73.6738 125.033 73.6182 125.341 73.542 125.663L72.1621 132H70.2373L73.2783 118.588L77.0752 126.709C77.1338 126.838 77.2217 127.052 77.3389 127.351C77.4619 127.649 77.6084 128.019 77.7783 128.458C77.9014 128.089 78.0947 127.62 78.3584 127.052C78.4287 126.899 78.4814 126.782 78.5166 126.7L82.2256 118.588L85.3369 132H83.3945L81.9707 125.646ZM89.7314 126.946H93.3174L91.999 124.011C91.9229 123.823 91.8438 123.609 91.7617 123.369C91.6797 123.123 91.5977 122.851 91.5156 122.552C91.4453 122.833 91.3691 123.097 91.2871 123.343C91.2109 123.583 91.1318 123.806 91.0498 124.011L89.7314 126.946ZM95.5146 132L94.0557 128.687H88.958L87.4639 132H85.2666L91.498 118.623L97.7207 132H95.5146ZM97.457 132L101.632 125.268L97.9404 119.133H100.138L101.992 122.279C102.092 122.443 102.276 122.783 102.546 123.299L102.678 123.554C102.771 123.372 102.874 123.179 102.985 122.974C103.103 122.769 103.234 122.543 103.381 122.297L105.341 119.133H107.485L103.724 125.232L107.775 132H105.464L103.311 128.353L103.275 128.291C103.041 127.852 102.824 127.438 102.625 127.052C102.525 127.251 102.417 127.459 102.3 127.676C102.183 127.887 102.057 128.104 101.922 128.326L99.6719 132H97.457ZM125.16 125.646C125.137 125.546 125.099 125.271 125.046 124.819C124.999 124.444 124.958 124.134 124.923 123.888C124.87 124.181 124.794 124.474 124.694 124.767C124.601 125.06 124.48 125.358 124.334 125.663L120.968 132.519L117.602 125.522C117.461 125.235 117.338 124.957 117.232 124.688C117.133 124.418 117.045 124.151 116.969 123.888C116.963 124.157 116.939 124.441 116.898 124.74C116.863 125.033 116.808 125.341 116.731 125.663L115.352 132H113.427L116.468 118.588L120.265 126.709C120.323 126.838 120.411 127.052 120.528 127.351C120.651 127.649 120.798 128.019 120.968 128.458C121.091 128.089 121.284 127.62 121.548 127.052C121.618 126.899 121.671 126.782 121.706 126.7L125.415 118.588L128.526 132H126.584L125.16 125.646ZM141.218 125.593C141.218 124.942 141.098 124.324 140.857 123.738C140.623 123.152 140.283 122.631 139.838 122.174C139.404 121.723 138.9 121.377 138.326 121.137C137.758 120.891 137.157 120.768 136.524 120.768C135.892 120.768 135.288 120.888 134.714 121.128C134.146 121.368 133.639 121.717 133.193 122.174C132.748 122.625 132.408 123.144 132.174 123.729C131.939 124.315 131.822 124.937 131.822 125.593C131.822 126.243 131.939 126.858 132.174 127.438C132.408 128.019 132.748 128.537 133.193 128.994C133.639 129.451 134.146 129.8 134.714 130.04C135.282 130.28 135.886 130.4 136.524 130.4C137.151 130.4 137.746 130.28 138.309 130.04C138.877 129.8 139.387 129.451 139.838 128.994C140.283 128.537 140.623 128.019 140.857 127.438C141.098 126.853 141.218 126.237 141.218 125.593ZM143.397 125.593C143.397 126.507 143.225 127.371 142.879 128.186C142.539 129 142.041 129.727 141.385 130.365C140.723 131.004 139.976 131.493 139.144 131.833C138.312 132.173 137.438 132.343 136.524 132.343C135.599 132.343 134.714 132.173 133.87 131.833C133.032 131.487 132.291 130.998 131.646 130.365C130.99 129.727 130.492 129.003 130.152 128.194C129.812 127.386 129.643 126.519 129.643 125.593C129.643 124.673 129.812 123.806 130.152 122.991C130.492 122.177 130.99 121.447 131.646 120.803C132.303 120.164 133.047 119.678 133.879 119.344C134.711 119.01 135.593 118.843 136.524 118.843C137.45 118.843 138.326 119.01 139.152 119.344C139.984 119.678 140.729 120.164 141.385 120.803C142.041 121.453 142.539 122.188 142.879 123.009C143.225 123.823 143.397 124.685 143.397 125.593ZM147.889 124.617H148.267C149.374 124.617 150.109 124.488 150.473 124.23C150.836 123.973 151.018 123.516 151.018 122.859C151.018 122.15 150.821 121.652 150.429 121.365C150.042 121.072 149.321 120.926 148.267 120.926H147.889V124.617ZM147.757 126.243V132H145.797V119.133H148.715C149.57 119.133 150.232 119.188 150.701 119.3C151.176 119.411 151.58 119.596 151.914 119.854C152.312 120.164 152.62 120.565 152.837 121.058C153.054 121.55 153.162 122.089 153.162 122.675C153.162 123.706 152.913 124.515 152.415 125.101C151.917 125.681 151.182 126.029 150.209 126.146L154.639 132H152.274L147.994 126.243H147.757ZM166.899 125.593C166.899 124.942 166.779 124.324 166.539 123.738C166.305 123.152 165.965 122.631 165.52 122.174C165.086 121.723 164.582 121.377 164.008 121.137C163.439 120.891 162.839 120.768 162.206 120.768C161.573 120.768 160.97 120.888 160.396 121.128C159.827 121.368 159.32 121.717 158.875 122.174C158.43 122.625 158.09 123.144 157.855 123.729C157.621 124.315 157.504 124.937 157.504 125.593C157.504 126.243 157.621 126.858 157.855 127.438C158.09 128.019 158.43 128.537 158.875 128.994C159.32 129.451 159.827 129.8 160.396 130.04C160.964 130.28 161.567 130.4 162.206 130.4C162.833 130.4 163.428 130.28 163.99 130.04C164.559 129.8 165.068 129.451 165.52 128.994C165.965 128.537 166.305 128.019 166.539 127.438C166.779 126.853 166.899 126.237 166.899 125.593ZM169.079 125.593C169.079 126.507 168.906 127.371 168.561 128.186C168.221 129 167.723 129.727 167.066 130.365C166.404 131.004 165.657 131.493 164.825 131.833C163.993 132.173 163.12 132.343 162.206 132.343C161.28 132.343 160.396 132.173 159.552 131.833C158.714 131.487 157.973 130.998 157.328 130.365C156.672 129.727 156.174 129.003 155.834 128.194C155.494 127.386 155.324 126.519 155.324 125.593C155.324 124.673 155.494 123.806 155.834 122.991C156.174 122.177 156.672 121.447 157.328 120.803C157.984 120.164 158.729 119.678 159.561 119.344C160.393 119.01 161.274 118.843 162.206 118.843C163.132 118.843 164.008 119.01 164.834 119.344C165.666 119.678 166.41 120.164 167.066 120.803C167.723 121.453 168.221 122.188 168.561 123.009C168.906 123.823 169.079 124.685 169.079 125.593ZM170.16 132L176.717 120.908H171.259V119.133H179.934L173.438 130.128H180.013V132H170.16ZM192.862 125.593C192.862 124.942 192.742 124.324 192.502 123.738C192.268 123.152 191.928 122.631 191.482 122.174C191.049 121.723 190.545 121.377 189.971 121.137C189.402 120.891 188.802 120.768 188.169 120.768C187.536 120.768 186.933 120.888 186.358 121.128C185.79 121.368 185.283 121.717 184.838 122.174C184.393 122.625 184.053 123.144 183.818 123.729C183.584 124.315 183.467 124.937 183.467 125.593C183.467 126.243 183.584 126.858 183.818 127.438C184.053 128.019 184.393 128.537 184.838 128.994C185.283 129.451 185.79 129.8 186.358 130.04C186.927 130.28 187.53 130.4 188.169 130.4C188.796 130.4 189.391 130.28 189.953 130.04C190.521 129.8 191.031 129.451 191.482 128.994C191.928 128.537 192.268 128.019 192.502 127.438C192.742 126.853 192.862 126.237 192.862 125.593ZM195.042 125.593C195.042 126.507 194.869 127.371 194.523 128.186C194.184 129 193.686 129.727 193.029 130.365C192.367 131.004 191.62 131.493 190.788 131.833C189.956 132.173 189.083 132.343 188.169 132.343C187.243 132.343 186.358 132.173 185.515 131.833C184.677 131.487 183.936 130.998 183.291 130.365C182.635 129.727 182.137 129.003 181.797 128.194C181.457 127.386 181.287 126.519 181.287 125.593C181.287 124.673 181.457 123.806 181.797 122.991C182.137 122.177 182.635 121.447 183.291 120.803C183.947 120.164 184.691 119.678 185.523 119.344C186.355 119.01 187.237 118.843 188.169 118.843C189.095 118.843 189.971 119.01 190.797 119.344C191.629 119.678 192.373 120.164 193.029 120.803C193.686 121.453 194.184 122.188 194.523 123.009C194.869 123.823 195.042 124.685 195.042 125.593ZM201.212 132.501L195.473 119.133H197.644L200.526 125.988C200.696 126.387 200.837 126.756 200.948 127.096C201.06 127.43 201.147 127.749 201.212 128.054C201.288 127.731 201.385 127.397 201.502 127.052C201.619 126.706 201.757 126.352 201.915 125.988L204.789 119.133H206.951L201.212 132.501Z" fill="#404040"/>
<path d="M106.974 148.566H108.006L109.224 151.814C109.303 152.028 109.369 152.215 109.421 152.376C109.477 152.538 109.525 152.688 109.566 152.829C109.669 152.489 109.776 152.157 109.887 151.832C109.902 151.791 109.912 151.763 109.918 151.748L111.21 148.312L112.572 151.814C112.637 151.984 112.697 152.154 112.752 152.324C112.811 152.494 112.865 152.665 112.915 152.838C112.944 152.706 112.984 152.561 113.034 152.403C113.083 152.245 113.148 152.057 113.227 151.84L114.436 148.566H115.477L112.985 155.25L111.518 151.581C111.453 151.417 111.395 151.26 111.342 151.111C111.289 150.958 111.242 150.815 111.201 150.68C111.151 150.853 111.102 151.016 111.052 151.168C111.002 151.317 110.951 151.461 110.898 151.599L109.457 155.25L106.974 148.566ZM116.193 155V148.566H119.784V149.454H117.239V151.067H119.784V151.985H117.239V154.064H119.784V155H116.193ZM122.007 151.282H122.407C122.905 151.282 123.257 151.215 123.462 151.08C123.67 150.942 123.774 150.712 123.774 150.39C123.774 150.039 123.679 149.792 123.488 149.652C123.298 149.508 122.938 149.437 122.407 149.437H122.007V151.282ZM122.007 154.125H122.368C122.734 154.125 123.008 154.111 123.189 154.082C123.371 154.052 123.515 154.001 123.62 153.928C123.749 153.843 123.849 153.729 123.919 153.585C123.989 153.441 124.024 153.283 124.024 153.11C124.024 152.905 123.982 152.727 123.897 152.574C123.812 152.422 123.69 152.303 123.532 152.218C123.433 152.168 123.318 152.132 123.189 152.108C123.063 152.085 122.895 152.073 122.684 152.073H122.368H122.007V154.125ZM120.983 155V148.566H122.605C123.068 148.566 123.409 148.591 123.629 148.641C123.852 148.691 124.041 148.773 124.196 148.887C124.395 149.034 124.549 149.226 124.657 149.463C124.769 149.7 124.824 149.962 124.824 150.25C124.824 150.592 124.745 150.879 124.587 151.111C124.429 151.339 124.199 151.499 123.897 151.59C124.272 151.648 124.566 151.82 124.78 152.104C124.997 152.385 125.105 152.741 125.105 153.172C125.105 153.433 125.06 153.68 124.969 153.915C124.878 154.149 124.75 154.348 124.583 154.512C124.407 154.691 124.188 154.817 123.928 154.89C123.667 154.963 123.229 155 122.614 155H120.983ZM129.931 154.055H130.81C131.293 154.055 131.655 154.023 131.895 153.958C132.138 153.894 132.349 153.786 132.528 153.633C132.771 153.425 132.953 153.167 133.073 152.86C133.196 152.549 133.257 152.189 133.257 151.779C133.257 151.369 133.196 151.01 133.073 150.702C132.953 150.392 132.771 150.132 132.528 149.924C132.346 149.772 132.128 149.664 131.873 149.599C131.621 149.535 131.226 149.502 130.687 149.502H130.309H129.931V154.055ZM128.885 155V148.566H130.295C131.212 148.566 131.857 148.613 132.229 148.707C132.604 148.798 132.932 148.952 133.213 149.168C133.585 149.453 133.867 149.817 134.057 150.263C134.25 150.708 134.347 151.216 134.347 151.788C134.347 152.359 134.25 152.866 134.057 153.308C133.867 153.748 133.585 154.111 133.213 154.398C132.932 154.615 132.611 154.77 132.251 154.864C131.894 154.955 131.335 155 130.577 155H130.295H128.885ZM135.547 155V148.566H139.137V149.454H136.593V151.067H139.137V151.985H136.593V154.064H139.137V155H135.547ZM139.968 153.712L140.803 153.326C140.882 153.613 141.027 153.833 141.238 153.985C141.449 154.134 141.718 154.209 142.046 154.209C142.357 154.209 142.603 154.123 142.785 153.95C142.969 153.777 143.062 153.545 143.062 153.255C143.062 152.877 142.748 152.541 142.121 152.245C142.033 152.201 141.966 152.168 141.919 152.148C141.21 151.802 140.737 151.49 140.5 151.212C140.265 150.931 140.148 150.588 140.148 150.184C140.148 149.659 140.325 149.234 140.68 148.909C141.037 148.584 141.504 148.421 142.082 148.421C142.556 148.421 142.953 148.514 143.272 148.698C143.592 148.88 143.813 149.142 143.936 149.485L143.119 149.907C142.99 149.705 142.848 149.557 142.692 149.463C142.54 149.369 142.364 149.322 142.165 149.322C141.884 149.322 141.66 149.396 141.493 149.542C141.329 149.688 141.247 149.885 141.247 150.131C141.247 150.518 141.61 150.878 142.336 151.212C142.392 151.238 142.436 151.259 142.468 151.273C143.104 151.566 143.541 151.854 143.778 152.135C144.015 152.413 144.134 152.762 144.134 153.181C144.134 153.79 143.942 154.275 143.558 154.635C143.174 154.993 142.656 155.171 142.002 155.171C141.455 155.171 141.005 155.045 140.653 154.793C140.305 154.542 140.076 154.181 139.968 153.712ZM145.294 155V148.566H146.34V155H145.294ZM151.407 151.704H153.956C153.956 151.748 153.957 151.81 153.96 151.889C153.969 152.097 153.973 152.237 153.973 152.311C153.973 153.216 153.714 153.919 153.195 154.42C152.677 154.921 151.946 155.171 151.002 155.171C150.475 155.171 150.005 155.094 149.592 154.938C149.179 154.783 148.817 154.549 148.506 154.235C148.202 153.925 147.967 153.56 147.803 153.141C147.642 152.722 147.562 152.274 147.562 151.796C147.562 151.31 147.644 150.862 147.808 150.452C147.975 150.042 148.221 149.68 148.546 149.366C148.859 149.059 149.227 148.824 149.649 148.663C150.071 148.502 150.522 148.421 151.002 148.421C151.509 148.421 151.962 148.514 152.36 148.698C152.762 148.883 153.119 149.166 153.433 149.546L152.668 150.122C152.451 149.87 152.207 149.683 151.934 149.56C151.662 149.437 151.357 149.375 151.02 149.375C150.323 149.375 149.753 149.599 149.311 150.047C148.871 150.493 148.651 151.073 148.651 151.788C148.651 152.514 148.871 153.104 149.311 153.559C149.753 154.01 150.326 154.235 151.029 154.235C151.626 154.235 152.097 154.096 152.439 153.818C152.782 153.54 152.954 153.16 152.954 152.68V152.587H151.407V151.704ZM155.076 155V148.312L159.163 152.245C159.274 152.356 159.387 152.475 159.501 152.601C159.616 152.727 159.736 152.869 159.862 153.027V148.566H160.829V155.25L156.658 151.247C156.547 151.139 156.438 151.024 156.333 150.904C156.23 150.784 156.132 150.658 156.039 150.526V155H155.076ZM162.31 155V148.566H165.9V149.454H163.355V151.067H165.9V151.985H163.355V154.064H165.9V155H162.31ZM168.146 151.309H168.334C168.888 151.309 169.256 151.244 169.438 151.115C169.619 150.986 169.71 150.758 169.71 150.43C169.71 150.075 169.612 149.826 169.416 149.683C169.222 149.536 168.862 149.463 168.334 149.463H168.146V151.309ZM168.08 152.122V155H167.1V148.566H168.559C168.986 148.566 169.317 148.594 169.552 148.65C169.789 148.706 169.991 148.798 170.158 148.927C170.357 149.082 170.511 149.283 170.62 149.529C170.728 149.775 170.782 150.044 170.782 150.337C170.782 150.853 170.658 151.257 170.409 151.55C170.16 151.84 169.792 152.015 169.306 152.073L171.521 155H170.338L168.198 152.122H168.08Z" fill="#B7B7B7"/>
<path d="M91.0274 58.8505L86.8133 49.1073L85.1092 58.3226H83.5347L86.2854 44.2264L91.0274 55.4422L95.7693 44.2264L98.52 58.3226H96.9455L95.2229 49.1073L91.0274 58.8505Z" fill="#404040"/>
<path d="M189.027 58.8505L184.813 49.1073L183.109 58.3226H181.535L184.285 44.2264L189.027 55.4422L193.769 44.2264L196.52 58.3226H194.946L193.223 49.1073L189.027 58.8505Z" fill="#404040"/>
<path d="M90.9841 3V2.5H90.4841V3H90.9841ZM188.984 3H189.484V2.5H188.984V3ZM188.484 34.6129V35.1129H189.484V34.6129H188.484ZM90.4841 34.6129V35.1129H91.4841V34.6129H90.4841ZM188.984 101V101.5H189.484V101H188.984ZM90.9841 101H90.4841L90.4841 101.5H90.9841L90.9841 101ZM91.4841 69.3871L91.4841 68.8871H90.4841L90.4841 69.3871H91.4841ZM189.484 69.3871V68.8871H188.484V69.3871H189.484ZM121.016 70.9677H120.516V71.4677H121.016V70.9677ZM121.016 33.0323V32.5323H120.516V33.0323H121.016ZM158.952 33.0323H159.452V32.5323H158.952V33.0323ZM158.952 70.9677V71.4677H159.452V70.9677H158.952ZM90.9841 3.5H188.984V2.5H90.9841V3.5ZM188.484 3V34.6129H189.484V3H188.484ZM91.4841 34.6129V3H90.4841V34.6129H91.4841ZM188.984 100.5H90.9841L90.9841 101.5H188.984V100.5ZM91.4841 101L91.4841 69.3871H90.4841L90.4841 101H91.4841ZM188.484 69.3871V101H189.484V69.3871H188.484ZM139.984 32.5323C129.232 32.5323 120.516 41.2483 120.516 52H121.516C121.516 41.8005 129.785 33.5323 139.984 33.5323V32.5323ZM120.516 52C120.516 62.7517 129.232 71.4677 139.984 71.4677V70.4677C129.785 70.4677 121.516 62.1995 121.516 52H120.516ZM139.984 71.4677C150.736 71.4677 159.452 62.7517 159.452 52H158.452C158.452 62.1995 150.184 70.4677 139.984 70.4677V71.4677ZM159.452 52C159.452 41.2483 150.736 32.5323 139.984 32.5323V33.5323C150.184 33.5323 158.452 41.8005 158.452 52H159.452ZM139.984 23.0484C123.995 23.0484 111.033 36.0105 111.033 52H112.033C112.033 36.5628 124.547 24.0484 139.984 24.0484V23.0484ZM111.033 52C111.033 67.9895 123.995 80.9516 139.984 80.9516V79.9516C124.547 79.9516 112.033 67.4372 112.033 52H111.033ZM139.984 80.9516C155.974 80.9516 168.936 67.9895 168.936 52H167.936C167.936 67.4372 155.421 79.9516 139.984 79.9516V80.9516ZM168.936 52C168.936 36.0105 155.974 23.0484 139.984 23.0484V24.0484C155.421 24.0484 167.936 36.5628 167.936 52H168.936ZM121.516 70.9677V33.0323H120.516V70.9677H121.516ZM120.663 33.3858L139.631 52.3536L140.338 51.6464L121.37 32.6787L120.663 33.3858ZM140.338 52.3536L159.305 33.3858L158.598 32.6787L139.631 51.6464L140.338 52.3536ZM158.452 33.0323V70.9677H159.452V33.0323H158.452ZM121.464 71.1914L128.577 56.9655L127.682 56.5183L120.569 70.7441L121.464 71.1914ZM128.577 56.9655L140.431 33.2559L139.537 32.8087L127.682 56.5183L128.577 56.9655ZM139.537 33.2559L151.392 56.9655L152.286 56.5183L140.431 32.8087L139.537 33.2559ZM151.392 56.9655L158.505 71.1914L159.399 70.7441L152.286 56.5183L151.392 56.9655ZM128.129 57.2419H151.839V56.2419H128.129V57.2419ZM139.631 51.6464L120.663 70.6142L121.37 71.3213L140.338 52.3536L139.631 51.6464ZM139.631 52.3536L158.598 71.3213L159.305 70.6142L140.338 51.6464L139.631 52.3536ZM121.016 33.5323H149.468V32.5323H121.016V33.5323ZM120.516 33.0323V52H121.516V33.0323H120.516ZM120.516 52V70.9677H121.516V52H120.516ZM149.468 51.5H121.016V52.5H149.468V51.5ZM120.793 52.4472L158.728 71.415L159.175 70.5205L121.24 51.5528L120.793 52.4472ZM149.468 33.0323C149.468 33.5323 149.468 33.5323 149.468 33.5323C149.468 33.5323 149.467 33.5323 149.467 33.5323C149.467 33.5323 149.468 33.5323 149.468 33.5323C149.468 33.5323 149.469 33.5323 149.471 33.5323C149.474 33.5323 149.48 33.5324 149.487 33.5325C149.502 33.5327 149.526 33.5332 149.558 33.5343C149.621 33.5364 149.717 33.5407 149.84 33.5495C150.086 33.5671 150.441 33.6025 150.868 33.6736C151.724 33.8164 152.858 34.1009 153.986 34.665C155.113 35.228 156.223 36.0648 157.054 37.3106C157.882 38.5533 158.452 40.2327 158.452 42.5161H159.452C159.452 40.0577 158.836 38.1806 157.886 36.7559C156.938 35.3344 155.678 34.3929 154.434 33.7705C153.191 33.1491 151.954 32.8409 151.032 32.6872C150.57 32.6102 150.184 32.5715 149.911 32.5521C149.775 32.5423 149.667 32.5374 149.591 32.5349C149.553 32.5336 149.524 32.5329 149.503 32.5326C149.493 32.5324 149.485 32.5324 149.479 32.5323C149.476 32.5323 149.474 32.5323 149.472 32.5323C149.471 32.5323 149.47 32.5323 149.469 32.5323C149.469 32.5323 149.469 32.5323 149.469 32.5323C149.468 32.5323 149.468 32.5323 149.468 33.0323ZM158.452 42.5161C158.452 44.7996 157.882 46.479 157.054 47.7216C156.223 48.9674 155.113 49.8042 153.986 50.3673C152.858 50.9314 151.724 51.2159 150.868 51.3586C150.441 51.4298 150.086 51.4652 149.84 51.4827C149.717 51.4915 149.621 51.4958 149.558 51.498C149.526 51.499 149.502 51.4995 149.487 51.4998C149.48 51.4999 149.474 51.5 149.471 51.5C149.469 51.5 149.468 51.5 149.468 51.5C149.468 51.5 149.467 51.5 149.467 51.5C149.467 51.5 149.468 51.5 149.468 51.5C149.468 51.5 149.468 51.5 149.468 52C149.468 52.5 149.468 52.5 149.469 52.5C149.469 52.5 149.469 52.5 149.469 52.5C149.47 52.5 149.471 52.5 149.472 52.5C149.474 52.5 149.476 52.5 149.479 52.5C149.485 52.4999 149.493 52.4998 149.503 52.4996C149.524 52.4993 149.553 52.4987 149.591 52.4974C149.667 52.4949 149.775 52.4899 149.911 52.4802C150.184 52.4607 150.57 52.422 151.032 52.345C151.954 52.1914 153.191 51.8832 154.434 51.2617C155.678 50.6393 156.938 49.6979 157.886 48.2763C158.836 46.8517 159.452 44.9746 159.452 42.5161H158.452ZM158.952 70.4677H121.016V71.4677H158.952V70.4677ZM121.016 33.5323H158.952V32.5323H121.016V33.5323ZM158.598 32.6787L120.663 70.6142L121.37 71.3213L159.305 33.3858L158.598 32.6787ZM120.569 33.2559L139.537 71.1914L140.431 70.7441L121.464 32.8087L120.569 33.2559ZM140.431 71.1914L159.399 33.2559L158.505 32.8087L139.537 70.7441L140.431 71.1914Z" fill="#404040"/>
</svg>
