<svg width="516" height="311" viewBox="0 0 516 311" fill="none" xmlns="http://www.w3.org/2000/svg">
<path fill-rule="evenodd" clip-rule="evenodd" d="M60.729 222.242V271.623H77.1875V222.242H60.729Z" fill="#403C3B"/>
<path fill-rule="evenodd" clip-rule="evenodd" d="M93.6493 222.242V271.623H110.108V222.242H93.6493Z" fill="#403C3B"/>
<path fill-rule="evenodd" clip-rule="evenodd" d="M65.3617 234.04L76.9995 222.402L85.4168 230.82V254.095L65.3617 234.04Z" fill="#403C3B"/>
<path fill-rule="evenodd" clip-rule="evenodd" d="M93.8397 222.382L105.478 234.019L85.4066 254.09V230.815L93.8397 222.382Z" fill="#403C3B"/>
<path fill-rule="evenodd" clip-rule="evenodd" d="M126.818 271.633H176.198V255.174H126.818V271.633Z" fill="#403C3B"/>
<path fill-rule="evenodd" clip-rule="evenodd" d="M126.818 238.712H176.198V222.254H126.818V238.712Z" fill="#403C3B"/>
<path fill-rule="evenodd" clip-rule="evenodd" d="M138.616 267L126.978 255.362L135.395 246.945H158.671L138.616 267Z" fill="#403C3B"/>
<path fill-rule="evenodd" clip-rule="evenodd" d="M126.957 238.522L138.595 226.884L158.666 246.955H135.39L126.957 238.522Z" fill="#403C3B"/>
<path fill-rule="evenodd" clip-rule="evenodd" d="M259.406 246.563V271.365H275.864V246.563H259.406Z" fill="#403C3B"/>
<path fill-rule="evenodd" clip-rule="evenodd" d="M292.328 246.518V271.365H308.786V246.518H292.328Z" fill="#403C3B"/>
<path fill-rule="evenodd" clip-rule="evenodd" d="M284.097 221.832L308.775 246.509L297.137 258.147L272.459 233.47L284.097 221.832Z" fill="#403C3B"/>
<path fill-rule="evenodd" clip-rule="evenodd" d="M284.112 221.854L259.403 246.563L271.041 258.201L295.75 233.492L284.112 221.854Z" fill="#403C3B"/>
<path fill-rule="evenodd" clip-rule="evenodd" d="M193.073 222.297V271.677H209.532V222.297H193.073Z" fill="#403C3B"/>
<path fill-rule="evenodd" clip-rule="evenodd" d="M193.073 238.601H242.453V222.142H193.073V238.601Z" fill="#403C3B"/>
<path fill-rule="evenodd" clip-rule="evenodd" d="M193.073 238.601H242.453V222.142H193.073V238.601Z" fill="#403C3B"/>
<path fill-rule="evenodd" clip-rule="evenodd" d="M193.073 271.678H242.453V255.219H193.073V271.678Z" fill="#403C3B"/>
<path fill-rule="evenodd" clip-rule="evenodd" d="M196.246 250.069L203.767 235.43L242.426 255.293V268.241L240.659 271.68H238.306L196.246 250.069Z" fill="#403C3B"/>
<path fill-rule="evenodd" clip-rule="evenodd" d="M193.073 222.297V271.677H209.532V222.297H193.073Z" fill="#403C3B"/>
<path fill-rule="evenodd" clip-rule="evenodd" d="M346.86 262.437L358.498 250.8L350.08 242.382H326.805L346.86 262.437Z" fill="#403C3B"/>
<path fill-rule="evenodd" clip-rule="evenodd" d="M358.518 233.959L346.881 222.322L326.81 242.393H350.085L358.518 233.959Z" fill="#403C3B"/>
<path fill-rule="evenodd" clip-rule="evenodd" d="M358.526 222.342V271.722H374.984V222.342H358.526Z" fill="#403C3B"/>
<path fill-rule="evenodd" clip-rule="evenodd" d="M343.953 242.183L355.591 253.82L337.666 271.745H325.58V260.556L343.953 242.183Z" fill="#403C3B"/>
<path fill-rule="evenodd" clip-rule="evenodd" d="M346.879 233.977H374.984V222.342H346.879V233.977Z" fill="#403C3B"/>
<path fill-rule="evenodd" clip-rule="evenodd" d="M419.809 262.378L408.171 250.74L416.588 242.323H439.864L419.809 262.378Z" fill="#403C3B"/>
<path fill-rule="evenodd" clip-rule="evenodd" d="M408.15 233.9L419.788 222.262L439.859 242.333H416.583L408.15 233.9Z" fill="#403C3B"/>
<path fill-rule="evenodd" clip-rule="evenodd" d="M408.143 222.282V271.663H391.685V222.282H408.143Z" fill="#403C3B"/>
<path fill-rule="evenodd" clip-rule="evenodd" d="M419.79 233.917H391.685V222.282H419.79V233.917Z" fill="#403C3B"/>
<path fill-rule="evenodd" clip-rule="evenodd" d="M419.806 262.379H391.701V250.744H419.806V262.379Z" fill="#403C3B"/>
<path fill-rule="evenodd" clip-rule="evenodd" d="M456.462 222.309H472.92V240.964L456.462 224.505V222.309ZM472.92 247.726V271.689H456.462V231.267L472.92 247.726Z" fill="#403C3B"/>
<path fill-rule="evenodd" clip-rule="evenodd" d="M57.4331 220.566V269.946H73.8916V220.566H57.4331Z" fill="#D6555A"/>
<path fill-rule="evenodd" clip-rule="evenodd" d="M90.3535 220.566V269.946H106.812V220.566H90.3535Z" fill="#D6555A"/>
<path fill-rule="evenodd" clip-rule="evenodd" d="M62.0658 232.364L73.7036 220.726L82.1209 229.143V252.419L62.0658 232.364Z" fill="#D6555A"/>
<path fill-rule="evenodd" clip-rule="evenodd" d="M90.5438 220.705L102.182 232.343L82.1108 252.414V229.138L90.5438 220.705Z" fill="#D6555A"/>
<path fill-rule="evenodd" clip-rule="evenodd" d="M123.522 269.956H172.902V253.498H123.522V269.956Z" fill="#D6555A"/>
<path fill-rule="evenodd" clip-rule="evenodd" d="M123.522 237.036H172.902V220.577H123.522V237.036Z" fill="#D6555A"/>
<path fill-rule="evenodd" clip-rule="evenodd" d="M135.32 265.323L123.682 253.685L132.099 245.268H155.375L135.32 265.323Z" fill="#D6555A"/>
<path fill-rule="evenodd" clip-rule="evenodd" d="M123.661 236.845L135.299 225.207L155.37 245.278H132.094L123.661 236.845Z" fill="#D6555A"/>
<path fill-rule="evenodd" clip-rule="evenodd" d="M256.11 244.886V269.689H272.568V244.886H256.11Z" fill="#D6555A"/>
<path fill-rule="evenodd" clip-rule="evenodd" d="M289.032 244.842V269.689H305.49V244.842H289.032Z" fill="#D6555A"/>
<path fill-rule="evenodd" clip-rule="evenodd" d="M280.801 220.155L305.479 244.833L293.841 256.471L269.163 231.793L280.801 220.155Z" fill="#D6555A"/>
<path fill-rule="evenodd" clip-rule="evenodd" d="M280.816 220.178L256.107 244.887L267.745 256.525L292.454 231.816L280.816 220.178Z" fill="#D6555A"/>
<path fill-rule="evenodd" clip-rule="evenodd" d="M189.777 220.62V270.001H206.236V220.62H189.777Z" fill="#D6555A"/>
<path fill-rule="evenodd" clip-rule="evenodd" d="M189.777 236.924H239.157V220.466H189.777V236.924Z" fill="#D6555A"/>
<path fill-rule="evenodd" clip-rule="evenodd" d="M189.777 236.924H239.157V220.466H189.777V236.924Z" fill="#D6555A"/>
<path fill-rule="evenodd" clip-rule="evenodd" d="M189.777 270.001H239.157V253.542H189.777V270.001Z" fill="#D6555A"/>
<path fill-rule="evenodd" clip-rule="evenodd" d="M192.95 248.392L200.472 233.753L239.13 253.616V266.564L237.363 270.003H235.01L192.95 248.392Z" fill="#D6555A"/>
<path fill-rule="evenodd" clip-rule="evenodd" d="M189.777 220.62V270.001H206.236V220.62H189.777Z" fill="#D6555A"/>
<path fill-rule="evenodd" clip-rule="evenodd" d="M343.564 260.761L355.202 249.123L346.785 240.706H323.509L343.564 260.761Z" fill="#D6555A"/>
<path fill-rule="evenodd" clip-rule="evenodd" d="M355.223 232.283L343.585 220.645L323.514 240.716H346.79L355.223 232.283Z" fill="#D6555A"/>
<path fill-rule="evenodd" clip-rule="evenodd" d="M355.23 220.665V270.045H371.688V220.665H355.23Z" fill="#D6555A"/>
<path fill-rule="evenodd" clip-rule="evenodd" d="M340.657 240.506L352.295 252.144L334.37 270.069H322.284V258.879L340.657 240.506Z" fill="#D6555A"/>
<path fill-rule="evenodd" clip-rule="evenodd" d="M343.583 232.3H371.688V220.665H343.583V232.3Z" fill="#D6555A"/>
<path fill-rule="evenodd" clip-rule="evenodd" d="M416.513 260.702L404.875 249.064L413.292 240.646H436.568L416.513 260.702Z" fill="#D6555A"/>
<path fill-rule="evenodd" clip-rule="evenodd" d="M404.854 232.224L416.492 220.586L436.563 240.657H413.287L404.854 232.224Z" fill="#D6555A"/>
<path fill-rule="evenodd" clip-rule="evenodd" d="M404.847 220.606V269.986H388.389V220.606H404.847Z" fill="#D6555A"/>
<path fill-rule="evenodd" clip-rule="evenodd" d="M416.494 232.241H388.389V220.606H416.494V232.241Z" fill="#D6555A"/>
<path fill-rule="evenodd" clip-rule="evenodd" d="M416.51 260.703H388.406V249.067H416.51V260.703Z" fill="#D6555A"/>
<path fill-rule="evenodd" clip-rule="evenodd" d="M453.166 220.632H469.624V239.287L453.166 222.828V220.632ZM469.624 246.049V270.013H453.166V229.591L469.624 246.049Z" fill="#D6555A"/>
<path fill-rule="evenodd" clip-rule="evenodd" d="M280.871 4.97827L324.118 29.9469L367.365 54.9155V104.853V154.79L324.118 179.758L280.871 204.727L237.624 179.758L194.377 154.79V104.853V54.9155L237.624 29.9469L280.871 4.97827Z" fill="#D6555A" stroke="#403C3B" stroke-width="8.5039" stroke-linejoin="round"/>
<path fill-rule="evenodd" clip-rule="evenodd" d="M194.377 54.9155L280.871 104.853L367.365 54.9155" fill="#D6555A"/>
<path d="M194.377 54.9155L280.871 104.853L367.365 54.9155" stroke="#403C3B" stroke-width="8.5039" stroke-linejoin="round"/>
<path fill-rule="evenodd" clip-rule="evenodd" d="M280.871 104.853V204.727Z" fill="#D6555A"/>
<path d="M280.871 104.853V204.727" stroke="#403C3B" stroke-width="8.5039" stroke-linejoin="round"/>
<path fill-rule="evenodd" clip-rule="evenodd" d="M280.871 138.464L367.365 88.5269Z" fill="#D6555A"/>
<path d="M280.871 138.464L367.365 88.5269" stroke="#403C3B" stroke-width="8.5039" stroke-linejoin="round"/>
<path fill-rule="evenodd" clip-rule="evenodd" d="M280.871 173.247L367.365 123.31Z" fill="#D6555A"/>
<path d="M280.871 173.247L367.365 123.31" stroke="#403C3B" stroke-width="8.5039" stroke-linejoin="round"/>
<path d="M22.126 269.946H505.279" stroke="#B9B6B0" stroke-width="0.5669"/>
<path d="M106.812 176.085V310.485" stroke="#B9B6B0" stroke-width="0.5669"/>
<path d="M175.252 288.435L58.8633 172.047" stroke="#B9B6B0" stroke-width="0.5669"/>
<path d="M239.157 253.543L155.176 210.435" stroke="#B9B6B0" stroke-width="0.5669"/>
<path d="M297.335 226.936L239.606 284.664" stroke="#B9B6B0" stroke-width="0.5669"/>
<path d="M295.021 205.936L207.249 293.707" stroke="#B9B6B0" stroke-width="0.5669"/>
<path d="M280.816 220.178V244.171" stroke="#B9B6B0" stroke-width="0.5669"/>
<path d="M355.202 249.124L305.747 199.669" stroke="#B9B6B0" stroke-width="0.5669"/>
<path d="M388.389 165.436V306.437" stroke="#B9B6B0" stroke-width="0.5669"/>
<path d="M355.202 249.124L316.084 288.242" stroke="#B9B6B0" stroke-width="0.5669"/>
<path d="M348.086 256.514C347.093 255.556 346.304 254.407 345.765 253.137C345.226 251.868 344.948 250.502 344.948 249.123C344.948 247.743 345.226 246.377 345.765 245.108C346.304 243.838 347.093 242.689 348.086 241.731" stroke="#B9B6B0" stroke-width="0.5669"/>
<path d="M488.325 257.988L441.845 211.508" stroke="#B9B6B0" stroke-width="0.5669"/>
<path d="M441.264 217.69L491.189 267.614" stroke="#B9B6B0" stroke-width="0.5669"/>
<path d="M0.408691 220.566H515.209" stroke="#B9B6B0" stroke-width="0.5669"/>
<path d="M413.288 240.657L364.157 289.787" stroke="#B9B6B0" stroke-width="0.5669"/>
<path d="M46.4409 216.739L116.499 286.797" stroke="#B9B6B0" stroke-width="0.5669"/>
</svg>
