<?xml version="1.0" encoding="utf-8"?>
<!-- Generator: Adobe Illustrator 22.0.1, SVG Export Plug-In . SVG Version: 6.00 Build 0)  -->
<svg version="1.1" xmlns="http://www.w3.org/2000/svg" xmlns:xlink="http://www.w3.org/1999/xlink" x="0px" y="0px"
	 viewBox="0 0 886 443.5" style="enable-background:new 0 0 886 443.5;" xml:space="preserve">
<style type="text/css">
	.st0{fill:#CEA367;}
	.st1{fill:none;stroke:#000000;stroke-width:3;stroke-miterlimit:10;}
</style>
<g id="Слой_3">
	<g>
		<path d="M77.8,342.3v-10l13-2.2v-91.3l-13-2.2v-10.1h13h20.9l37.3,88h0.5l36.1-88h35v10.1l-13,2.2V330l13,2.2v10H179v-10l13.7-2.2
			v-33.6v-48.6l-0.4-0.1l-37.7,90.4h-10.4l-38.9-90.3l-0.4,0.1l0.6,48.5V330l14,2.2v10H77.8z"/>
		<path d="M234.5,342.3v-10l13-2.2v-91.3l-13-2.2v-10.1h85.8v27.9h-12.6l-1.8-15.8h-42.8v37.7H306v12.3h-42.8v42h45.4l1.8-16h12.5
			v27.8H234.5z"/>
		<path d="M336.9,342.3v-10l13-2.2v-91.3l-13-2.2v-10.1h84.1V252h-13.5l-1.2-13.3h-40v35.1h28.6c8.3,0,15.3,1.4,21.1,4.1
			c5.8,2.8,10.3,6.7,13.3,11.7c3.1,5.1,4.6,11.1,4.6,18c0,7-1.5,13-4.6,18.2c-3.1,5.2-7.5,9.2-13.4,12.1c-5.8,2.8-12.9,4.3-21.1,4.3
			H336.9z M366.3,330h28.6c7.9,0,13.7-2.1,17.6-6.4c3.9-4.2,5.8-9.6,5.8-16.1c0-6.3-1.9-11.4-5.8-15.4c-3.9-4-9.7-6-17.6-6h-28.6
			V330z"/>
		<path d="M444.8,342.3V330h3.2c3.6,0,6.6-0.9,9.1-2.6c2.5-1.7,4.5-4.5,6.1-8.4c1.6-3.8,2.8-8.9,3.7-15.1c0.9-6.2,1.5-13.9,1.9-23
			l1.9-42.4l-12.4-2.1v-10.1H555v10.1l-13,2.2V330l13,2.2v10h-41.6v-10l13-2.2v-91.3h-40l-1.9,42.3c-0.5,10.9-1.4,20.2-2.9,27.9
			c-1.4,7.8-3.5,14.1-6.3,19c-2.7,4.9-6.3,8.6-10.5,10.9c-4.3,2.3-9.6,3.5-15.8,3.5H444.8z"/>
		<path d="M664.6,332.3v10h-41.7v-10l13-2.2v-33.1h-23.5L595,329c-2.6,4.5-5.6,8-8.9,10.3c-3.3,2.4-7,3.6-11,3.6
			c-2.2,0-4.1-0.3-5.5-0.8c-1.5-0.5-2.9-1.4-4.4-2.5l2.2-11.1c1.8,0.5,3.4,0.8,4.9,0.8c2.2,0,4.1-0.6,5.7-1.9
			c1.6-1.3,3.2-3.1,4.7-5.5l16.2-27.9l0.2-0.4c-8.3-2.7-14.6-6.8-18.9-12.2c-4.4-5.4-6.5-12.1-6.5-20.1c0-11,3.6-19.6,10.9-25.7
			s17.3-9.2,30.1-9.2h50.2v10.1l-13,2.2V330L664.6,332.3z M614.5,238.7c-8.3,0-14.6,2-18.9,6c-4.3,4-6.4,9.4-6.4,16.4
			c0,7,2.2,12.6,6.5,16.9c4.4,4.3,10.6,6.5,18.7,6.5h21.5v-45.8H614.5z"/>
		<path d="M677.3,342.3v-10l13-2.2v-91.3l-13-2.2v-10.1h13h40.3c8.3,0,15.3,1.4,21.2,4.3c5.8,2.9,10.3,6.9,13.4,12.1
			c3.1,5.2,4.6,11.3,4.6,18.2c0,7-1.5,13.1-4.6,18.3c-3.1,5.2-7.5,9.2-13.4,12.1c-5.8,2.9-12.9,4.3-21.2,4.3h-24.6V330l13,2.2v10
			H677.3z M705.9,283.6h24.6c7.9,0,13.7-2.1,17.6-6.3c3.9-4.2,5.9-9.5,5.9-16c0-6.4-2-11.8-5.9-16.1s-9.8-6.4-17.6-6.4h-24.6V283.6z
			"/>
		<path d="M780.9,342.3v-10l13-2.2v-91.3l-13-2.2v-10.1h41.6v10.1l-13,2.2V330l13,2.2v10H780.9z"/>
	</g>
</g>
<g id="Слой_2">
	<g>
		<g>
			<g>
				<g>
					<path d="M873.6,202.8c0,1.5-192.4,2.6-429.7,2.6s-429.7-1.2-429.7-2.6c0-1.5,192.4-2.6,429.7-2.6S873.6,201.4,873.6,202.8z"/>
				</g>
			</g>
		</g>
		<g>
			<g>
				<g>
					<path class="st0" d="M280.2,185.6c-0.3,0.8-4.9-0.9-12.3-0.8c-3.7,0-8.1,0.7-13.4,1.1c-2.6,0.2-5.6,0.3-8.8-0.4
						c-0.8-0.2-1.6-0.4-2.3-0.7c-0.7-0.3-1.5-0.6-2.2-1c-0.7-0.4-1.5-0.8-2.1-1.4l-1-0.8c-0.3-0.3-0.6-0.6-0.9-1l-0.5-0.5
						c-0.1-0.2-0.3-0.4-0.4-0.6c-0.3-0.4-0.5-0.7-0.8-1.1c-0.4-0.8-0.9-1.6-1.1-2.6c-0.3-0.9-0.4-1.8-0.5-2.8c0-1,0.1-1.9,0.3-2.8
						c0.1-0.5,0.2-0.9,0.4-1.3c0.2-0.4,0.4-0.8,0.6-1.2c0.5-0.7,1-1.5,1.6-2.1c0.3-0.3,0.6-0.6,0.9-0.9c0.3-0.2,0.6-0.5,1-0.7
						c0.6-0.5,1.3-0.8,2-1.2c2.6-1.3,5.7-2,8.6-1.3c1.4,0.3,2.8,1,3.8,2c1,0.9,1.8,2,2.3,3.1c1,2.3,0.8,4.7-0.2,6.5
						c-0.5,0.9-1.2,1.6-2,2c-0.7,0.4-1.5,0.6-2.1,0.7c-1.3,0.2-2.2-0.1-2.8-0.3c-0.6-0.2-0.9-0.4-0.8-0.6c0-0.2,0.4-0.3,0.9-0.4
						c0.5-0.1,1.3-0.3,2.2-0.6c0.8-0.4,1.6-1,1.9-2c0.3-1,0.2-2.4-0.5-3.6c-0.7-1.2-2-2.2-3.6-2.4c-0.8-0.1-1.7-0.1-2.6,0.2
						c-0.9,0.2-1.9,0.7-2.8,1.2c-0.4,0.3-0.9,0.5-1.3,0.9l-0.6,0.5c-0.2,0.2-0.3,0.4-0.5,0.6c-0.4,0.3-0.6,0.8-0.8,1.2
						c-0.1,0.2-0.2,0.4-0.3,0.6c-0.1,0.2-0.2,0.4-0.2,0.7c-0.1,0.4-0.1,0.9-0.1,1.4c0.1,0.5,0.1,0.9,0.3,1.4
						c0.1,0.5,0.4,0.9,0.6,1.4l0.5,0.7c0.1,0.1,0.2,0.2,0.2,0.3l0.3,0.3l0.6,0.6l0.7,0.5c0.4,0.4,1,0.7,1.5,1
						c0.5,0.3,1.1,0.5,1.6,0.8c0.6,0.2,1.1,0.4,1.7,0.6c2.3,0.6,4.8,0.6,7.2,0.6c4.9-0.2,9.8-0.5,13.8,0c4,0.5,7.2,1.5,9.2,2.4
						C279.4,184.5,280.4,185.3,280.2,185.6z"/>
				</g>
			</g>
		</g>
		<g>
			<g>
				<g>
					<path d="M350.4,164.6c-0.1,0.2-0.8,0.1-2-0.3c-1.2-0.5-3.1-1.1-5.1-3c-1-0.9-2-2.2-2.5-3.9c-0.5-1.7-0.2-3.9,0.8-5.7
						c1-1.8,2.6-3.3,4.5-4.4c1.9-1.1,4.2-1.9,6.7-2c2.5-0.2,5.2,0.3,7.7,1.7c2.5,1.4,4.5,3.6,5.9,6.1c0.7,1.3,1.3,2.7,1.6,4.2
						c0.3,1.5,0.5,3.1,0.3,4.8c-0.3,3.3-1.9,6.3-4,8.8c-2.1,2.5-4.7,4.5-7.6,6c-2.9,1.5-6.1,2.6-9.6,3.1c-1.7,0.2-3.6,0.3-5.3,0.1
						c-1.7-0.2-3.4-0.3-5.1-0.7c-0.8-0.2-1.7-0.4-2.5-0.5c-0.8-0.2-1.6-0.5-2.5-0.7c-1.7-0.4-3.3-1.1-4.9-1.7
						c-6.4-2.5-12.1-5.8-17.6-8.7c-5.5-3-10.7-5.7-15.9-7.6c-0.6-0.3-1.3-0.5-1.9-0.7c-0.6-0.2-1.3-0.4-1.9-0.6
						c-1.3-0.4-2.6-0.6-3.8-0.9c-1.3-0.2-2.5-0.3-3.8-0.5c-1.2-0.1-2.3-0.1-3.4,0.1c-4.4,0.6-8.4,3.2-9.9,6.4
						c-0.8,1.6-0.9,3.3-0.4,4.8c0.4,1.5,1.4,2.9,2.5,4.1c2.1,2.3,4.7,3.7,6.8,4.3c2.1,0.6,3.9,0.3,5-0.2c0.3-0.1,0.5-0.2,0.7-0.3
						c0.2-0.1,0.4-0.2,0.5-0.3c0.3-0.2,0.5-0.2,0.5-0.1c0.1,0.1,0,0.2-0.2,0.5c-0.1,0.1-0.2,0.3-0.4,0.5c-0.2,0.2-0.4,0.4-0.7,0.6
						c-1.1,0.9-3.3,1.7-5.9,1.3c-2.6-0.4-5.7-1.7-8.5-4.2c-1.4-1.3-2.8-2.9-3.6-5.1c-0.8-2.2-0.8-4.9,0.2-7.3c1-2.4,2.8-4.5,5-6
						c2.2-1.6,4.8-2.7,7.6-3.2c1.4-0.3,2.9-0.4,4.4-0.3c1.4,0.1,2.8,0.2,4.3,0.4c1.4,0.3,2.9,0.5,4.3,0.9c0.7,0.2,1.4,0.4,2.1,0.6
						c0.7,0.2,1.4,0.4,2.1,0.7c5.7,1.9,11.2,4.7,16.8,7.6c5.6,2.9,11.2,6,17.1,8.4c1.5,0.6,3,1.2,4.5,1.6c0.7,0.2,1.5,0.5,2.2,0.7
						c0.8,0.2,1.5,0.3,2.2,0.5c1.5,0.4,3,0.5,4.5,0.7c1.5,0.2,2.8,0.1,4.2,0c2.8-0.3,5.5-1.2,7.9-2.4c2.4-1.2,4.6-2.8,6.3-4.7
						c1.7-1.9,2.8-4,3.1-6.2c0.2-1.1,0.1-2.2-0.1-3.2c-0.2-1.1-0.6-2.1-1.1-3.1c-1-2-2.4-3.6-4.1-4.6c-1.7-1-3.6-1.5-5.5-1.5
						c-3.7,0-7.2,1.9-8.8,4.2c-0.8,1.2-1.1,2.4-0.9,3.6c0.2,1.2,0.8,2.2,1.5,3c1.4,1.7,3.1,2.7,4.1,3.4
						C350,164,350.5,164.5,350.4,164.6z"/>
				</g>
			</g>
		</g>
		<g>
			<g>
				<g>
					<path d="M414.8,396c0.1,0.1-0.2,0.7-0.9,1.8c-0.6,1.1-1.6,2.7-1.7,4.9c-0.1,1.1,0.1,2.3,0.7,3.4c0.6,1.1,1.5,2.2,2.8,3.1
						c2.5,1.7,6.3,2.6,9.9,1.6c1.8-0.5,3.5-1.6,4.9-3.1c0.3-0.4,0.6-0.8,1-1.2c0.3-0.5,0.6-0.9,0.8-1.4c0.6-1,0.9-2,1.3-3.1
						c0.3-1.1,0.5-2.2,0.5-3.3c0-1.1-0.2-2.3-0.5-3.4c-0.6-2.3-1.9-4.5-3.6-6.4c-3.5-3.8-8.7-6.6-14.4-7.2l-1.1-0.1l-1.1,0
						c-0.7,0-1.5,0.1-2.3,0.1c-1.5,0.1-3,0.3-4.5,0.6c-3,0.5-6,1.5-8.9,2.8c-5.8,2.5-11,6.3-16.2,10c-5.1,3.7-10.4,7.4-16.2,9.6
						c-5.8,2.2-11.9,2.9-17.4,2.1c-2.8-0.4-5.5-1.2-7.9-2.6c-2.4-1.4-4.3-3.6-5.2-6.1c-0.9-2.4-1-5-0.6-7.2c0.5-2.2,1.4-4.1,2.5-5.7
						c2.3-3.2,5.6-4.9,8.4-5c0.3,0,0.7,0,1,0c0.3,0,0.6,0,0.9,0.1c0.6,0.1,1.1,0.2,1.6,0.4c0.5,0.2,0.9,0.4,1.3,0.6
						c0.4,0.2,0.7,0.4,1,0.6c1.1,0.8,1.5,1.4,1.4,1.5c-0.1,0.2-0.8-0.1-1.9-0.6c-0.3-0.1-0.6-0.2-1-0.3c-0.4-0.1-0.8-0.2-1.2-0.3
						c-0.4-0.1-0.9-0.1-1.4-0.1c-0.2,0-0.5,0-0.8,0c-0.3,0-0.5,0-0.8,0.1c-2.1,0.3-4.6,1.9-6.2,4.6c-0.8,1.3-1.4,2.9-1.7,4.6
						c-0.3,1.7,0,3.5,0.7,5.2c0.7,1.7,2.1,3,3.8,4c1.8,1,4,1.6,6.3,1.8c4.8,0.5,10.1-0.2,15.1-2.3c5.1-2.1,9.9-5.5,15-9.3
						c5.1-3.7,10.6-7.8,17.1-10.7c3.3-1.4,6.7-2.5,10.1-3.1c1.7-0.3,3.4-0.5,5.1-0.6c0.9,0,1.7-0.1,2.6-0.1l1.3,0l1.3,0.1
						c3.5,0.4,6.8,1.4,9.8,3c3,1.6,5.6,3.6,7.7,6.1c2.1,2.5,3.7,5.4,4.4,8.5c0.4,1.5,0.5,3.1,0.5,4.7c-0.1,1.5-0.4,3-0.8,4.5
						c-0.5,1.4-1.1,2.7-1.8,3.9c-0.3,0.6-0.8,1.2-1.1,1.7c-0.4,0.6-0.9,1.1-1.4,1.6c-1,1-2.1,1.8-3.2,2.5c-1.2,0.6-2.4,1.2-3.6,1.4
						c-5,1.2-9.6-0.3-12.7-2.8c-1.5-1.3-2.7-2.8-3.3-4.4c-0.6-1.6-0.7-3.3-0.4-4.6c0.6-2.7,2-4.4,2.9-5.3
						C414,396.2,414.7,395.8,414.8,396z"/>
				</g>
			</g>
		</g>
		<g>
			<g>
				<g>
					<path class="st0" d="M455.2,429c-0.2,0.3-0.9,0.1-2-0.5c-1.1-0.6-2.5-1.7-4-3.2c-0.7-0.8-1.6-1.7-2.2-2.8
						c-0.3-0.6-0.7-1.1-1.1-1.7c-0.3-0.6-0.6-1.3-0.9-2c-1.1-2.7-1.9-6-1.8-9.5c0-3.5,0.9-6.7,2.1-9.4c1.1-2.7,2.6-4.9,3.9-6.6
						c1.4-1.6,2.7-2.8,3.7-3.5c1-0.7,1.7-0.9,1.9-0.7c0.3,0.2,0.1,1-0.4,2c-0.5,1-1.2,2.5-2.1,4.2c-0.8,1.8-1.8,3.8-2.5,6.2
						c-0.7,2.4-1.3,5-1.3,7.8c0,2.8,0.4,5.4,1.1,7.7c0.2,0.6,0.4,1.1,0.6,1.7c0.2,0.5,0.5,1,0.7,1.6c0.4,1,1,1.9,1.4,2.8
						c1,1.6,1.8,3,2.4,4C455.2,428,455.4,428.7,455.2,429z"/>
				</g>
			</g>
		</g>
		<g>
			<g>
				<g>
					<path class="st0" d="M454,429c-0.2-0.3,0-1,0.6-2c0.6-1,1.4-2.3,2.4-4c0.4-0.9,1-1.7,1.4-2.8c0.2-0.5,0.5-1,0.7-1.6
						c0.2-0.5,0.4-1.1,0.6-1.7c0.7-2.3,1.1-4.9,1.1-7.7c0-2.8-0.6-5.4-1.3-7.8c-0.7-2.4-1.7-4.4-2.5-6.2c-0.9-1.7-1.6-3.2-2.1-4.2
						c-0.5-1.1-0.6-1.8-0.4-2c0.3-0.2,0.9,0,1.9,0.7c1,0.7,2.3,1.9,3.7,3.5c1.3,1.7,2.8,3.8,3.9,6.6c1.1,2.7,2,5.9,2.1,9.4
						c0.1,3.5-0.7,6.8-1.8,9.5c-0.3,0.7-0.6,1.3-0.9,2c-0.3,0.6-0.7,1.2-1.1,1.7c-0.7,1.1-1.5,2-2.2,2.8c-1.5,1.6-2.9,2.7-4,3.2
						C454.9,429.1,454.2,429.3,454,429z"/>
				</g>
			</g>
		</g>
		<g>
			<g>
				<g>
					<path d="M187.5,190c-0.3-0.7,2.3-2.4,6.7-4.8c2.2-1.2,4.9-2.5,8.1-3.7c3.2-1.2,6.8-2.3,10.8-2.7c8.2-0.9,15.5,1.3,20,4.3
						c2.1,1.6,3.5,2.8,4.5,3.5c1,0.7,1.7,1,1.8,1.4c0,0.3-0.8,0.8-2.4,0.6c-1.6-0.2-3.6-1.2-5.7-2.2c-1-0.4-2.2-0.8-3.5-1.2
						c-1.3-0.4-2.7-0.7-4.2-0.9c-1.5-0.2-3.1-0.4-4.8-0.4c-1.6,0-3.3,0-5.1,0.2c-3.5,0.4-6.8,1.2-9.9,2.1c-3,0.9-5.8,1.8-8.2,2.5
						C190.8,190.1,187.7,190.7,187.5,190z"/>
				</g>
			</g>
		</g>
		<g>
			<g>
				<g>
					<path class="st0" d="M626.6,185.6c-0.1-0.3,0.8-1.1,2.9-2.1c2-1,5.2-2,9.2-2.4c4-0.5,8.9-0.2,13.8,0c2.5,0.1,5,0,7.2-0.6
						c0.5-0.2,1.1-0.3,1.7-0.6c0.5-0.3,1.1-0.5,1.6-0.8c0.5-0.3,1.1-0.6,1.5-1l0.7-0.5l0.6-0.6l0.3-0.3c0.1-0.1,0.2-0.2,0.2-0.3
						l0.5-0.7c0.2-0.5,0.5-0.9,0.6-1.4c0.2-0.5,0.2-1,0.3-1.4c0-0.5,0-0.9-0.1-1.4c0-0.2-0.1-0.5-0.2-0.7c-0.1-0.2-0.2-0.4-0.3-0.6
						c-0.3-0.4-0.5-0.8-0.8-1.2c-0.2-0.2-0.3-0.4-0.5-0.6l-0.6-0.5c-0.4-0.4-0.9-0.6-1.3-0.9c-0.9-0.5-1.9-0.9-2.8-1.2
						c-0.9-0.2-1.8-0.3-2.6-0.2c-1.6,0.2-2.9,1.2-3.6,2.4c-0.7,1.2-0.9,2.6-0.5,3.6c0.3,1,1.1,1.7,1.9,2c0.8,0.4,1.6,0.5,2.2,0.6
						c0.6,0.1,0.9,0.3,0.9,0.4c0,0.2-0.2,0.4-0.8,0.6c-0.6,0.2-1.5,0.4-2.8,0.3c-0.6-0.1-1.4-0.3-2.1-0.7c-0.7-0.4-1.5-1.1-2-2
						c-1-1.8-1.2-4.2-0.2-6.5c0.5-1.1,1.2-2.2,2.3-3.1c1-0.9,2.4-1.6,3.8-2c2.9-0.7,5.9,0,8.6,1.3c0.7,0.4,1.4,0.7,2,1.2
						c0.3,0.2,0.6,0.5,1,0.7c0.3,0.3,0.6,0.6,0.9,0.9c0.6,0.6,1.1,1.4,1.6,2.1c0.2,0.4,0.4,0.8,0.6,1.2c0.2,0.4,0.3,0.9,0.4,1.3
						c0.3,0.9,0.3,1.8,0.3,2.8c-0.1,0.9-0.2,1.9-0.5,2.8c-0.2,0.9-0.7,1.7-1.1,2.6c-0.2,0.4-0.5,0.8-0.8,1.1
						c-0.1,0.2-0.3,0.4-0.4,0.6l-0.5,0.5c-0.3,0.3-0.6,0.7-0.9,1l-1,0.8c-0.7,0.6-1.4,0.9-2.1,1.4c-0.7,0.4-1.5,0.7-2.2,1
						c-0.8,0.3-1.6,0.5-2.3,0.7c-3.2,0.7-6.1,0.6-8.8,0.4c-5.3-0.5-9.6-1.2-13.4-1.1C631.5,184.7,626.9,186.4,626.6,185.6z"/>
				</g>
			</g>
		</g>
		<g>
			<g>
				<g>
					<path d="M556.4,164.6c-0.1-0.2,0.5-0.6,1.6-1.3c1-0.7,2.6-1.7,4.1-3.4c0.7-0.8,1.3-1.9,1.5-3c0.2-1.2-0.1-2.4-0.9-3.6
						c-1.6-2.3-5.1-4.2-8.8-4.2c-1.9-0.1-3.8,0.5-5.5,1.5c-1.7,1-3,2.7-4.1,4.6c-0.5,1-0.9,2-1.1,3.1c-0.2,1.1-0.2,2.2-0.1,3.2
						c0.3,2.2,1.4,4.3,3.1,6.2c1.7,1.9,3.8,3.5,6.3,4.7c2.4,1.2,5.1,2.1,7.9,2.4c1.4,0.2,2.7,0.2,4.2,0c1.5-0.2,3-0.3,4.5-0.7
						c0.7-0.2,1.5-0.3,2.2-0.5c0.7-0.2,1.5-0.4,2.2-0.7c1.5-0.4,3-1,4.5-1.6c6-2.3,11.6-5.5,17.1-8.4c5.6-2.9,11.1-5.7,16.8-7.6
						c0.7-0.3,1.4-0.5,2.1-0.7c0.7-0.2,1.4-0.4,2.1-0.6c1.4-0.4,2.9-0.6,4.3-0.9c1.4-0.2,2.9-0.3,4.3-0.4c1.4-0.1,3,0,4.4,0.3
						c2.8,0.5,5.4,1.6,7.6,3.2c2.2,1.6,4,3.6,5,6c1,2.4,1,5.2,0.2,7.3c-0.8,2.2-2.2,3.8-3.6,5.1c-2.8,2.6-5.8,3.8-8.5,4.2
						c-2.7,0.4-4.8-0.4-5.9-1.3c-0.3-0.2-0.5-0.4-0.7-0.6c-0.2-0.2-0.3-0.4-0.4-0.5c-0.2-0.3-0.2-0.5-0.2-0.5c0.1-0.1,0.3,0,0.5,0.1
						c0.1,0.1,0.3,0.2,0.5,0.3c0.2,0.1,0.5,0.2,0.7,0.3c1.1,0.5,2.8,0.8,5,0.2c2.1-0.6,4.7-2,6.8-4.3c1.1-1.2,2-2.5,2.5-4.1
						c0.4-1.5,0.4-3.2-0.4-4.8c-1.5-3.2-5.5-5.8-9.9-6.4c-1.1-0.2-2.2-0.2-3.4-0.1c-1.2,0.2-2.5,0.2-3.8,0.5
						c-1.3,0.3-2.5,0.5-3.8,0.9c-0.6,0.2-1.3,0.4-1.9,0.6c-0.6,0.2-1.3,0.4-1.9,0.7c-5.2,1.9-10.5,4.6-15.9,7.6
						c-5.5,2.9-11.2,6.2-17.6,8.7c-1.6,0.6-3.2,1.2-4.9,1.7c-0.8,0.2-1.6,0.5-2.5,0.7c-0.8,0.2-1.7,0.4-2.5,0.5
						c-1.7,0.4-3.4,0.5-5.1,0.7c-1.7,0.2-3.6,0.1-5.3-0.1c-3.5-0.4-6.7-1.5-9.6-3.1c-2.9-1.5-5.5-3.5-7.6-6c-2.1-2.5-3.7-5.5-4-8.8
						c-0.2-1.6-0.1-3.2,0.3-4.8c0.3-1.5,1-2.9,1.6-4.2c1.4-2.5,3.4-4.7,5.9-6.1c2.5-1.3,5.2-1.9,7.7-1.7c2.5,0.2,4.8,0.9,6.7,2
						c1.9,1.1,3.5,2.6,4.5,4.4c1,1.8,1.4,3.9,0.8,5.7c-0.5,1.7-1.5,3-2.5,3.9c-2,1.8-3.9,2.5-5.1,3
						C557.1,164.7,556.4,164.8,556.4,164.6z"/>
				</g>
			</g>
		</g>
		<g>
			<g>
				<g>
					<path d="M493.3,396c0.1-0.1,0.7,0.2,1.7,1.2c1,0.9,2.3,2.6,2.9,5.3c0.3,1.4,0.2,3-0.4,4.6c-0.6,1.6-1.8,3.2-3.3,4.4
						c-3,2.5-7.7,4-12.7,2.8c-1.2-0.3-2.5-0.8-3.6-1.4c-1.2-0.7-2.3-1.5-3.2-2.5c-0.5-0.5-1-1-1.4-1.6c-0.4-0.6-0.8-1.1-1.1-1.7
						c-0.7-1.2-1.3-2.5-1.8-3.9c-0.4-1.4-0.7-2.9-0.8-4.5c-0.1-1.5,0.1-3.1,0.5-4.7c0.7-3.1,2.3-6,4.4-8.5c2.1-2.5,4.7-4.5,7.7-6.1
						c3-1.6,6.3-2.6,9.8-3l1.3-0.1l1.3,0c0.9,0,1.7,0.1,2.6,0.1c1.7,0.1,3.4,0.3,5.1,0.6c3.4,0.6,6.8,1.7,10.1,3.1
						c6.5,2.8,12,6.9,17.1,10.7c5.1,3.8,9.9,7.2,15,9.3c5,2.1,10.3,2.8,15.1,2.3c2.4-0.2,4.6-0.8,6.3-1.8c1.8-1,3.1-2.4,3.8-4
						c0.7-1.6,0.9-3.5,0.7-5.2c-0.2-1.7-0.8-3.3-1.7-4.6c-1.6-2.7-4-4.2-6.2-4.6c-0.3-0.1-0.5-0.1-0.8-0.1c-0.3,0-0.5,0-0.8,0
						c-0.5,0.1-1,0-1.4,0.1c-0.4,0.1-0.8,0.2-1.2,0.3c-0.4,0.1-0.7,0.2-1,0.3c-1.2,0.5-1.8,0.7-1.9,0.6c-0.1-0.1,0.3-0.7,1.4-1.5
						c0.3-0.2,0.6-0.4,1-0.6c0.4-0.2,0.8-0.4,1.3-0.6c0.5-0.2,1-0.3,1.6-0.4c0.3,0,0.6-0.1,0.9-0.1c0.3,0,0.7,0,1,0
						c2.8,0.1,6.1,1.8,8.4,4.9c1.1,1.6,2.1,3.5,2.5,5.7c0.5,2.2,0.4,4.7-0.6,7.2c-0.9,2.5-2.8,4.7-5.2,6.1c-2.4,1.5-5.1,2.3-7.9,2.6
						c-5.5,0.8-11.6,0.1-17.4-2.1c-5.8-2.2-11.1-5.9-16.2-9.6c-5.2-3.7-10.3-7.5-16.2-10c-2.9-1.3-5.9-2.2-8.9-2.8
						c-1.5-0.3-3-0.5-4.5-0.6c-0.8,0-1.5-0.1-2.3-0.1l-1.1,0l-1.1,0.1c-5.6,0.5-10.9,3.3-14.4,7.2c-1.7,1.9-3,4.1-3.6,6.4
						c-0.3,1.1-0.4,2.3-0.5,3.4c0,1.1,0.2,2.2,0.5,3.3c0.3,1.1,0.7,2.1,1.3,3.1c0.2,0.5,0.6,0.9,0.8,1.4c0.3,0.4,0.6,0.8,1,1.2
						c1.4,1.5,3.1,2.6,4.9,3.1c3.6,1.1,7.4,0.2,9.9-1.6c1.3-0.9,2.2-1.9,2.8-3.1c0.6-1.1,0.8-2.3,0.7-3.4c-0.2-2.2-1.1-3.8-1.7-4.9
						C493.5,396.7,493.1,396.1,493.3,396z"/>
				</g>
			</g>
		</g>
		<g>
			<g>
				<g>
					<path d="M719.4,190c-0.3,0.7-3.4,0.1-8.1-1.3c-2.4-0.7-5.1-1.6-8.2-2.5c-3-0.9-6.4-1.7-9.9-2.1c-1.8-0.2-3.4-0.2-5.1-0.2
						c-1.7,0.1-3.3,0.2-4.8,0.4c-1.5,0.2-2.9,0.5-4.2,0.9c-1.3,0.4-2.6,0.8-3.5,1.2c-2.1,1-4.1,2-5.7,2.2c-1.6,0.2-2.5-0.2-2.4-0.6
						c0-0.4,0.7-0.7,1.8-1.4c1.1-0.7,2.4-1.9,4.5-3.5c4.5-3,11.8-5.3,20-4.3c4,0.4,7.7,1.5,10.8,2.7c3.2,1.2,5.9,2.5,8.1,3.7
						C717.1,187.6,719.6,189.3,719.4,190z"/>
				</g>
			</g>
		</g>
		<g>
			<g>
				<g>
					<path d="M253.7,389.9c-0.2,0-0.4-0.3-0.6-1c-0.1-0.7-0.3-1.7,0-3.1c0.3-1.3,1.2-3.1,2.8-4.3c1.6-1.3,3.7-2.2,6-2.7
						c2.3-0.5,4.9-0.7,7.5-0.7c1.3,0,2.7,0.1,4.1,0.2c0.7,0.1,1.4,0.2,2.2,0.3c0.7,0.1,1.5,0.3,2.3,0.5c3.1,0.7,6.1,2.2,8.9,3.7
						c2.8,1.5,5.5,3.1,8.3,4.1c1.4,0.5,2.8,0.8,4.2,1c1.4,0.1,2.8,0.1,4.1-0.1c2.7-0.4,5.3-1.4,7.8-2.6c4.9-2.4,9.5-5.3,13.9-6.8
						c2.2-0.8,4.3-1.2,6.2-1.3c1.9-0.1,3.5,0.1,4.8,0.4c2.5,0.7,3.7,1.6,3.5,1.9c-0.1,0.4-1.5,0.1-3.8,0.1c-1.2,0-2.5,0.1-4.1,0.5
						c-1.6,0.3-3.3,1-5.1,1.8c-1.8,0.9-3.8,2.1-6,3.4c-2.1,1.3-4.5,2.9-7.1,4.3c-2.7,1.4-5.7,2.8-9.2,3.3c-1.7,0.3-3.6,0.3-5.4,0.2
						c-1.9-0.2-3.7-0.6-5.4-1.3c-3.5-1.3-6.3-3.1-9-4.6c-2.7-1.5-5.2-2.8-7.7-3.5c-0.6-0.2-1.2-0.4-1.8-0.5c-0.7-0.1-1.3-0.2-2-0.3
						c-1.3-0.2-2.6-0.4-3.8-0.5c-2.4-0.2-4.7-0.2-6.7,0c-2,0.2-3.7,0.7-4.9,1.4c-1.3,0.7-2,1.7-2.5,2.6
						C254.2,388.5,254.2,389.9,253.7,389.9z"/>
				</g>
			</g>
		</g>
		<g>
			<g>
				<g>
					<path d="M653.2,389.9c-0.4,0-0.4-1.5-1.4-3.4c-0.5-0.9-1.3-1.9-2.5-2.6c-1.2-0.7-2.9-1.2-4.9-1.4c-2-0.2-4.2-0.2-6.7,0
						c-1.2,0.1-2.5,0.3-3.8,0.5c-0.6,0.1-1.3,0.2-2,0.3c-0.6,0.1-1.2,0.3-1.8,0.5c-2.5,0.7-5,2-7.7,3.5c-2.7,1.5-5.6,3.3-9,4.6
						c-1.7,0.6-3.6,1.1-5.4,1.3c-1.9,0.1-3.7,0.1-5.4-0.2c-3.5-0.6-6.6-1.9-9.2-3.3c-2.7-1.4-5-3-7.1-4.3c-2.1-1.4-4.1-2.5-6-3.4
						c-1.8-0.9-3.6-1.5-5.1-1.8c-1.6-0.4-2.9-0.4-4.1-0.5c-2.3,0-3.7,0.2-3.8-0.1c-0.1-0.3,1-1.2,3.5-1.9c1.3-0.3,2.9-0.5,4.8-0.4
						c1.9,0.1,4,0.6,6.2,1.3c4.4,1.5,8.9,4.4,13.9,6.8c2.5,1.2,5.1,2.2,7.8,2.6c1.4,0.2,2.7,0.2,4.1,0.1c1.4-0.2,2.8-0.5,4.2-1
						c2.8-1,5.5-2.6,8.3-4.1c2.8-1.5,5.8-2.9,8.9-3.7c0.8-0.2,1.6-0.4,2.3-0.5c0.7-0.1,1.4-0.2,2.2-0.3c1.4-0.1,2.8-0.2,4.1-0.2
						c2.7,0,5.2,0.2,7.5,0.7c2.3,0.5,4.4,1.4,6,2.7c1.6,1.3,2.5,3,2.8,4.3c0.3,1.4,0.1,2.4,0,3.1C653.6,389.6,653.4,390,653.2,389.9
						z"/>
				</g>
			</g>
		</g>
		<g>
			<g>
				<g>
					<path d="M873.6,363.9c0,1.5-192.4,2.6-429.7,2.6s-429.7-1.2-429.7-2.6c0-1.5,192.4-2.6,429.7-2.6S873.6,362.4,873.6,363.9z"/>
				</g>
			</g>
		</g>
	</g>
</g>
<g id="Слой_4">
	<circle class="st1" cx="453.4" cy="102.7" r="87.3"/>
</g>
<g id="Слой_5">
	<g>
		<path class="st0" d="M449.1,123.7c-9.3-23.8-18.7-47.6-28-71.5h-28.8v8.8l11.3,1.9v79.5l-11.3,1.9v8.7h36.2v-8.7l-11.3-1.9v-29.2
			l-1.4-40.8l0.3-0.1c9.6,23.7,19.1,47.4,28.7,71c2.1-5,4.1-9.9,6.2-14.9C450.4,126.9,449.7,125.3,449.1,123.7z"/>
	</g>
</g>
<g id="Слой_6">
	<g>
		<path d="M514.5,61.1v-8.8h-28.8c-10.7,27.3-21.4,54.6-32.1,82c-0.2,0.6-0.6,1.5-1.1,2.8c-1.3,3.3-2.1,5-3.9,9.3
			c-0.3,0.7-0.7,1.8-1.3,3.1c0.1,0.3,0.3,0.7,0.5,1.3c0.1,0.3,0.2,0.5,0.4,0.9c0.2,0.5,0.4,1,0.6,1.6c3,0,6.1,0,9.1,0l32.6-80.9
			l0.3,0.1l-1.3,40.9v29.2l-11.3,1.9v8.7h36.2v-8.7l-11.3-1.9V63L514.5,61.1z"/>
	</g>
	<path d="M473.4,139.9"/>
</g>
</svg>
