<?xml version="1.0" encoding="utf-8"?>
<!-- Generator: Adobe Illustrator 22.0.1, SVG Export Plug-In . SVG Version: 6.00 Build 0)  -->
<svg version="1.1" id="Слой_3" xmlns="http://www.w3.org/2000/svg" xmlns:xlink="http://www.w3.org/1999/xlink" x="0px" y="0px"
	 viewBox="0 0 94.4 86.1" style="enable-background:new 0 0 94.4 86.1;" xml:space="preserve">
<style type="text/css">
	.st0{fill:#1B1C1E;}
	.st1{fill:#2F2D2D;}
	.st2{fill:#FFFFFF;}
</style>
<path class="st0" d="M93.4,50c-0.2,4.9-1.2,9.5-2.8,13.9c-1.3-3.6-2.6-7.1-3.8-10.7c-2.1,4.7-4.2,9.5-6.2,14.2
	c-1.7-2.1-3.4-4.3-5.1-6.4c-1.6,2-3.2,4-4.8,6c-3-3.9-6-7.8-9-11.7c-2.3,3.3-4.6,6.5-7,9.8c-2.4-3.3-4.9-6.7-7.3-10
	c-2.3,2.4-4.7,4.8-7.1,7.3c-1.7-2-3.5-3.9-5.2-5.8c-1.7,1.7-3.4,3.3-5.1,5c-3.6-3.9-7.1-7.9-10.6-11.8c-3.3,6.2-6.7,12.4-10,18.5
	l-5.6-11c-0.5,1-1,1.9-1.5,2.9c-0.9-3.2-1.5-6.6-1.6-10.1c0-0.8-0.1-1.6-0.1-2.4c0-26.7,22.5-48.1,49.6-46.3
	c22.6,1.5,41,19.4,43.1,42C93.5,45.5,93.5,47.8,93.4,50z"/>
<path class="st1" d="M93.4,50c-0.2,4.9-1.2,9.5-2.8,13.9c-1.3-3.6-2.6-7.1-3.8-10.7c-2.1,4.7-4.2,9.5-6.2,14.2
	c-1.7-2.1-3.4-4.3-5.1-6.4c-1.6,2-3.2,4-4.8,6c-3-3.9-6-7.8-9-11.7c-2.3,3.3-4.6,6.5-7,9.8c-2.4-3.3-4.9-6.7-7.3-10
	c-2.3,2.4-4.7,4.8-7.1,7.3c-1.7-2-3.5-3.9-5.2-5.8c-1.7,1.7-3.4,3.3-5.1,5c-3.6-3.9-7.1-7.9-10.6-11.8c-3.3,6.2-6.7,12.4-10,18.5
	l-5.6-11c-0.5,1-1,1.9-1.5,2.9c-0.9-3.2-1.5-6.6-1.6-10.1c0-0.5,0.1-1,0.1-1.5c0.2,2.9,0.8,5.8,1.5,8.5c0.5-1,1-1.9,1.5-2.9l5.6,11
	c3.3-6.2,6.6-12.3,10-18.5c3.5,3.9,7.1,7.9,10.6,11.8c1.7-1.7,3.4-3.3,5.1-5c1.7,2,3.5,3.9,5.2,5.8c2.4-2.4,4.7-4.8,7.1-7.3
	c2.5,3.3,4.9,6.7,7.3,10c2.3-3.3,4.6-6.5,7-9.8c3,3.9,6,7.8,9,11.7c1.6-2,3.2-4,4.8-6c1.7,2.2,3.4,4.3,5.1,6.4
	c2.1-4.7,4.1-9.5,6.2-14.2c1.3,3.6,2.5,7.1,3.8,10.7c1.5-3.9,2.4-8.1,2.8-12.4C93.3,49,93.4,49.5,93.4,50z"/>
<g>
	<path class="st0" d="M23.1,79.5c0,1.5-1.2,2.7-2.7,2.7c-0.3,0-0.1,0-0.4,0c-1.1,0-2.2-0.5-2.7-1.3h0v-1.2h1.3v0.9
		c0.3,0.3,0.8,0.5,1.5,0.5c0.2,0,0.3,0,0.3,0c0.9,0,1.6-0.7,1.6-1.6s-0.7-1.3-1.6-1.4c-0.2,0-0.4,0-0.6-0.1c-1.3-0.2-2.5-1-2.5-2.4
		c0-1.3,1.1-2.5,2.5-2.5c0,0,0.1,0,0.2,0c0.9,0,1.8,0.4,2.4,1v1.5h-1.3v-1c-0.3-0.2-0.7-0.3-1.1-0.3c-0.1,0-0.1,0-0.2,0
		c-0.7,0-1.3,0.6-1.3,1.3c0,0.7,0.5,1.1,1.3,1.2c0.2,0,0.4,0.1,0.6,0.1C22,77.1,23.1,78,23.1,79.5z"/>
	<path class="st0" d="M27.2,77.3h-1.5V81h0.7v1.1h-1.9h0v-4.9h-1.5v-1.2h1.5l0-1.7h-0.7v-1.2h1.9l0,2.9h1.5V77.3z"/>
	<path class="st0" d="M34.1,81v1.2h-1.9v-0.7c-0.5,0.4-1.1,0.7-1.8,0.7c-1.6,0-2.9-1.3-2.9-3c0-1.6,1.3-3,2.9-3
		c0.7,0,1.3,0.3,1.8,0.7v-0.7h1.1V81H34.1z M32.2,79c-0.1-0.9-0.9-1.6-1.8-1.6c-1,0-1.8,0.8-1.8,1.9c0,1,0.8,1.9,1.8,1.9
		c0.9,0,1.7-0.7,1.8-1.6V79z"/>
	<path class="st0" d="M36.6,79.2v1.9h0.8v1.1h-2.5v-1.1h0.7v-3.8h-0.7v-1.2h1.8v0.7c0.5-0.4,1.1-0.7,1.8-0.7v1.1
		C37.5,77.3,36.6,78.1,36.6,79.2z"/>
	<path class="st0" d="M43.2,80.3c0,1-0.8,1.8-1.9,1.8h-0.1h-0.1c-0.7,0-1.5-0.3-1.8-0.9l0-0.1h0v-1h1.1v0.6c0.2,0.2,0.5,0.3,0.9,0.3
		c0.1,0,0.1,0,0.2,0h0c0.5,0,0.9-0.4,0.9-0.9c0-0.4-0.3-0.6-0.9-0.7c-0.1,0-0.1,0-0.2,0c-0.1,0-0.1,0-0.2,0
		c-0.8-0.1-1.7-0.6-1.7-1.6c0-1,0.8-1.8,1.7-1.8h0.1c0.6,0,1.3,0.3,1.6,0.7l0.1,0.1v1h-0.5h-0.5v-0.5c-0.2-0.1-0.4-0.2-0.6-0.2
		c0,0-0.1,0-0.1,0c-0.3,0-0.6,0.3-0.6,0.7c0,0.2,0.1,0.5,0.7,0.6c0.1,0,0.2,0,0.2,0c0.1,0,0.1,0,0.2,0
		C42.5,78.7,43.2,79.4,43.2,80.3z"/>
	<path class="st0" d="M52.6,74.4v6.5h0.8v1.3h-2.9v-1.3h0.9v-5l-2.7,6L46,76v5h0.8v1.3h-2.9v-1.3h0.9v-6.5h-0.9v-1.2h2.3l2.5,5.8
		l2.5-5.8h2.2v1.2H52.6z"/>
	<path class="st0" d="M60.8,81v1.2h-1.9v-0.7c-0.5,0.4-1.1,0.7-1.8,0.7c-1.6,0-2.9-1.3-2.9-3c0-1.6,1.3-3,2.9-3
		c0.7,0,1.3,0.3,1.8,0.7v-0.7H60V81H60.8z M58.9,79c-0.1-0.9-0.9-1.6-1.8-1.6c-1,0-1.8,0.8-1.8,1.9c0,1,0.8,1.9,1.8,1.9
		c0.9,0,1.7-0.7,1.8-1.6V79z"/>
	<path class="st0" d="M68.3,79.2c0,1.7-1.3,3-2.9,3c-0.7,0-1.3-0.3-1.8-0.7V84h0.9v1.2h-2.9V84h0.8v-6.7h-0.8v-1.2h1.9v0.7
		c0.5-0.4,1.1-0.7,1.8-0.7C66.9,76.2,68.3,77.5,68.3,79.2z M67.2,79.2c0-1.1-0.8-1.9-1.9-1.9c-0.9,0-1.7,0.7-1.8,1.7v0.5
		c0.1,0.9,0.9,1.7,1.8,1.7C66.4,81.1,67.2,80.2,67.2,79.2z"/>
	<path class="st0" d="M71.4,82.2h-2.7v-1.1h0.8v-3.7h-0.8v-1.2h1.9v4.9h0.7V82.2z M70.7,74.3c0-0.3-0.3-0.6-0.6-0.6
		c-0.3,0-0.6,0.3-0.6,0.6c0,0.3,0.3,0.6,0.6,0.6C70.4,74.9,70.7,74.7,70.7,74.3z"/>
	<path class="st0" d="M78.6,81v1.2h-1.9v-0.7c-0.5,0.4-1.1,0.7-1.8,0.7c-1.6,0-2.9-1.3-2.9-3c0-1.6,1.3-3,2.9-3
		c0.7,0,1.3,0.3,1.8,0.7v-0.7h1.1V81H78.6z M76.6,79c-0.1-0.9-0.9-1.6-1.8-1.6c-1,0-1.8,0.8-1.8,1.9c0,1,0.8,1.9,1.8,1.9
		c0.9,0,1.7-0.7,1.8-1.6V79z"/>
</g>
<circle class="st2" cx="34.1" cy="44.4" r="2.1"/>
<circle class="st2" cx="49.5" cy="27" r="2.1"/>
<circle class="st2" cx="61.2" cy="40.2" r="2.1"/>
<circle class="st2" cx="23.1" cy="23" r="2.1"/>
<circle class="st2" cx="75.9" cy="29.2" r="2.1"/>
<g>
	<g>
		<path class="st2" d="M25.7,28.6c-0.2,0-0.4-0.1-0.5-0.3L24.5,27c-0.1-0.3,0-0.6,0.2-0.7c0.3-0.1,0.6,0,0.7,0.2l0.7,1.3
			c0.1,0.3,0,0.6-0.2,0.7C25.9,28.6,25.8,28.6,25.7,28.6z"/>
	</g>
	<g>
		<path class="st2" d="M30.4,37.6c-0.2,0-0.4-0.1-0.5-0.3l-1.2-2.3c-0.1-0.3,0-0.6,0.2-0.7c0.3-0.1,0.6,0,0.7,0.2l1.2,2.3
			c0.1,0.3,0,0.6-0.2,0.7C30.5,37.6,30.5,37.6,30.4,37.6z M28,33.1c-0.2,0-0.4-0.1-0.5-0.3l-1.2-2.3c-0.1-0.3,0-0.6,0.2-0.7
			c0.3-0.1,0.6,0,0.7,0.2l1.2,2.3c0.1,0.3,0,0.6-0.2,0.7C28.2,33.1,28.1,33.1,28,33.1z"/>
	</g>
	<g>
		<path class="st2" d="M32.2,41.2c-0.2,0-0.4-0.1-0.5-0.3L31,39.6c-0.1-0.3,0-0.6,0.2-0.7c0.3-0.1,0.6,0,0.7,0.2l0.7,1.3
			c0.1,0.3,0,0.6-0.2,0.7C32.4,41.2,32.3,41.2,32.2,41.2z"/>
	</g>
</g>
<g>
	<g>
		<path class="st2" d="M45.9,31.6c-0.1,0-0.3,0-0.4-0.1c-0.2-0.2-0.3-0.5,0-0.8l1-1.1c0.2-0.2,0.5-0.3,0.8,0c0.2,0.2,0.3,0.5,0,0.8
			l-1,1.1C46.2,31.5,46,31.6,45.9,31.6z"/>
	</g>
	<g>
		<path class="st2" d="M39.3,39c-0.1,0-0.3,0-0.4-0.1c-0.2-0.2-0.3-0.5,0-0.8l1.6-1.9c0.2-0.2,0.5-0.3,0.8,0c0.2,0.2,0.3,0.5,0,0.8
			l-1.6,1.9C39.6,38.9,39.5,39,39.3,39z M42.6,35.3c-0.1,0-0.3,0-0.4-0.1c-0.2-0.2-0.3-0.5,0-0.8l1.6-1.9c0.2-0.2,0.5-0.3,0.8,0
			c0.2,0.2,0.3,0.5,0,0.8L43,35.1C42.9,35.2,42.8,35.3,42.6,35.3z"/>
	</g>
	<g>
		<path class="st2" d="M36.7,42c-0.1,0-0.3,0-0.4-0.1c-0.2-0.2-0.3-0.5,0-0.8l1-1.1c0.2-0.2,0.5-0.3,0.8,0s0.3,0.5,0,0.8l-1,1.1
			C37,41.9,36.9,42,36.7,42z"/>
	</g>
</g>
<g>
	<g>
		<path class="st2" d="M58.6,37.8c-0.2,0-0.3-0.1-0.4-0.2l-1-1.1c-0.2-0.2-0.2-0.6,0-0.8c0.2-0.2,0.6-0.2,0.8,0l1,1.1
			c0.2,0.2,0.2,0.6,0,0.8C58.8,37.7,58.7,37.8,58.6,37.8z"/>
	</g>
	<g>
		<path class="st2" d="M56.1,35c-0.2,0-0.3-0.1-0.4-0.2l-1.5-1.7c-0.2-0.2-0.2-0.6,0-0.8c0.2-0.2,0.6-0.2,0.8,0l1.5,1.7
			c0.2,0.2,0.2,0.6,0,0.8C56.3,34.9,56.2,35,56.1,35z"/>
	</g>
	<g>
		<path class="st2" d="M53.1,31.6c-0.2,0-0.3-0.1-0.4-0.2l-1-1.1c-0.2-0.2-0.2-0.6,0-0.8c0.2-0.2,0.6-0.2,0.8,0l1,1.1
			c0.2,0.2,0.2,0.6,0,0.8C53.4,31.6,53.2,31.6,53.1,31.6z"/>
	</g>
</g>
<g>
	<g>
		<path class="st2" d="M71.5,33.1c-0.2,0-0.3-0.1-0.4-0.2c-0.2-0.2-0.1-0.6,0.1-0.8l1.2-0.9c0.2-0.2,0.6-0.1,0.8,0.1
			c0.2,0.2,0.1,0.6-0.1,0.8l-1.2,0.9C71.7,33,71.6,33.1,71.5,33.1z"/>
	</g>
	<g>
		<path class="st2" d="M67.6,36c-0.2,0-0.3-0.1-0.4-0.2C67,35.5,67,35.2,67.3,35l1.9-1.5c0.2-0.2,0.6-0.1,0.8,0.1
			c0.2,0.2,0.1,0.6-0.1,0.8l-1.9,1.5C67.8,35.9,67.7,36,67.6,36z"/>
	</g>
	<g>
		<path class="st2" d="M64.5,38.3c-0.2,0-0.3-0.1-0.4-0.2c-0.2-0.2-0.1-0.6,0.1-0.8l1.2-0.9c0.2-0.2,0.6-0.1,0.8,0.1
			c0.2,0.2,0.1,0.6-0.1,0.8l-1.2,0.9C64.7,38.3,64.6,38.3,64.5,38.3z"/>
	</g>
</g>
<g>
	<g>
		<path class="st2" d="M49,14.8c-0.1,0-0.3-0.1-0.4-0.2c-0.2-0.2-0.2-0.6,0-0.8l1.6-1.6c0.2-0.2,0.6-0.2,0.8,0
			c0.2,0.2,0.2,0.6,0,0.8l-1.6,1.6C49.3,14.8,49.2,14.8,49,14.8z"/>
	</g>
	<g>
		<path class="st2" d="M50.6,14.8c-0.1,0-0.3-0.1-0.4-0.2l-1.6-1.6c-0.2-0.2-0.2-0.6,0-0.8c0.2-0.2,0.6-0.2,0.8,0l1.6,1.6
			c0.2,0.2,0.2,0.6,0,0.8C50.9,14.8,50.7,14.8,50.6,14.8z"/>
	</g>
</g>
<g>
	<g>
		<path class="st2" d="M52.5,45.7c-0.1,0-0.3-0.1-0.4-0.2c-0.2-0.2-0.2-0.6,0-0.8l1.5-1.5c0.2-0.2,0.6-0.2,0.8,0
			c0.2,0.2,0.2,0.6,0,0.8l-1.5,1.5C52.8,45.6,52.6,45.7,52.5,45.7z"/>
	</g>
	<g>
		<path class="st2" d="M54,45.7c-0.1,0-0.3-0.1-0.4-0.2L52.1,44c-0.2-0.2-0.2-0.6,0-0.8c0.2-0.2,0.6-0.2,0.8,0l1.5,1.5
			c0.2,0.2,0.2,0.6,0,0.8C54.3,45.6,54.1,45.7,54,45.7z"/>
	</g>
</g>
<circle class="st2" cx="32.5" cy="19.2" r="0.7"/>
<circle class="st2" cx="37.7" cy="15.5" r="0.9"/>
<circle class="st2" cx="37.9" cy="22.3" r="1.6"/>
<circle class="st2" cx="46.7" cy="39.2" r="0.8"/>
<g>
	<g>
		<path class="st2" d="M62.2,27.9c-0.3,0-0.5-0.2-0.5-0.5V22c0-0.3,0.2-0.5,0.5-0.5s0.5,0.2,0.5,0.5v5.3
			C62.8,27.6,62.5,27.9,62.2,27.9z"/>
	</g>
	<g>
		<path class="st2" d="M64.8,25.2h-5.3c-0.3,0-0.5-0.2-0.5-0.5s0.2-0.5,0.5-0.5h5.3c0.3,0,0.5,0.2,0.5,0.5S65.1,25.2,64.8,25.2z"/>
	</g>
</g>
<g>
	<g>
		<line x1="63.4" y1="23.4" x2="61" y2="25.9"/>
		<path class="st0" d="M61,26.5c-0.1,0-0.3-0.1-0.4-0.2c-0.2-0.2-0.2-0.6,0-0.8l2.5-2.5c0.2-0.2,0.6-0.2,0.8,0
			c0.2,0.2,0.2,0.6,0,0.8l-2.5,2.5C61.2,26.4,61.1,26.5,61,26.5z"/>
	</g>
	<g>
		<line x1="60.9" y1="23.4" x2="63.4" y2="25.9"/>
		<path class="st0" d="M63.4,26.4c-0.1,0-0.3-0.1-0.4-0.2l-2.5-2.5c-0.2-0.2-0.2-0.6,0-0.8c0.2-0.2,0.6-0.2,0.8,0l2.5,2.5
			c0.2,0.2,0.2,0.6,0,0.8C63.7,26.4,63.6,26.4,63.4,26.4z"/>
	</g>
</g>
<circle class="st1" cx="12.7" cy="39.3" r="0.5"/>
<circle class="st1" cx="25.7" cy="46.3" r="0.7"/>
<circle class="st1" cx="21.7" cy="34.3" r="0.8"/>
<circle class="st1" cx="46.7" cy="46.3" r="0.4"/>
<circle class="st1" cx="41.7" cy="31.3" r="0.3"/>
<circle class="st1" cx="50.7" cy="8.3" r="0.7"/>
<circle class="st1" cx="75.7" cy="47.3" r="0.3"/>
<circle class="st1" cx="16.7" cy="25.3" r="0.3"/>
<circle class="st1" cx="67.7" cy="16.3" r="0.7"/>
<circle class="st1" cx="78.7" cy="24.3" r="0.5"/>
</svg>
