<?xml version="1.0" encoding="utf-8"?>
<!-- Generator: Adobe Illustrator 22.0.1, SVG Export Plug-In . SVG Version: 6.00 Build 0)  -->
<svg version="1.1" xmlns="http://www.w3.org/2000/svg" xmlns:xlink="http://www.w3.org/1999/xlink" x="0px" y="0px"
	 viewBox="0 0 1000 1000" style="enable-background:new 0 0 1000 1000;" xml:space="preserve">
<style type="text/css">
	.st0{fill:#2C4263;}
	.st1{fill:#1B2A3F;}
	.st2{fill:#171630;}
	.st3{fill:#FFFFFF;}
	.st4{opacity:0.5;}
	.st5{display:none;}
	.st6{display:inline;}
</style>
<g id="Слой_4">
	<polygon class="st0" points="773,726.6 938.4,726.6 915.8,628.9 938.4,531.3 773,531.3 	"/>
	<path class="st1" d="M773,726.6c0,0,105.5-53.4,105.5-64.9c0-11.5,0-173.5,0-173.5L773,553.1V726.6z"/>
	<polygon class="st0" points="250.2,726.6 82.9,726.6 105.8,628.9 82.9,531.3 250.2,531.3 	"/>
	<path class="st1" d="M250.2,726.6c0,0-105.5-51-105.5-64.9s0-173.5,0-173.5l105.5,64.9V726.6z"/>
</g>
<g id="Слой_2">
	<g>
		<g>
			<g>
				<path class="st2" d="M512.8,28.2c0,0,237.5,133.4,335.4,59.7c0,0,32.6,457-155.9,649.8c-44.6,45.6-174,130-177.7,130
					c-0.6-0.1-1.2-0.2-1.8-0.2c-0.6,0.1-1.2,0.2-1.8,0.2c-3.6,0-133.1-84.3-177.7-130C144.9,544.9,177.4,87.9,177.4,87.9
					C275.3,161.6,512.8,28.2,512.8,28.2z"/>
			</g>
		</g>
	</g>
</g>
<g id="Слой_1">
	<path class="st3" d="M529.4,219.4l11.1-17.9l6.7,32.2c0,0,79.9,7.1,79.9-40.2c0,0,117.7,35.8,145.7,147.1c0,0-21.3-43.8-69.8-43.8
		c-33,0-20.7,29-20.7,29s-21.1-12.3-59.7-12.3c-38.6,0-101.4,22.3-109.8,80.7c-8.3-58.5-71.2-80.7-109.8-80.7
		c-38.6,0-59.6,12.3-59.6,12.3s12.3-29-20.7-29c-48.5,0-69.8,43.8-69.8,43.8C281.3,229.3,399,193.5,399,193.5
		c0,47.3,79.9,40.2,79.9,40.2l6.7-32.2l11.2,17.9H529.4z"/>
</g>
<g id="Слой_7">
	<g class="st4">
		<g>
			<g>
				<path d="M512.4,28.2c0,0-237.5,133.4-335.4,59.7c0,0-32.5,457,155.9,649.8c44.6,45.6,174,130,177.7,130c0.6-0.1,1.2-0.2,1.8-0.2
					c0.6,0.1,1.2,0.2,1.8,0.2C513.6,587.8,513,308,512.4,28.2z"/>
			</g>
		</g>
	</g>
</g>
<g id="Слой_5">
	<path class="st0" d="M856.5,470.4c-3.7-1.4-7.8-2.7-12.2-4c-3.5-1-7.1-2-11-2.9c-80.4-19.6-242.9-26.1-320.5-26.1
		c-78.1,0-242.3,7.7-322.1,27.4c-3.9,0.9-7.6,1.9-11,2.9c-4.5,1.3-8.5,2.7-12.2,4.1c-14,5.3-22.2,11.3-22.2,18.1
		c0,30.5,0,141.9,0,167.7c0-9.7,19.5-18.2,49.8-25.5c4-1,8.2-1.9,12.6-2.8c3.7-0.8,7.5-1.5,11.4-2.3
		c92.1-17.6,244.3-26.6,299.3-26.6c54.5,0,198.9,1.4,288,18.7c3.9,0.7,7.6,1.5,11.3,2.4c4.4,1,8.5,2,12.5,3
		c30.4,8.1,50.1,18.8,50.1,33.1c0-32.9,0-138,0-167.7C880.3,482.5,871.5,476,856.5,470.4z"/>
</g>
<g id="Слой_8">
	<g>
		<g>
			<path class="st3" d="M245.2,574.9c-3.5-27.4-6.9-54.9-10.4-82.3c-0.5-4.1,0.7-5.7,5.1-6.2c12.6-1.6,25.2-3,37.9-4.4
				c19.7-2.4,36.6,9.2,38.4,29.5c1.8,19.7-11.9,34.2-31.2,36c-6.6,0.7-9.8,1.1-16.4,1.8c1,9,1.5,13.5,2.6,22.5
				c0.5,4.1-0.7,5.7-4.9,6.2c-5.9,0.7-8.9,1-14.9,1.8C247.3,580.3,245.8,579,245.2,574.9z M288.5,514c-0.6-5.8-4.7-9.4-11.2-8.7
				c-5.4,0.6-8.1,0.9-13.5,1.5c0.9,7.8,1.3,11.7,2.2,19.5c5.3-0.6,8-0.9,13.3-1.5C285.7,524.1,289.1,519.9,288.5,514z"/>
			<path class="st3" d="M331.1,565.8c-2.4-27.6-4.7-55.1-7.1-82.7c-0.4-4.1,0.9-5.7,5.3-6c13.1-1.1,26.2-2.1,39.2-2.9
				c19.2-1.5,34.9,10.3,35.9,29.9c0.5,10.8-3.6,22.1-13.1,28c1.4,1.6,2.7,3.4,3.9,5.5c5.3,8.8,7.9,13.2,13.2,22
				c2,3.5,1.2,6.4-3.1,6.7c-5.7,0.3-8.6,0.4-14.3,0.8c-7,0.4-10-1.1-12.5-5.6c-3.8-7-5.8-10.5-9.7-17.6c-2.6-4.3-5-6.4-10.5-6
				c-1.2,0.1-1.8,0.1-3.1,0.2c0.8,10.3,1.1,15.4,1.9,25.6c0.3,4.1-0.9,5.6-5.1,6c-6,0.5-8.9,0.7-14.9,1.2
				C332.9,571.3,331.5,569.9,331.1,565.8z M376.7,505.6c-0.3-5.4-3.7-8.5-9.5-8.1c-5.9,0.4-8.8,0.6-14.7,1c0.5,7,0.8,10.5,1.3,17.6
				c5.8-0.4,8.8-0.6,14.6-1C374,514.7,377,511,376.7,505.6z"/>
			<path class="st3" d="M415.5,530.8c-0.4-9.6-0.7-14.5-1.1-24.1c-1.4-24.3,18.3-37.9,40.7-38.5c22.4-0.6,42.8,11.9,42.7,36.3
				c0.1,9.6,0.1,14.5,0.2,24.1c0.5,23.5-18.2,37.1-40.3,37.7C435.6,566.9,416.3,554.4,415.5,530.8z M471.4,530.1
				c-0.2-10.5-0.3-15.7-0.5-26.2c-0.2-8.3-5.7-12.6-15.1-12.4c-9.6,0.3-14.9,4.8-14.6,13.2c0.3,10.5,0.5,15.7,0.9,26.2
				c0.3,8.3,5.8,12.5,15.1,12.3C466.3,542.9,471.6,538.4,471.4,530.1z"/>
			<path class="st3" d="M510,558c-0.1-27.7-0.1-55.3-0.2-83c0-4.1,1.4-5.6,5.8-5.6c6.2,0,9.4,0,15.6,0.1c4.4,0,5.8,1.5,5.7,5.6
				c-0.2,21.8-0.4,43.6-0.7,65.3c10.7,0.1,21.5,0.3,32.2,0.6c4.1,0.1,5.6,1.5,5.5,5.7c-0.1,4.8-0.2,7.2-0.3,12.1
				c-0.1,4.1-1.6,5.5-5.7,5.4c-17.4-0.4-34.9-0.6-52.3-0.7C511.3,563.6,510,562.1,510,558z"/>
			<path class="st3" d="M582.3,559.4c0.9-27.8,1.8-55.6,2.7-83.4c0.1-4,1.5-5.3,5.7-5.1c6.5,0.2,9.7,0.3,16.1,0.6
				c4.1,0.2,5.5,1.6,5.3,5.5c-1.2,27.8-2.4,55.6-3.7,83.4c-0.2,4-1.6,5.2-5.5,5.1c-6.2-0.3-9.3-0.4-15.5-0.6
				C583.5,564.7,582.2,563.4,582.3,559.4z"/>
			<path class="st3" d="M622.4,560.8c1.4-27.6,2.8-55.2,4.2-82.9c0.2-4.1,1.7-5.5,6.1-5.3c6.5,0.3,9.8,0.5,16.3,0.9
				c3,0.2,4.5,1.1,5.6,3c6.8,11.8,13.5,23.6,20.1,35.5c5.3,9.4,6.1,14.7,9.5,24.9c0.4,0,0.6,0.1,1.1,0.1
				c-2.8-11.1-4.5-22.3-3.5-33.8c0.7-8.7,1-13.1,1.7-21.8c0.3-4.1,1.8-5.4,6.2-5.1c5.6,0.4,8.4,0.7,14,1.2c4.3,0.4,5.7,2,5.3,6
				c-2.4,27.5-4.8,55.1-7.3,82.6c-0.4,4.1-1.9,5.4-6,5.1c-6-0.5-8.9-0.8-14.9-1.2c-2.8-0.2-4.2-1.1-5.2-3.1c-6-11-12.1-22-18.3-32.9
				c-4.9-8.2-8.3-18.6-10.2-27.9c-0.4,0-0.7,0-1.1-0.1c2.1,11.4,3.2,22.8,2.4,34.4c-0.5,8.6-0.8,12.9-1.3,21.6
				c-0.3,4.1-1.8,5.5-6,5.2c-5.3-0.3-8-0.5-13.3-0.8C623.5,566.4,622.2,564.9,622.4,560.8z"/>
			<path class="st3" d="M715.5,567.5c2.6-27.5,5.2-55.1,7.8-82.6c0.4-4.1,1.9-5.4,6.3-5c19.2,1.9,38.4,4,57.5,6.3
				c4.4,0.5,5.7,2.2,5.2,6.3c-0.6,4.7-0.9,7.1-1.5,11.8c-0.5,4.2-2.2,5.3-6.5,4.8c-11.9-1.5-23.9-2.8-35.9-4.1
				c-0.5,4.7-0.8,7.1-1.3,11.9c9.5,1,19,2.1,28.5,3.2c4.3,0.5,5.6,2.2,5.1,6.4c-0.6,4.7-0.9,7-1.4,11.7c-0.5,4.2-2.2,5.5-6.4,5
				c-9.4-1.1-18.8-2.2-28.2-3.2c-0.5,5.1-0.8,7.6-1.3,12.7c12.1,1.3,24.2,2.7,36.3,4.2c4.1,0.5,5.4,2,4.9,6.2
				c-0.6,4.8-0.9,7.2-1.5,12c-0.5,4.1-2.1,5.3-6.2,4.8c-18.8-2.3-37.5-4.3-56.3-6.2C716.3,573.2,715.1,571.6,715.5,567.5z"/>
		</g>
	</g>
</g>
<g id="Слой_9" class="st5">
	<g class="st6">
		<g>
			<path class="st3" d="M256.9,510.7c2.1,21.1,4.1,42.1,6.2,63.2c-3.9,0.6-5.9,0.9-9.8,1.5c-1.8-18-3.6-36-5.5-54
				c-10.2,1.6-15.3,2.4-25.5,4.2c2,18,4,35.9,6,53.9c-3.9,0.7-5.8,1-9.6,1.7c-2.4-21-4.8-42-7.2-63
				C226.7,515.5,241.8,513.1,256.9,510.7z"/>
			<path class="st3" d="M295.7,481.3c4.7-1.5,11-3.1,19.1-4c9.9-1.1,17.3,0.8,22.2,5c4.4,3.8,7.5,9.9,8,17.8
				c0.5,8-1.2,14.5-4.7,19.5c-4.8,6.9-13,11.1-22.6,12.2c-2.9,0.3-5.6,0.5-7.9,0.2c0.9,11.8,1.8,23.6,2.8,35.3
				c-3.9,0.5-5.8,0.7-9.7,1.2C300.5,539.4,298.1,510.3,295.7,481.3z M309,522.6c2.2,0.4,5,0.3,8.2,0c10.9-1.1,18.5-10.2,17.8-21
				c-0.6-10.2-9.5-16.7-19.4-15.3c-4.2,0.6-7.6,1.3-9.3,2C307.2,499.7,308.1,511.2,309,522.6z"/>
			<path class="st3" d="M448.7,510.9c0.8,21.5-9.9,46.5-33.7,48.4c-23.1,1.8-35.2-22.3-36.1-42.5c-1-21.9,9.1-47.2,33.6-49
				C436.4,466.1,447.9,490.6,448.7,510.9z M389.5,515.8c0.7,13.9,8.9,35.6,25.8,34.2c17.6-1.4,23.5-22.9,23-38.1
				c-0.4-13.6-8.2-36.2-25.8-34.7C394.6,478.8,388.7,501.2,389.5,515.8z"/>
			<path class="st3" d="M536.1,466.2c-0.2,29.5-0.4,59.1-0.5,88.6c-3.9,0-5.9,0-9.8-0.1c0.1-26.3,0.1-52.7,0.2-79
				c-10.3,0-15.4,0-25.6,0.1c0.1,10.7,0.1,16.1,0.2,26.8c-0.1,16,1.3,36.8-10.9,49.2c-2.8,2.2-7.1,4.3-11.4,4.4
				c-0.5-3.7-0.8-5.5-1.4-9.2c3-0.7,6.1-2.9,7.9-4.9c7.1-10.9,6.5-26,6.2-38.5c-0.1-12.4-0.3-24.9-0.4-37.3
				C505.7,466.2,520.9,466.1,536.1,466.2z"/>
			<path class="st3" d="M588.9,528.3c-2.9,9.2-5.7,18.4-8.5,27.6c-4-0.1-6-0.2-10-0.3c9.1-29.3,18.5-58.5,28.1-87.6
				c4.8,0.2,7.3,0.3,12.1,0.6c7.8,30,15.4,60,22.7,90c-4.1-0.3-6.2-0.4-10.4-0.7c-2.3-9.4-4.7-18.9-7-28.3
				C605.1,528.9,599.7,528.7,588.9,528.3z M614.2,520.5c-2.6-10.4-4-15.5-6.6-25.9c-1.5-5.9-2.5-11.2-3.5-16.4c-0.1,0-0.1,0-0.2,0
				c-1.3,5.2-2.7,10.5-4.4,15.8c-3.3,10.1-5,15.2-8.2,25.3C600.4,519.8,605,520,614.2,520.5z"/>
			<path class="st3" d="M682.3,473.6c-0.7,12.4-1.5,24.8-2.2,37.2c-0.7,12.5-1.7,24.9-3.1,37.3c0.1,0.1,0.1,0.1,0.2,0.2
				c4.7-9.6,10.3-18.8,15.9-27.9c9.2-14.3,18.6-28.6,28-42.8c4,0.5,6,0.7,10,1.2c-2.3,29.4-4.6,58.8-6.9,88.2
				c-3.6-0.4-5.5-0.6-9.1-1.1c0.9-12.5,1.9-25,2.8-37.6c0.9-12,1.8-23.9,3.6-35.8c-0.1-0.1-0.2-0.1-0.3-0.2
				c-4.7,9.7-10.5,19.1-16.3,28.2c-9,13.8-17.8,27.6-26.5,41.5c-4.1-0.4-6.2-0.6-10.4-0.9c1.7-29.5,3.3-58.9,5-88.4
				C676.7,473.1,678.6,473.2,682.3,473.6z M696.2,456.3c0.2,4.1,1.1,8.3,6.5,8.8c5.3,0.5,6.8-3.1,7.6-7.4c3.1,0.3,4.7,0.5,7.8,0.8
				c-1.2,8.6-6.2,13.4-16,12.4c-9.4-1-13.6-6.8-13.7-15.5C691.5,455.9,693.1,456,696.2,456.3z"/>
			<path class="st3" d="M782.9,485.7c-1.2,12.3-2.4,24.5-3.6,36.8c12.3,1.8,24.6,3.8,36.9,5.9c1.4-12.2,2.7-24.5,4.1-36.7
				c4,0.7,6,1,10.1,1.7c-3.4,29.2-6.7,58.5-10.1,87.7c-3.9-0.7-5.8-1-9.7-1.7c1.5-13.7,3-27.4,4.6-41.2c-12.2-2.1-24.5-4-36.7-5.9
				c-1.3,13.7-2.7,27.5-4,41.2c-3.9-0.6-5.8-0.9-9.7-1.4c2.7-29.3,5.5-58.7,8.2-88C776.9,484.8,778.9,485.1,782.9,485.7z"/>
		</g>
	</g>
</g>
</svg>
