<svg width="1108" height="757" viewBox="0 0 1108 757" fill="none" xmlns="http://www.w3.org/2000/svg">
<path d="M240.5 639.3V652.5H210.6V639.3H218.1V606.8H211.2V593.7H239.9V606.8H233V639.3H240.5Z" fill="#222222"/>
<path d="M265.9 623.6V652.5C260.7 652.5 255.5 652.5 250.3 652.5V593.4H255.8L285.6 622.5V593.7C290.7 593.7 295.9 593.7 301 593.7V652.6H295.6L265.9 623.6Z" fill="#222222"/>
<path d="M310.1 607.1C310.1 602.6 310.1 598.1 310.1 593.6H353.8C353.8 598.1 353.8 602.5 353.8 607.1H339.4V652.5C334.4 652.5 329.5 652.5 324.5 652.5V607.1H310.1Z" fill="#222222"/>
<path d="M399.9 607.1C391.2 607.1 386.8 607.1 378.1 607.1V615.4H398.1C398.1 619.9 398.1 624.3 398.1 628.8H378.1C378.1 632.2 378.1 635.6 378.1 639.1C386.8 639.1 391.8 639.1 400.6 639.1C400.6 643.5 400.6 648 400.6 652.5C386.8 652.5 376.7 652.5 363.1 652.5C363.1 632.8 363.1 613.1 363.1 593.6C376.7 593.6 386.1 593.6 399.8 593.6C399.9 598 399.9 602.6 399.9 607.1Z" fill="#222222"/>
<path d="M463.3 650.3V652.5H446.5L436.4 635.2H428.6V652.5C423.6 652.5 418.4 652.5 413.5 652.5C413.5 632.9 413.5 613.3 413.5 593.6C422 593.6 430.7 593.6 439.3 593.6C462.4 593.7 466.6 621.5 451.7 631.6L463.3 650.3ZM439.3 607.1C435.8 607 432.1 607.1 428.5 607.1C428.5 611.9 428.5 616.9 428.5 621.6H439.3C447.5 621.7 447.9 607.2 439.3 607.1Z" fill="#222222"/>
<path d="M487.9 623.6V652.5C482.7 652.5 477.5 652.5 472.3 652.5V593.4H477.8L507.6 622.5V593.7C512.7 593.7 517.9 593.7 523 593.7V652.6H517.6L487.9 623.6Z" fill="#222222"/>
<path d="M572 645.1H548.8L545.4 652.5H530.7V650.3L557.2 592.9H563.7L590.3 650.3V652.5H575.6L572 645.1ZM560.3 616.7L553.7 632.2H567L560.3 616.7Z" fill="#222222"/>
<path d="M588.8 607.1C588.8 602.6 588.8 598.1 588.8 593.6H632.5C632.5 598.1 632.5 602.5 632.5 607.1H618.1V652.5C613.1 652.5 608.2 652.5 603.2 652.5V607.1H588.8Z" fill="#222222"/>
<path d="M668.1 639.3C668.1 644.3 668.1 647.4 668.1 652.5C658.1 652.5 648.3 652.5 638.2 652.5C638.2 647.4 638.2 644.3 638.2 639.3H645.7V606.8H638.8C638.8 601.8 638.8 598.6 638.8 593.7C648.4 593.7 657.9 593.7 667.5 593.7C667.5 598.7 667.5 601.8 667.5 606.8H660.6V639.3H668.1Z" fill="#222222"/>
<path d="M674.3 623.2C674.3 582.5 734.7 582.5 734.7 623.2C734.7 664 674.3 664 674.3 623.2ZM719.3 623.2C719.3 602 689.8 602 689.8 623.2C689.8 644.5 719.3 644.5 719.3 623.2Z" fill="#222222"/>
<path d="M761.6 623.6V652.5C756.4 652.5 751.2 652.5 746 652.5V593.4H751.5L781.3 622.5V593.7C786.4 593.7 791.6 593.7 796.7 593.7V652.6H791.3L761.6 623.6Z" fill="#222222"/>
<path d="M845.6 645.1H822.4L819 652.5H804.3V650.3L830.8 592.9H837.3L863.9 650.3V652.5H849L845.6 645.1ZM833.9 616.7L827.3 632.2H840.6L833.9 616.7Z" fill="#222222"/>
<path d="M886.5 639H907.9C907.9 644 907.9 647.5 907.9 652.5C895.8 652.5 883.3 652.5 871.4 652.5V593.7C876.4 593.7 881.4 593.7 886.5 593.7C886.5 624.1 886.5 613.9 886.5 639Z" fill="#222222"/>
<path d="M239.9 693.5C233.6 693.5 230.4 693.5 224.2 693.5V699.5H238.6C238.6 702.7 238.6 705.9 238.6 709.1H224.2C224.2 711.6 224.2 714 224.2 716.6C230.4 716.6 234.1 716.6 240.4 716.6C240.4 719.8 240.4 723 240.4 726.2C230.5 726.2 223.2 726.2 213.4 726.2C213.4 712 213.4 697.8 213.4 683.8C223.2 683.8 229.9 683.8 239.9 683.8C239.9 686.9 239.9 690.2 239.9 693.5Z" fill="#222222"/>
<path d="M287.2 683.7H291.1V726.2C287.4 726.2 283.7 726.2 280 726.2V707.3L271 716.8H269.8L260.8 707.3V726.2C257.1 726.2 253.4 726.2 249.7 726.2V683.7H253.7L270.3 702.1L287.2 683.7Z" fill="#222222"/>
<path d="M301.9 726.2C301.9 712.1 301.9 698 301.9 683.8C308 683.8 314.3 683.8 320.6 683.8C340.9 683.9 340.9 715.4 320.6 715.4H312.8V726.2C309.1 726.2 305.5 726.2 301.9 726.2ZM320.5 693.5C318 693.4 315.2 693.5 312.7 693.5C312.7 697 312.7 702.2 312.7 705.6H320.5C326.4 705.6 326.8 693.5 320.5 693.5Z" fill="#222222"/>
<path d="M354.8 716.5H370.2C370.2 720.1 370.2 722.6 370.2 726.3C361.5 726.3 352.5 726.3 343.9 726.3V683.9C347.5 683.9 351.1 683.9 354.8 683.9C354.8 705.7 354.8 698.4 354.8 716.5Z" fill="#222222"/>
<path d="M375 705.1C375 675.8 418.5 675.8 418.5 705.1C418.5 734.5 375 734.5 375 705.1ZM407.5 705.1C407.5 689.8 386.2 689.8 386.2 705.1C386.2 720.5 407.5 720.5 407.5 705.1Z" fill="#222222"/>
<path d="M445.4 726.2H434.7V708.4L420.5 685.4V683.8H432.2L439.9 697.9H440.3L448 683.8H459.8V685.4L445.5 708.4V726.2H445.4Z" fill="#222222"/>
<path d="M503 683.7H506.9V726.2C503.2 726.2 499.5 726.2 495.8 726.2V707.3L486.8 716.8H485.6L476.6 707.3V726.2C472.9 726.2 469.2 726.2 465.5 726.2V683.7H469.5L486.1 702.1L503 683.7Z" fill="#222222"/>
<path d="M544.2 693.5C537.9 693.5 534.7 693.5 528.5 693.5V699.5H542.9C542.9 702.7 542.9 705.9 542.9 709.1H528.5C528.5 711.6 528.5 714 528.5 716.6C534.7 716.6 538.4 716.6 544.7 716.6C544.7 719.8 544.7 723 544.7 726.2C534.8 726.2 527.5 726.2 517.7 726.2C517.7 712 517.7 697.8 517.7 683.8C527.5 683.8 534.2 683.8 544.2 683.8C544.2 686.9 544.2 690.2 544.2 693.5Z" fill="#222222"/>
<path d="M565.3 705.4V726.2C561.5 726.2 557.8 726.2 554.1 726.2V683.6H558L579.5 704.6V683.8C583.2 683.8 586.9 683.8 590.6 683.8V726.3H586.7L565.3 705.4Z" fill="#222222"/>
<path d="M597.1 693.5C597.1 690.2 597.1 687 597.1 683.8H628.6C628.6 687 628.6 690.2 628.6 693.5H618.2V726.2C614.6 726.2 611 726.2 607.5 726.2V693.5H597.1V693.5Z" fill="#222222"/>
<path d="M676.5 720.9H659.8L657.3 726.2H646.7V724.6L665.8 683.2H670.5L689.7 724.6V726.2H679L676.5 720.9ZM668.1 700.4L663.4 711.6H673L668.1 700.4Z" fill="#222222"/>
<path d="M714.4 683.2C722.9 683.3 731.9 687.7 733.9 698.2H723.2C721.4 694.6 718.7 693.1 714.4 693.1C707.6 693.1 703.9 698.4 703.9 704.9C703.9 711.9 708 716.5 714.4 716.5C718.8 716.5 721.6 715.3 723.5 711.3H714.5V702H734.6C734.8 706.2 734.8 710.3 733.4 714.4C730.4 723.2 722.3 726.6 714.5 726.6C703.7 726.6 692.8 719.4 692.7 704.9C692.7 690.5 703.6 683.2 714.4 683.2Z" fill="#222222"/>
<path d="M769.6 693.5C763.3 693.5 760.1 693.5 753.9 693.5V699.5H768.3C768.3 702.7 768.3 705.9 768.3 709.1H753.9C753.9 711.6 753.9 714 753.9 716.6C760.1 716.6 763.8 716.6 770.1 716.6C770.1 719.8 770.1 723 770.1 726.2C760.2 726.2 752.9 726.2 743.1 726.2C743.1 712 743.1 697.8 743.1 683.8C752.9 683.8 759.6 683.8 769.6 683.8C769.6 686.9 769.6 690.2 769.6 693.5Z" fill="#222222"/>
<path d="M790.7 705.4V726.2C786.9 726.2 783.2 726.2 779.5 726.2V683.6H783.4L804.9 704.6V683.8C808.6 683.8 812.3 683.8 816 683.8V726.3H812L790.7 705.4Z" fill="#222222"/>
<path d="M845.9 683.3C854.7 683.3 864.2 688.1 865.8 699.4C862.1 699.4 858.8 699.4 855.1 699.4C853.6 695.1 850.4 693.2 845.8 693.2C839.4 693.2 835.3 698 835.3 705C835.3 711.2 839.4 716.7 845.8 716.8C850.4 716.8 854.1 714.5 855.3 710C858.9 710 862.3 710 866 710C864.4 722 854.9 726.7 845.9 726.7C835.1 726.8 824.2 719.5 824.1 705.1C824.2 690.6 835.1 683.3 845.9 683.3Z" fill="#222222"/>
<path d="M894.5 726.2H883.8V708.4L869.6 685.4V683.8H881.3L889 697.9H889.4L897.1 683.8H908.9V685.4L894.6 708.4V726.2H894.5Z" fill="#222222"/>
<path d="M198 559H909" stroke="#222222" stroke-width="6" stroke-miterlimit="10"/>
<path d="M471.212 531.608V313.736L301.582 42.9519V10.5823H458.139L546.533 170.252L634.305 10.5823H791.795V43.2631L620.61 313.736V531.608H471.212Z" fill="#58838C"/>
<path d="M781.213 21.1647V40.462L610.339 310.935V521.026H481.794V310.935L312.165 40.1508V21.1647H451.914L544.043 187.37H549.023L640.529 21.1647H781.213ZM802.377 0H781.213H640.529H627.768L622.166 10.8936L546.222 148.776L470.278 10.8936L464.364 0H452.226H312.165H291V21.1647V40.1508V46.0644L294.424 51.0444L461.252 316.226V520.404V541.568H482.105H610.65H631.815V520.404V316.537L799.576 51.3556L803 46.3757V40.462V21.1647V0H802.377Z" fill="white"/>
<path d="M753.512 515.112V531.608H626.835L550.268 401.507H491.754V531.608C453.471 531.608 415.187 531.608 378.149 531.608C378.149 384.7 378.149 237.169 378.149 89.3275C442.266 89.3275 507.939 89.3275 572.678 89.3275C746.976 90.2613 779.034 299.107 666.674 374.74L753.512 515.112ZM572.678 190.483C546.222 189.549 518.21 190.483 491.754 190.483C491.754 226.276 491.754 264.559 491.754 299.419H572.678C634.305 299.73 637.728 191.105 572.678 190.483Z" fill="#689BA6" stroke="white" stroke-width="22" stroke-miterlimit="10"/>
</svg>
