<svg width="652" height="304" viewBox="0 0 652 304" fill="none" xmlns="http://www.w3.org/2000/svg">
<path fill-rule="evenodd" clip-rule="evenodd" d="M152 8C72.471 8 8 72.471 8 152C8 231.529 72.471 296 152 296C231.529 296 296 231.529 296 152C296 72.471 231.529 8 152 8ZM0 152C0 68.0527 68.0527 0 152 0C235.947 0 304 68.0527 304 152C304 235.947 235.947 304 152 304C68.0527 304 0 235.947 0 152Z" fill="#222222"/>
<path fill-rule="evenodd" clip-rule="evenodd" d="M106.598 102.52L114.596 107.259H189.404L197.402 102.52L201.48 109.402L191.596 115.259H175.382L175.651 123.555H194.5V131.555H175.911L178.128 199.868L170.132 200.128L167.906 131.555H136.093L133.868 200.128L125.872 199.868L128.089 131.555H109.5V123.555H128.349L128.618 115.259H112.404L102.52 109.402L106.598 102.52ZM136.622 115.259L136.353 123.555H148V115.259H136.622ZM156 115.259V123.555H167.647L167.378 115.259H156Z" fill="#222222"/>
<path d="M115.031 25.9093L119.987 41.6685L124.919 40.088L126.095 43.8275L112.23 48.27L111.054 44.5305L115.987 42.95L111.031 27.1908L115.031 25.9093Z" fill="#222222"/>
<path d="M94.6841 34.1992L104.63 52.0563L100.978 54.131L97.1633 47.2817L93.0733 49.6054L96.8881 56.4547L93.2364 58.5295L83.2906 40.6724L86.9423 38.5977L91.1659 46.1808L95.2559 43.8571L91.0323 36.274L94.6841 34.1992Z" fill="#222222"/>
<path d="M72.2512 48.9574L74.6305 51.7122L71.585 54.3971L80.1869 64.3567L83.2323 61.6718L85.6116 64.4266L76.3702 72.5739L73.9909 69.8191L77.0364 67.1342L68.4345 57.1746L65.389 59.8595L63.0098 57.1047L72.2512 48.9574Z" fill="#222222"/>
<path d="M53.8841 67.3204L70.1143 79.7452L67.1755 83.6661L51.4399 78.2843C52.0219 78.6593 52.691 79.0892 53.4472 79.5741C54.2183 80.0704 54.9763 80.5684 55.7214 81.0683C56.4701 81.5944 57.0964 82.0503 57.6003 82.4361L64.2703 87.5422L62.0536 90.4997L45.8234 78.0749L48.7622 74.154L64.4642 79.5807C63.9563 79.2624 63.3595 78.876 62.6737 78.4216C61.988 77.9671 61.3004 77.4995 60.611 77.0188C59.9104 76.553 59.3008 76.1215 58.782 75.7244L51.6674 70.2779L53.8841 67.3204Z" fill="#222222"/>
<path d="M39.2058 89.6683L57.6333 98.5125L55.8482 102.314L48.7044 98.8856L47.8594 100.685L53.5752 107.155L51.6354 111.286L44.6106 103.256L33.1364 102.594L35.1 98.4124L44.3759 99.0132L45.2208 97.2137L37.4207 93.4701L39.2058 89.6683Z" fill="#222222"/>
<path d="M22.8591 150.093L43.2878 149.414L43.5037 156.046C43.5499 157.464 43.3195 158.705 42.8124 159.767C42.306 160.849 41.5678 161.695 40.5979 162.306C39.6472 162.936 38.5095 163.272 37.1849 163.316L29.8809 163.559C28.575 163.602 27.4179 163.342 26.4097 162.778C25.4021 162.232 24.6011 161.437 24.0068 160.392C23.4318 159.365 23.1212 158.143 23.075 156.725L22.8591 150.093ZM26.9136 154.16L26.9928 156.595C27.0208 157.453 27.2858 158.135 27.7879 158.642C28.2899 159.148 28.9421 159.388 29.7443 159.361L37.0483 159.118C37.8318 159.092 38.4576 158.81 38.9257 158.272C39.3938 157.733 39.6138 157.035 39.5859 156.177L39.5066 153.742L26.9136 154.16Z" fill="#222222"/>
<path d="M25.547 177.136L29.0824 176.27L30.03 180.218L42.8119 177.086L41.8643 173.138L45.3997 172.272L48.2752 184.251L44.7398 185.118L43.7922 181.17L31.0103 184.302L31.958 188.25L28.4226 189.116L25.547 177.136Z" fill="#222222"/>
<path d="M35.9026 208.284C35.2917 206.983 34.979 205.746 34.9644 204.573C34.9498 203.4 35.2151 202.362 35.7602 201.459C36.3054 200.556 37.1166 199.847 38.1939 199.33L39.9791 203.132C39.3563 203.431 38.9708 203.905 38.8226 204.556C38.6992 205.215 38.8319 205.959 39.2207 206.787C39.5936 207.581 40.0599 208.113 40.6197 208.383C41.1874 208.67 41.7827 208.664 42.4055 208.365C42.9441 208.107 43.3277 207.716 43.5561 207.193C43.7846 206.669 43.8234 206.071 43.6724 205.398L43.221 203.317C42.8534 201.568 42.9599 200.016 43.5405 198.661C44.1458 197.316 45.1722 196.296 46.6199 195.602C47.6971 195.085 48.7464 194.883 49.7676 194.993C50.8136 195.113 51.7696 195.524 52.6357 196.227C53.5018 196.929 54.2284 197.906 54.8155 199.156C55.7041 201.048 55.935 202.77 55.5081 204.32C55.1059 205.879 54.1137 207.038 52.5315 207.796L50.7463 203.994C51.3354 203.712 51.6992 203.279 51.8375 202.695C51.9837 202.128 51.8743 201.456 51.5094 200.679C51.1682 199.952 50.7381 199.475 50.2189 199.248C49.7166 199.013 49.1625 199.04 48.5565 199.331C48.0179 199.589 47.6264 199.963 47.382 200.453C47.1625 200.951 47.1202 201.52 47.2553 202.159L47.7291 204.354C48.1284 206.17 48.0383 207.735 47.4587 209.048C46.8959 210.353 45.8655 211.364 44.3674 212.082C43.2901 212.599 42.2121 212.784 41.1334 212.639C40.0626 212.51 39.0739 212.074 38.1672 211.328C37.2684 210.6 36.5135 209.585 35.9026 208.284Z" fill="#222222"/>
<path d="M50.0531 231.058C49.2247 229.952 48.7029 228.836 48.4875 227.708C48.287 226.569 48.3765 225.49 48.7559 224.471C49.1614 223.456 49.8534 222.574 50.8319 221.825L57.7261 216.551C58.7194 215.791 59.7472 215.358 60.8095 215.25C61.883 215.157 62.9277 215.369 63.9437 215.884C64.9745 216.388 65.904 217.193 66.7324 218.298C67.5495 219.389 68.0527 220.496 68.2421 221.62C68.4574 222.748 68.3698 223.814 67.9791 224.818C67.5996 225.837 66.9132 226.726 65.9199 227.486L63.4013 224.125C64.0536 223.626 64.4104 223.059 64.4715 222.425C64.5439 221.806 64.3282 221.16 63.8245 220.488C63.3208 219.815 62.7585 219.423 62.1376 219.31C61.528 219.213 60.897 219.413 60.2447 219.912L53.3505 225.186C52.713 225.674 52.3507 226.233 52.2635 226.864C52.2023 227.498 52.4236 228.151 52.9273 228.824C53.4311 229.496 53.9877 229.881 54.5974 229.978C55.2331 230.08 55.8697 229.886 56.5072 229.399L59.0258 232.76C58.0473 233.508 57.0138 233.935 55.9255 234.039C54.8632 234.146 53.8167 233.948 52.7859 233.444C51.7812 232.944 50.8702 232.148 50.0531 231.058Z" fill="#222222"/>
<path d="M68.3085 250.225C66.7546 248.854 65.8888 247.344 65.7111 245.694C65.5475 244.056 66.1002 242.503 67.3694 241.034L76.8154 230.101L79.9652 232.879L70.5375 243.791C69.9761 244.44 69.7039 245.084 69.7208 245.721C69.7638 246.356 70.0864 246.94 70.6883 247.47C71.2763 247.989 71.8847 248.227 72.5136 248.184C73.1546 248.128 73.7559 247.774 74.3173 247.125L83.7449 236.213L86.8947 238.992L77.4487 249.924C76.1917 251.379 74.736 252.136 73.0816 252.195C71.4534 252.252 69.8624 251.595 68.3085 250.225Z" fill="#222222"/>
<path d="M90.1387 265.319C88.8893 264.609 87.9202 263.779 87.2315 262.829C86.5427 261.879 86.1603 260.878 86.0843 259.825C86.0082 258.773 86.2608 257.725 86.8422 256.681L90.4932 258.757C90.1571 259.36 90.1162 259.971 90.3707 260.588C90.6505 261.198 91.188 261.729 91.9831 262.181C92.7457 262.615 93.4334 262.78 94.046 262.678C94.6749 262.585 95.1574 262.236 95.4935 261.633C95.7842 261.111 95.8717 260.57 95.7561 260.011C95.6405 259.451 95.327 258.94 94.8155 258.477L93.246 257.037C91.9368 255.82 91.1283 254.491 90.8205 253.049C90.538 251.6 90.7873 250.174 91.5685 248.772C92.1499 247.728 92.8893 246.957 93.7869 246.458C94.7097 245.952 95.7273 245.736 96.8397 245.81C97.9521 245.885 99.1087 246.263 100.309 246.946C102.127 247.98 103.309 249.253 103.855 250.766C104.426 252.272 104.285 253.791 103.431 255.324L99.7797 253.248C100.098 252.677 100.145 252.113 99.9207 251.556C99.7129 251.009 99.2358 250.523 98.4894 250.098C97.7917 249.702 97.1654 249.56 96.6105 249.674C96.0647 249.772 95.6283 250.114 95.3012 250.701C95.0105 251.223 94.9068 251.754 94.9899 252.296C95.0984 252.83 95.3921 253.319 95.8711 253.763L97.5244 255.283C98.8985 256.537 99.7278 257.867 100.012 259.274C100.306 260.665 100.048 262.086 99.2398 263.538C98.6585 264.581 97.8856 265.355 96.9212 265.859C95.9731 266.372 94.914 266.586 93.7438 266.5C92.5898 266.423 91.3881 266.03 90.1387 265.319Z" fill="#222222"/>
<path d="M114.537 275.61C113.169 275.171 112.051 274.557 111.183 273.769C110.316 272.981 109.738 272.08 109.45 271.066C109.162 270.052 109.198 268.976 109.556 267.836L113.555 269.12C113.348 269.778 113.431 270.384 113.806 270.935C114.204 271.475 114.838 271.884 115.709 272.164C116.544 272.432 117.252 272.453 117.832 272.227C118.429 272.007 118.831 271.568 119.039 270.909C119.218 270.339 119.194 269.792 118.967 269.269C118.741 268.745 118.33 268.309 117.735 267.962L115.905 266.874C114.375 265.952 113.313 264.817 112.719 263.47C112.148 262.111 112.104 260.665 112.585 259.134C112.944 257.994 113.512 257.088 114.291 256.417C115.093 255.733 116.046 255.314 117.152 255.159C118.257 255.004 119.467 255.138 120.783 255.56C122.773 256.199 124.189 257.202 125.031 258.57C125.896 259.926 126.066 261.441 125.539 263.115L121.54 261.832C121.736 261.208 121.668 260.647 121.336 260.148C121.021 259.655 120.455 259.278 119.638 259.015C118.873 258.77 118.231 258.76 117.71 258.985C117.195 259.192 116.836 259.616 116.635 260.257C116.456 260.827 116.462 261.368 116.653 261.88C116.867 262.38 117.254 262.799 117.814 263.135L119.742 264.283C121.343 265.228 122.426 266.36 122.99 267.678C123.559 268.978 123.595 270.421 123.096 272.006C122.738 273.145 122.137 274.06 121.294 274.75C120.469 275.446 119.474 275.872 118.31 276.027C117.164 276.189 115.906 276.05 114.537 275.61Z" fill="#222222"/>
<path d="M160.268 280.737L158.198 260.402L164.798 259.716C166.209 259.569 167.462 259.711 168.556 260.141C169.67 260.57 170.564 261.246 171.24 262.171C171.932 263.075 172.346 264.186 172.48 265.504L173.22 272.775C173.353 274.075 173.172 275.248 172.678 276.294C172.203 277.338 171.464 278.193 170.463 278.861C169.478 279.507 168.28 279.904 166.869 280.051L160.268 280.737ZM164.049 276.403L166.472 276.151C167.326 276.062 167.988 275.749 168.459 275.212C168.929 274.675 169.124 274.008 169.043 273.209L168.302 265.939C168.223 265.159 167.899 264.554 167.33 264.126C166.761 263.697 166.049 263.527 165.195 263.616L162.772 263.867L164.049 276.403Z" fill="#222222"/>
<path d="M186.738 276.191L180.607 256.692L192.605 252.841L193.68 256.26L185.601 258.853L186.979 263.233L194.124 260.94L195.199 264.359L188.054 266.652L189.582 271.514L197.66 268.921L198.735 272.34L186.738 276.191Z" fill="#222222"/>
<path d="M214.363 264.712L200.01 249.361L203.783 247.216L212.523 257.094C212.822 257.439 213.197 257.881 213.646 258.42C214.112 258.95 214.496 259.408 214.797 259.795C214.625 259.334 214.42 258.774 214.182 258.116C213.943 257.457 213.751 256.901 213.605 256.447L209.722 243.838L213.397 241.748L218.987 262.082L214.363 264.712Z" fill="#222222"/>
<path d="M233.393 251.879L220.029 236.412L229.479 228.078L231.822 230.79L225.459 236.402L228.461 239.876L234.089 234.912L236.432 237.624L230.805 242.588L234.136 246.444L240.499 240.832L242.842 243.544L233.393 251.879Z" fill="#222222"/>
<path d="M252.352 232.719L236.117 220.3L238.636 216.939L251.757 226.977L256.71 220.367L259.824 222.748L252.352 232.719Z" fill="#222222"/>
<path d="M269.494 205.31C268.915 206.543 268.184 207.507 267.301 208.202C266.401 208.888 265.42 209.287 264.357 209.399C263.285 209.486 262.194 209.263 261.083 208.73L253.256 204.978C252.145 204.445 251.292 203.736 250.697 202.851C250.094 201.941 249.779 200.92 249.753 199.79C249.71 198.652 249.978 197.466 250.557 196.232C251.145 194.982 251.884 194.022 252.776 193.353C253.659 192.658 254.636 192.267 255.708 192.181C256.771 192.069 257.857 192.28 258.968 192.812L266.796 196.564C267.907 197.097 268.764 197.818 269.367 198.729C269.962 199.614 270.281 200.626 270.324 201.764C270.358 202.878 270.081 204.06 269.494 205.31ZM266.212 203.737C266.569 202.976 266.641 202.317 266.428 201.76C266.207 201.178 265.734 200.713 265.01 200.366L257.183 196.614C256.443 196.259 255.791 196.175 255.23 196.361C254.668 196.547 254.205 197.029 253.84 197.806C253.475 198.583 253.399 199.25 253.611 199.808C253.824 200.365 254.3 200.821 255.041 201.176L262.868 204.928C263.592 205.275 264.243 205.36 264.822 205.182C265.391 204.979 265.855 204.497 266.212 203.737Z" fill="#222222"/>
<path d="M276.249 186.32L256.396 181.455L258.023 174.675C258.359 173.278 258.914 172.126 259.688 171.22C260.466 170.296 261.394 169.669 262.472 169.337C263.554 168.987 264.73 168.968 265.999 169.279C267.25 169.585 268.286 170.147 269.108 170.963C269.911 171.775 270.452 172.763 270.729 173.926C271.006 175.089 270.977 176.37 270.642 177.768L269.995 180.463L277.229 182.236L276.249 186.32ZM266.324 179.563L266.971 176.868C267.18 175.997 267.11 175.249 266.76 174.625C266.397 173.979 265.817 173.558 265.019 173.363C264.221 173.167 263.523 173.275 262.926 173.686C262.314 174.074 261.904 174.704 261.695 175.575L261.048 178.271L266.324 179.563Z" fill="#222222"/>
<path d="M276.119 117.884C276.422 119.232 276.442 120.463 276.177 121.578C275.893 122.697 275.37 123.641 274.606 124.412C273.82 125.168 272.826 125.684 271.626 125.962L263.168 127.914C261.95 128.195 260.833 128.166 259.819 127.825C258.8 127.466 257.932 126.843 257.215 125.955C256.48 125.071 255.961 123.955 255.657 122.608C255.357 121.279 255.351 120.063 255.638 118.963C255.903 117.848 256.42 116.914 257.188 116.162C257.952 115.392 258.943 114.866 260.162 114.585L261.086 118.682C260.285 118.867 259.728 119.235 259.412 119.787C259.092 120.32 259.025 120.997 259.21 121.816C259.394 122.636 259.747 123.225 260.268 123.583C260.785 123.924 261.444 124.002 262.244 123.817L270.702 121.865C271.484 121.684 272.044 121.325 272.382 120.787C272.697 120.235 272.763 119.55 272.578 118.73C272.393 117.911 272.042 117.331 271.525 116.99C270.986 116.636 270.325 116.549 269.543 116.73L268.619 112.633C269.82 112.355 270.938 112.394 271.975 112.749C272.989 113.089 273.864 113.701 274.599 114.585C275.312 115.455 275.819 116.555 276.119 117.884Z" fill="#222222"/>
<path d="M269.764 98.9199L251.215 107.506L248.5 101.513C247.899 100.186 247.608 98.9328 247.626 97.7519C247.645 96.5709 247.958 95.5209 248.566 94.6017C249.167 93.6655 250.043 92.9308 251.195 92.3976C252.397 91.8408 253.608 91.6405 254.826 91.7965C256.037 91.9354 257.081 92.4085 257.959 93.2157L263.987 86.1673L265.87 90.3246L260.221 96.5807L261.029 98.366L268.042 95.1196L269.764 98.9199ZM257.726 99.8951L256.733 97.7017C256.347 96.8515 255.839 96.2949 255.208 96.0318C254.569 95.7518 253.868 95.7882 253.106 96.141C252.309 96.5096 251.799 97.0339 251.574 97.7138C251.342 98.3768 251.418 99.1334 251.803 99.9836L252.797 102.177L257.726 99.8951Z" fill="#222222"/>
<path d="M256.95 75.1073L240.549 87.306L233.131 77.1208L236.007 74.9818L241.001 81.8399L244.686 79.0994L240.268 73.0335L243.144 70.8946L247.562 76.9604L251.651 73.9191L246.656 67.0611L249.532 64.9222L256.95 75.1073Z" fill="#222222"/>
<path d="M240.994 55.8184L223.708 67.736L219.767 64.163L229.584 45.4756L232.758 48.3528L230.416 52.4655L234.026 55.7376L237.82 52.9412L240.994 55.8184ZM231.276 57.7798L228.725 55.4668L226.179 59.8098C225.804 60.428 225.443 61.0454 225.095 61.6621C224.721 62.2803 224.432 62.761 224.227 63.1043C224.542 62.8613 224.978 62.5255 225.533 62.0968C226.075 61.6556 226.636 61.2199 227.218 60.7898L231.276 57.7798Z" fill="#222222"/>
<path d="M215.526 36.3571L207.291 50.6781L211.759 53.2994L209.805 56.6976L197.247 49.3298L199.201 45.9315L203.669 48.5528L211.904 34.2317L215.526 36.3571Z" fill="#222222"/>
<path d="M195.353 26.6607L188.956 46.074L177.012 42.0622L178.134 38.6582L186.176 41.3595L187.613 36.9982L180.5 34.6089L181.621 31.2049L188.735 33.5942L190.329 28.7541L182.287 26.0529L183.409 22.6489L195.353 26.6607Z" fill="#222222"/>
<path d="M354.536 136.886V90.6336H364.045V108.564H368.546L376.153 90.6336H386.487L376.977 112.746L386.867 136.886H376.407L368.546 117.308H364.045V136.886H354.536Z" fill="#222222"/>
<path d="M407.446 137.52C404.36 137.52 401.677 136.95 399.394 135.809C397.112 134.627 395.337 133 394.069 130.931C392.844 128.819 392.231 126.369 392.231 123.581V103.939C392.231 101.151 392.844 98.7226 394.069 96.6528C395.337 94.5408 397.112 92.9146 399.394 91.7741C401.677 90.5914 404.36 90 407.446 90C410.573 90 413.257 90.5914 415.497 91.7741C417.779 92.9146 419.533 94.5408 420.758 96.6528C422.026 98.7226 422.66 101.151 422.66 103.939V123.581C422.66 126.369 422.026 128.819 420.758 130.931C419.533 133 417.779 134.627 415.497 135.809C413.257 136.95 410.573 137.52 407.446 137.52ZM407.446 129.283C409.347 129.283 410.763 128.797 411.693 127.826C412.665 126.812 413.151 125.397 413.151 123.581V103.939C413.151 102.081 412.686 100.666 411.756 99.6941C410.827 98.7226 409.39 98.2368 407.446 98.2368C405.501 98.2368 404.064 98.7226 403.135 99.6941C402.205 100.666 401.74 102.081 401.74 103.939V123.581C401.74 125.397 402.205 126.812 403.135 127.826C404.107 128.797 405.544 129.283 407.446 129.283Z" fill="#222222"/>
<path d="M431.384 136.886L427.073 90.6336H434.871L437.216 121.553C437.258 122.145 437.301 122.989 437.343 124.088C437.385 125.144 437.428 126.263 437.47 127.446C437.554 128.586 437.597 129.621 437.597 130.55C437.681 129.621 437.766 128.586 437.85 127.446C437.977 126.263 438.104 125.144 438.231 124.088C438.357 122.989 438.442 122.145 438.484 121.553L441.907 90.6336H449.134L452.431 121.553C452.515 122.145 452.6 122.989 452.684 124.088C452.811 125.144 452.938 126.263 453.065 127.446C453.234 128.586 453.361 129.621 453.445 130.55C453.487 129.621 453.53 128.586 453.572 127.446C453.614 126.263 453.657 125.144 453.699 124.088C453.741 122.989 453.783 122.145 453.826 121.553L455.981 90.6336H463.842L459.214 136.886H449.325L446.218 106.157C446.134 105.439 446.049 104.509 445.965 103.369C445.88 102.186 445.796 100.961 445.711 99.6941C445.627 98.4269 445.542 97.3075 445.457 96.336C445.415 97.3075 445.352 98.4269 445.267 99.6941C445.183 100.961 445.098 102.186 445.014 103.369C444.929 104.509 444.845 105.439 444.76 106.157L441.337 136.886H431.384Z" fill="#222222"/>
<path d="M469.523 136.886V90.6336H498.05V98.7437H478.842V109.135H495.831V117.245H478.842V128.776H498.05V136.886H469.523Z" fill="#222222"/>
<path d="M508.486 136.886V90.6336H517.995V128.016H536.696V136.886H508.486Z" fill="#222222"/>
<path d="M583.559 136.886V128.65H592.751V98.8704H583.559V90.6336H611.452V98.8704H602.26V128.65H611.452V136.886H583.559Z" fill="#222222"/>
<path d="M630.763 136.886V99.504H619.035V90.6336H652V99.504H640.272V136.886H630.763Z" fill="#222222"/>
<path d="M352 221.366L363.348 175.114H375.393L386.867 221.366H377.168L374.949 210.912H363.918L361.699 221.366H352ZM363.918 210.912H374.949L371.082 192.157C370.786 190.552 370.469 188.968 370.131 187.405C369.835 185.8 369.603 184.554 369.434 183.667C369.264 184.554 369.032 185.779 368.736 187.342C368.483 188.905 368.187 190.489 367.849 192.094L363.918 210.912Z" fill="#222222"/>
<path d="M394.45 221.366V175.114H403.959V212.496H422.66V221.366H394.45Z" fill="#222222"/>
<path d="M432.462 221.366V175.114H441.971V212.496H460.672V221.366H432.462Z" fill="#222222"/>
<path d="M469.523 221.366V213.13H478.715V183.35H469.523V175.114H497.416V183.35H488.224V213.13H497.416V221.366H469.523Z" fill="#222222"/>
<path d="M504.048 221.366L515.396 175.114H527.441L538.915 221.366H529.216L526.997 210.912H515.966L513.747 221.366H504.048ZM515.966 210.912H526.997L523.13 192.157C522.834 190.552 522.517 188.968 522.179 187.405C521.883 185.8 521.651 184.554 521.481 183.667C521.312 184.554 521.08 185.779 520.784 187.342C520.531 188.905 520.235 190.489 519.897 192.094L515.966 210.912Z" fill="#222222"/>
<path d="M544.279 221.366V175.114H555.373L567.354 210.912C567.228 209.349 567.08 207.554 566.911 205.526C566.742 203.457 566.594 201.408 566.467 199.38C566.382 197.311 566.34 195.558 566.34 194.122V175.114H574.708V221.366H563.614L551.759 185.568C551.886 186.92 552.013 188.525 552.14 190.383C552.266 192.242 552.372 194.122 552.457 196.022C552.583 197.923 552.647 199.613 552.647 201.091V221.366H544.279Z" fill="#222222"/>
<path d="M597.822 222C594.695 222 591.969 221.43 589.645 220.289C587.32 219.107 585.503 217.48 584.193 215.411C582.925 213.299 582.291 210.849 582.291 208.061V188.419C582.291 185.589 582.925 183.139 584.193 181.069C585.503 179 587.32 177.395 589.645 176.254C591.969 175.071 594.695 174.48 597.822 174.48C600.908 174.48 603.591 175.071 605.874 176.254C608.198 177.395 609.994 179 611.262 181.069C612.572 183.139 613.227 185.589 613.227 188.419H603.718C603.718 186.561 603.19 185.146 602.133 184.174C601.119 183.203 599.661 182.717 597.759 182.717C595.857 182.717 594.378 183.203 593.321 184.174C592.307 185.146 591.8 186.561 591.8 188.419V208.061C591.8 209.877 592.307 211.292 593.321 212.306C594.378 213.277 595.857 213.763 597.759 213.763C599.661 213.763 601.119 213.277 602.133 212.306C603.19 211.292 603.718 209.877 603.718 208.061H613.227C613.227 210.849 612.572 213.299 611.262 215.411C609.994 217.48 608.198 219.107 605.874 220.289C603.591 221.43 600.908 222 597.822 222Z" fill="#222222"/>
<path d="M621.571 221.366V175.114H650.098V183.224H630.89V193.615H647.879V201.725H630.89V213.256H650.098V221.366H621.571Z" fill="#222222"/>
</svg>
