<?xml version="1.0" encoding="utf-8"?>
<!-- Generator: Adobe Illustrator 22.0.1, SVG Export Plug-In . SVG Version: 6.00 Build 0)  -->
<svg version="1.1" id="Logo" xmlns="http://www.w3.org/2000/svg" xmlns:xlink="http://www.w3.org/1999/xlink" x="0px" y="0px"
	 viewBox="0 0 334.3 100.7" style="enable-background:new 0 0 334.3 100.7;" xml:space="preserve">
<style type="text/css">
	.st0{fill:#F16163;}
	.st1{fill:none;stroke:#000000;stroke-width:2;stroke-linecap:round;stroke-miterlimit:10;}
</style>
<g>
	<path d="M135.9,38c2.8,1.4,4.1,3.9,4.1,7c0,5.9-3.7,10.8-10.6,10.8h-16V21.6h14.6c5.9,0,10.6,4.6,10.6,10.5
		C138.5,34.2,137.5,36.6,135.9,38z M121.8,29.4V35h5.5c3.5,0,3.5-5.6,0-5.6H121.8z M121.8,42.2V48h7c3.5,0,3.5-5.8,0-5.8H121.8z"/>
	<path d="M165.2,44.2V21.6c2.8,0,5.7,0,8.4,0v22.8c0,7.5-6.6,11.9-13.6,11.9c-7,0-13.6-4.3-13.6-11.9V21.6c2.7,0,5.6,0,8.3,0v22.6
		c0,2.8,2.7,4.1,5.2,4.1S165.2,47,165.2,44.2z"/>
	<path d="M189.7,44.7v11.1c-2.9,0-5.9,0-8.9,0V21.6c7,0,14.3,0,21.3,0c0,2.9,0,4.9,0,7.8h-12.4v7.5h11c0,2.9,0,4.8,0,7.8H189.7z"/>
	<path d="M217.7,44.7v11.1c-2.9,0-5.9,0-8.9,0V21.6c7,0,14.3,0,21.3,0c0,2.9,0,4.9,0,7.8h-12.4v7.5h11c0,2.9,0,4.8,0,7.8H217.7z"/>
	<path d="M254.9,51.5h-13.5l-2,4.3h-8.5v-1.3l15.4-33.3h3.8l15.4,33.3v1.3h-8.5L254.9,51.5z M248.2,35l-3.8,9h7.7L248.2,35z"/>
	<path d="M278.7,47.9h12.4c0,2.9,0,4.9,0,7.9c-7,0-14.2,0-21.2,0V21.6c2.9,0,5.8,0,8.8,0C278.7,39.3,278.7,33.4,278.7,47.9z"/>
	<path d="M295,38.7c0-23.6,35-23.6,35,0C330,62.4,295,62.4,295,38.7z M321.1,38.7c0-12.3-17.1-12.3-17.1,0
		C303.9,51.1,321.1,51.1,321.1,38.7z"/>
</g>
<g>
	<path d="M132,77.3c2.4,1.2,3.5,3.4,3.5,6c0,5.1-3.1,9.2-9.1,9.2h-13.7V63.3h12.5c5,0,9.1,3.9,9.1,9C134.3,74,133.5,76.2,132,77.3z
		 M120,70v4.8h4.7c3,0,3-4.8,0-4.8H120z M120,80.9v5h6c3,0,3-5,0-5H120z"/>
	<path d="M157.1,82.7V63.3c2.4,0,4.9,0,7.2,0v19.4c0,6.4-5.6,10.1-11.6,10.1c-6,0-11.6-3.7-11.6-10.1V63.3c2.3,0,4.8,0,7.1,0v19.3
		c0,2.4,2.3,3.5,4.5,3.5C154.8,86.2,157.1,85,157.1,82.7z"/>
	<path d="M196,91.4v1.1h-8.3l-5-8.6h-3.9v8.6c-2.5,0-5,0-7.5,0c0-9.7,0-19.4,0-29.1c4.2,0,8.5,0,12.8,0c11.5,0,13.5,13.8,6.2,18.8
		L196,91.4z M184.2,70c-1.7,0-3.6,0-5.3,0c0,2.4,0,4.9,0,7.2h5.3C188.2,77.2,188.4,70,184.2,70z"/>
	<path d="M213.7,63c5.9,0,12,3.1,13.4,10.3h-7.3c-1.2-2.5-3.1-3.5-6.1-3.5c-4.7,0-7.2,3.7-7.2,8.1c0,4.8,2.8,8,7.2,8
		c3,0,4.9-0.8,6.2-3.6h-6.2v-6.5h13.8c0.2,2.9,0.2,5.7-0.8,8.5c-2.1,6.1-7.6,8.4-13,8.4c-7.4,0-14.9-5-14.9-14.9
		C198.8,68,206.3,63,213.7,63z"/>
	<path d="M251.6,70c-4.3,0-6.5,0-10.8,0v4.1h9.9c0,2.2,0,4.4,0,6.6h-9.9c0,1.7,0,3.4,0,5.1c4.3,0,6.8,0,11.2,0c0,2.2,0,4.4,0,6.6
		c-6.8,0-11.8,0-18.6,0c0-9.7,0-19.5,0-29.1c6.7,0,11.4,0,18.2,0C251.6,65.5,251.6,67.8,251.6,70z"/>
	<path d="M283,91.4v1.1h-8.3l-5-8.6h-3.9v8.6c-2.5,0-5,0-7.5,0c0-9.7,0-19.4,0-29.1c4.2,0,8.5,0,12.8,0c11.5,0,13.5,13.8,6.2,18.8
		L283,91.4z M271.2,70c-1.7,0-3.6,0-5.3,0c0,2.4,0,4.9,0,7.2h5.3C275.2,77.2,275.4,70,271.2,70z"/>
	<path d="M299.9,86v6.5h-14.8V86h3.7V69.8h-3.4v-6.5h14.2v6.5h-3.4V86H299.9z"/>
	<path d="M322.3,88.8h-11.5l-1.7,3.7h-7.3v-1.1L314.9,63h3.2l13.2,28.4v1.1H324L322.3,88.8z M316.5,74.8l-3.3,7.7h6.7L316.5,74.8z"
		/>
</g>
<g>
	<path class="st0" d="M2.6,42.7c11,2.3,25,4.3,41.3,4.3c16.4,0,30.5-2,41.6-4.3c-3-2.8-18.2-17-42-16.7C20.4,26.2,5.7,39.8,2.6,42.7
		z"/>
	<path class="st0" d="M2.6,47.7c11.1,2.4,25.3,4.5,41.8,4.5c16.4,0,30.4-2.1,41.4-4.5c0,4,0,8-0.1,12C74.7,62,60.7,64,44.4,64
		c-16.4,0-30.6-2-41.8-4.3C2.6,55.7,2.6,51.7,2.6,47.7z"/>
	<path class="st0" d="M2.7,64.4c11.1,2.4,25.3,4.5,41.8,4.5c16.4,0,30.4-2.1,41.5-4.5c0,4,0,8-0.1,12C75,78.9,61.3,80.9,45.3,81
		C28.4,81.1,13.9,79,2.7,76.5C2.7,72.5,2.7,68.4,2.7,64.4z"/>
	<path class="st0" d="M2.7,81.2c11.1,2.4,25.3,4.5,41.8,4.5c16.4,0,30.4-2.1,41.4-4.5c0,4,0,8-0.1,12c-10.9,2.4-25,4.5-41.4,4.5
		c-16.6,0-30.8-2.1-41.8-4.5C2.7,89.2,2.7,85.2,2.7,81.2z"/>
	<path class="st0" d="M43.6,37.5c-3.1-1.2-11.2-4.8-17.2-13.6C20.7,15.6,20,7.4,19.8,4.1c-5.9,7.3-6.4,17.6-1.3,25.3
		C23.9,37.5,34.3,40.9,43.6,37.5z"/>
	<path class="st0" d="M43.9,38.6c2.9-1.4,10.7-5.5,16.3-14.6C65.5,15.5,66,7.3,66,4c5.9,6.8,6.6,16.9,1.8,24.9
		C62.8,37.2,52.9,41.2,43.9,38.6z"/>
</g>
<line class="st1" x1="97.6" y1="19.9" x2="97.6" y2="93.5"/>
</svg>
