<svg width="270" height="280" viewBox="0 0 270 280" fill="none" xmlns="http://www.w3.org/2000/svg">
<g filter="url(#filter0_d)">
<path d="M259.875 136.125C259.875 99.7343 230.266 70.125 193.875 70.125C180.118 70.125 167.335 74.3696 156.75 81.6007C146.165 74.3696 133.382 70.125 119.625 70.125C113.99 70.125 108.389 70.8923 102.91 72.3278L109.832 79.2495C113.07 78.6885 116.341 78.375 119.625 78.375C130.738 78.375 141.087 81.5842 149.907 87.0457C136.781 98.8144 128.395 115.714 127.953 134.582C108.12 144.255 93.8231 163.523 91.212 186.343C73.722 176.406 61.875 157.637 61.875 136.125C61.875 124.237 65.5875 112.629 72.3731 102.96L66.4867 97.0736C58.1996 108.351 53.625 122.059 53.625 136.125C53.625 162.183 68.8462 184.697 90.8284 195.418C91.6616 231.095 120.879 259.875 156.75 259.875C192.621 259.875 221.838 231.095 222.672 195.418C244.654 184.697 259.875 162.183 259.875 136.125ZM156.75 91.9545C168.143 101.549 175.77 115.45 177.123 131.13C170.701 129.038 163.862 127.875 156.75 127.875C149.638 127.875 142.799 129.038 136.377 131.13C137.73 115.446 145.357 101.545 156.75 91.9545ZM214.306 190.072C207.945 192.489 201.077 193.875 193.875 193.875C182.762 193.875 172.413 190.666 163.593 185.204C175.312 174.694 183.282 160.104 185.163 143.653C201.609 153 213.003 170.169 214.306 190.072ZM156.75 180.296C145.068 170.462 137.379 156.09 136.319 139.924C142.68 137.511 149.548 136.125 156.75 136.125C163.952 136.125 170.82 137.511 177.181 139.928C176.121 156.094 168.432 170.466 156.75 180.296ZM128.337 143.657C130.218 160.108 138.183 174.694 149.907 185.208C141.087 190.666 130.738 193.875 119.625 193.875C112.423 193.875 105.555 192.489 99.1939 190.072C100.497 170.169 111.891 153 128.337 143.657ZM156.75 251.625C126.592 251.625 101.797 228.381 99.2516 198.87C105.674 200.962 112.514 202.125 119.625 202.125C133.382 202.125 146.165 197.88 156.75 190.649C167.335 197.88 180.118 202.125 193.875 202.125C200.986 202.125 207.826 200.962 214.248 198.87C211.703 228.381 186.908 251.625 156.75 251.625ZM222.288 186.343C219.681 163.519 205.38 144.251 185.547 134.582C185.105 115.714 176.719 98.8144 163.593 87.0457C172.413 81.5842 182.762 78.375 193.875 78.375C225.72 78.375 251.625 104.28 251.625 136.125C251.625 157.637 239.778 176.406 222.288 186.343Z" fill="#37422f"/>
<path d="M156.75 235.125V243.375C177.297 243.375 195.405 231.012 202.876 211.872L195.191 208.874C188.966 224.821 173.873 235.125 156.75 235.125Z" fill="#37422f"/>
<path d="M242.558 127.128L234.444 128.617C234.894 131.08 235.125 133.605 235.125 136.125H243.375C243.375 133.11 243.103 130.082 242.558 127.128Z" fill="#37422f"/>
<path d="M193.875 86.625V94.875C210.994 94.875 226.087 105.179 232.312 121.122L239.997 118.119C232.522 98.9876 214.418 86.625 193.875 86.625Z" fill="#37422f"/>
<path d="M115.207 114.085L112.749 99.3341L99.3341 112.749L114.085 115.207L115.207 114.085Z" fill="#37422f"/>
<path d="M63.9375 45.0203L45.0203 63.9375L90.75 109.667L109.667 90.75L103.125 84.2078L89.5414 97.7914L83.7086 91.9586L97.2923 78.375L90.75 71.8328L81.2914 81.2914L75.4586 75.4586L84.9173 66L78.375 59.4578L64.7914 73.0414L58.9586 67.2086L72.5423 53.625L63.9375 45.0203Z" fill="#37422f"/>
<path d="M24.75 61.3759C24.75 63.9251 26.8249 66 29.3741 66C30.591 66 31.7831 65.505 32.6453 64.647L64.647 32.6453C65.5215 31.7708 66 30.6116 66 29.3741C66 26.8249 63.9251 24.75 61.3759 24.75C60.159 24.75 58.9669 25.245 58.1048 26.103L26.103 58.1048C25.2285 58.9793 24.75 60.1384 24.75 61.3759Z" fill="#37422f"/>
<path d="M45.7298 26.8125L35.2069 16.2938C32.6824 13.7651 29.3246 12.375 25.7483 12.375C18.3728 12.375 12.375 18.3769 12.375 25.7524C12.375 29.3246 13.7651 32.6824 16.2938 35.211L26.8125 45.7298L45.7298 26.8125Z" fill="#37422f"/>
<path d="M20.625 235.125H28.875V243.375H20.625V235.125Z" fill="#37422f"/>
<path d="M37.125 235.125H45.375V243.375H37.125V235.125Z" fill="#37422f"/>
<path d="M53.625 235.125H61.875V243.375H53.625V235.125Z" fill="#37422f"/>
<path d="M20.625 218.625H61.875V226.875H20.625V218.625Z" fill="#37422f"/>
<path d="M20.625 202.125H61.875V210.375H20.625V202.125Z" fill="#37422f"/>
<path d="M20.625 185.625H61.875V193.875H20.625V185.625Z" fill="#37422f"/>
<path d="M202.125 53.625H210.375V61.875H202.125V53.625Z" fill="#37422f"/>
<path d="M218.625 53.625H226.875V61.875H218.625V53.625Z" fill="#37422f"/>
<path d="M235.125 53.625H243.375V61.875H235.125V53.625Z" fill="#37422f"/>
<path d="M202.125 37.125H243.375V45.375H202.125V37.125Z" fill="#37422f"/>
<path d="M202.125 20.625H243.375V28.875H202.125V20.625Z" fill="#37422f"/>
<path d="M79.9302 124.868L71.9854 122.632C71.2677 125.185 70.7479 127.825 70.4468 130.478L78.639 131.418C78.8948 129.199 79.3279 126.996 79.9302 124.868Z" fill="#37422f"/>
<path d="M71.643 148.335L79.6372 146.297C79.0267 143.884 78.6307 141.397 78.4698 138.918L70.2363 139.45C70.4261 142.436 70.9005 145.427 71.643 148.335Z" fill="#37422f"/>
<path d="M85.8742 159.848C84.4387 157.81 83.1806 155.624 82.1328 153.351L74.6418 156.808C75.9 159.53 77.4097 162.15 79.1257 164.596L85.8742 159.848Z" fill="#37422f"/>
</g>
<defs>
<filter id="filter0_d" x="-10" y="0" width="284" height="284" filterUnits="userSpaceOnUse" color-interpolation-filters="sRGB">
<feFlood flood-opacity="0" result="BackgroundImageFix"/>
<feColorMatrix in="SourceAlpha" type="matrix" values="0 0 0 0 0 0 0 0 0 0 0 0 0 0 0 0 0 0 127 0"/>
<feOffset dy="10"/>
<feGaussianBlur stdDeviation="5"/>
<feColorMatrix type="matrix" values="0 0 0 0 0 0 0 0 0 0 0 0 0 0 0 0 0 0 0.25 0"/>
<feBlend mode="normal" in2="BackgroundImageFix" result="effect1_dropShadow"/>
<feBlend mode="normal" in="SourceGraphic" in2="effect1_dropShadow" result="shape"/>
</filter>
</defs>
</svg>
