<?xml version="1.0" encoding="utf-8"?>
<!-- Generator: Adobe Illustrator 22.0.1, SVG Export Plug-In . SVG Version: 6.00 Build 0)  -->
<svg version="1.1" xmlns="http://www.w3.org/2000/svg" xmlns:xlink="http://www.w3.org/1999/xlink" x="0px" y="0px"
	 viewBox="0 0 1436.4 1419.3" style="enable-background:new 0 0 1436.4 1419.3;" xml:space="preserve">
<style type="text/css">
	.st0{fill:#33261E;}
	.st1{fill:#C2B59B;}
	.st2{fill:#84644F;}
	.st3{opacity:0.53;}
	.st4{fill:#EA9C48;}
	.st5{fill:#C66172;}
	.st6{fill:#808285;}
	.st7{opacity:0.31;}
	.st8{fill:#5B513C;}
	.st9{opacity:0.93;}
	.st10{fill:#7F7051;}
	.st11{opacity:0.88;}
	.st12{fill:#1E1C18;}
	.st13{fill:#E2A58A;}
	.st14{opacity:0.13;}
	.st15{fill:#35241A;}
	.st16{fill:#414042;}
	.st17{fill:#7F7050;}
	.st18{opacity:0.45;}
</style>
<g id="Слой_10">
	<path class="st0" d="M1379.2,532.9c-11.9-17.5-124.5,34.2-211.5,103c-43.3,34.2-63.2,59.2-73.5,90.5c-10,30.5-17.6,87.1,11.5,107.2
		c28.3,19.6,80-3.4,108.7-30.9c31.9-30.6,20.1-52.4,62.5-119.4c9.4-14.8,7.8-10.4,48-66C1380.9,539.6,1380.8,535.3,1379.2,532.9z"/>
	<path class="st1" d="M1094.1,726.3c14.5,2,37.3,7,61.7,20.9c31.7,18.1,49.8,42.1,58.5,55.4c-27.9,40.2-55.9,80.4-83.8,120.6
		c-17.1-12.5-36.5-25.6-58.4-38.4c-23.6-13.8-46.1-25-66.7-34.2C1035,809.2,1064.6,767.8,1094.1,726.3z"/>
	<path class="st2" d="M1009.1,844.9c12.6,2.4,30.4,7,50.3,16.3c7.2,3.4,18.1,8.6,30.4,17.6c10.5,7.7,26.5,21.6,40.8,44.4
		c-13.5,14.8-32.6,36.1-54.8,62.4c-22.1,26.2-39.1,47.7-47.9,59c-3.1,3.9-5.3,6.9-5.7,7.3c-15.2,19.7-72,83.4-209.7,232.5l0,0
		c0,0-39-45-39-45l0,0c0,0,72.5-133,143.6-249.2C947.7,940.1,978.4,891.7,1009.1,844.9z"/>
	<path d="M1379.2,532.9c-6.5-9.2-38.8,3.3-65.1,13.5c-33.9,13.1-60.8,30.5-113.2,64.6c0,0-34.4,23.1-33.2,24.9
		c1.1,1.6,51.9-35.1,60.2-26.6c8,8.2-28.8,53.5-24.8,56.8c5.2,4.3,70.1-69.3,74.4-65.8c4,3.3-45.9,70.7-42.3,73.7
		c2.3,1.9,36.6-41,45.7-35.7c7.9,4.7-9.2,42.5-4,45c4.7,2.3,21.7-27.8,48-66C1364.2,560.1,1385.1,541.3,1379.2,532.9z"/>
	<path class="st3" d="M1380.7,533.1c-6.6-6.1-93.6,72.6-158.9,143.5c-15.5,16.8-64.5,70.9-64.5,70.9l0,0c22.3,16.3,24,17.8,24,17.8
		s13.2,11.2,28.7,30.3c0.4,0.5,5.9,7.2,5.9,7.2l0,0l0,0c0,0,9.1-12.2,10.3-13.7c10.7-14.5,12.6-29.6,28-63.9
		c7-15.6,5.5-10,13.4-26.6c1.5-3.1,4.2-8.9,9.3-15.4c2.4-3.1,3.9-4.5,6.4-7.2c6.7-7.4,10.2-13.8,13.6-18.4
		c6.1-8.2,15.1-20.4,29.5-40.3C1365.3,563.6,1384.1,536.2,1380.7,533.1z"/>
	<path class="st3" d="M1157.4,747.5c9.3,5.5,20.8,13.5,32.5,24.5c11.6,11,20,21.9,26,30.8c-28.4,40.1-56.9,80.3-85.3,120.4
		c-10.2-15.4-25.1-33.1-46.5-48c-4-2.8-8-5.3-11.9-7.6C1100.6,827.6,1129,787.5,1157.4,747.5z"/>
	<path class="st3" d="M1072.2,867.7c2.6,1.4,6.1,3.4,10.2,6.1c2.1,1.4,11,7.3,21.3,17c11.9,11.3,20.8,23.1,27,32.5
		c-21.4,24.7-39.3,45.9-53.3,62.6c0,0-28.2,33.7-47.9,59c-3.1,3.9-5.3,6.9-5.7,7.3c-15.2,19.7-72,83.4-209.7,232.5c0,0-39-45-39-45
		c0.1-0.1,0.2-0.4,0.3-0.6c60.4-110.3,132.9-156.4,193.9-221C998.6,986.7,1037.4,938.6,1072.2,867.7z"/>
	<path class="st3" d="M1380.7,533.1c-6.5-9.2-38.8,3.3-65.1,13.5c-33.9,13.1-60.8,30.5-113.2,64.6c0,0-34.4,23.1-33.2,24.9
		c1.1,1.6,51.9-35.1,60.2-26.6c8,8.2-28.8,53.5-24.8,56.8c5.2,4.3,70.1-69.3,74.4-65.8c4,3.3-45.9,70.7-42.3,73.7
		c2.3,1.9,36.6-41,45.7-35.7c7.9,4.7-9.2,42.5-4,45c4.7,2.3,21.7-27.8,48-66C1365.7,560.3,1386.7,541.5,1380.7,533.1z"/>
</g>
<g id="Слой_11">
	<rect x="263.9" y="722.2" transform="matrix(0.866 -0.5 0.5 0.866 -389.236 282.6704)" class="st4" width="138" height="290.9"/>
	<path class="st5" d="M320.6,730.7l-98.9,57.1c-5.5,3.1-12.5,1.3-15.6-4.2l-41.4-71.7c-3.1-5.5-1.3-12.5,4.2-15.6l98.9-57.1
		c5.5-3.1,12.5-1.3,15.6,4.2l41.4,71.7C328,720.5,326.1,727.6,320.6,730.7z"/>
	<rect x="198.7" y="735.2" transform="matrix(0.866 -0.5 0.5 0.866 -340.9062 234.6014)" class="st6" width="137.3" height="36.5"/>
	<path class="st7" d="M439.7,956.1L418,968.6c-10,5.8-22.9,2.3-28.7-7.7c-56.5-98-113-196-169.6-293.9c2-1.2,4-2.3,6-3.5
		c4-2.3,8.1-4.7,12.1-7c10.5-6,21-12,31.5-18c1-0.4,3.8-1.4,7.3-0.4c2.9,0.8,4.7,2.5,5.4,3.3c55.1,95.3,110.3,190.6,165.4,285.9
		C453.2,937.4,449.7,950.3,439.7,956.1z"/>
</g>
<g id="Слой_9">
	<path class="st8" d="M67,1023.1c101.5,67.4,209.5,135.6,324.2,203.4c119,70.4,234.9,134.5,346.7,192.7
		c104.5-57.5,211.8-119.3,321.5-186c115.5-70.2,225.2-140.5,329-210.2c-354.9-88-459-130.2-468-151.3c-0.9-2.2-11.2-24.7-28.8-53.7
		c-3.4-5.6-7.6-11.6-13.6-18.9c-65.5-79.1-246.8-82.1-312-6c-24.3,28.4-20.7,40.3-43.1,75.6c-14.8,7.1-29.8,14.1-45,21
		C337.1,953.4,198.6,995.7,67,1023.1z"/>
	<path class="st9" d="M918.2,868.8c0,0-49.3,33.6-103.9,50.4c-55.9,17.2-117.4,16.8-117.4,16.8c0,0,0-0.1,0-0.1
		c5.6-12.1,8.4-19.7,14.4-33.5c1.6-3.8,3.5-7.9,7.1-12.7c0,0,1.8-2.4,3.9-4.6c6.7-7.2,80.2-67.2,170.2-70.5c0,0,0,0,0,0
		C892.6,814.7,918.2,868.8,918.2,868.8z"/>
	<path class="st10" d="M69,1023.1c101.5,67.4,209.5,135.6,324.2,203.4c119,70.4,234.9,134.5,346.7,192.7
		C886.4,1335,962,1291.5,962,1291.5c0,0-104.8-154.6-168.2-268.3c-4.6-8.2-34.8-62.7-39.4-70.9c-0.1-0.2-0.3-0.6-0.6-1.1
		c-7.7-13.9-10.8-22.7-16-35c-10.3-24.3-14.6-28.7-17-31c-3.9-3.6-7.9-6.2-12.4-8.4c-23.4-11.6-53.3-10-72.6-13.6
		c-48.9-9-68.4-57.7-85.2-48.5c-2.4,1.3-6.2,9.7-13.8,26.5c-5.1,11.3-9.1,20.8-11.9,27.6c-14.8,7.1-29.8,14.1-45,21
		C339.1,953.4,200.6,995.7,69,1023.1z"/>
	<path class="st11" d="M525,868.8c0,0,49.3,33.6,103.9,50.4c55.9,17.2,117.4,16.8,117.4,16.8c0,0,0-0.1,0-0.1
		c-5.6-12.1-8.4-19.7-14.4-33.5c-1.6-3.8-3.5-7.9-7.1-12.7c0,0-1.8-2.4-3.9-4.6c-6.7-7.2-80.2-67.2-170.2-70.5c0,0,0,0,0,0
		C550.6,814.7,525,868.8,525,868.8z"/>
</g>
<g id="Слой_7">
	<path class="st12" d="M720.8,37.4c238.6,140.9,477.1,281.8,715.7,422.6c-175.8,49.7-423.6,100.1-722.2,99.6
		C419.5,559.2,174.7,509.4,0.1,460C240.4,319.2,480.6,178.3,720.8,37.4z"/>
</g>
<g id="Слой_1">
	<path class="st13" d="M735.8,883.9h-35c-32.6-6.8-82.5-21.5-131.7-55.6C469,759,445.4,660.5,439.7,631.8
		c-7.6-60.6-13.7-124-17.6-190.1c-1.3-22.4-2.4-44.5-3.2-66.3c15.2-8.8,38.5-22.7,66.5-40.5c87.8-55.9,96.5-71.2,136.8-83.1
		c31.6-9.3,32-1.6,106.3-13.7c35.6-5.8,64.4-12.3,83.1-16.8c37.6,3.4,65.7,14,83.1,22.1c88.1,41.1,117.4,119.8,117.8,124.4
		c0,0.4,0,2.8,1.4,5.3c1.2,2.3,3.5,4.7,3.5,4.7l0,0c-0.1,65.2-4,158.2-22.2,254.1c-6.8,36-15.8,73.4-41,113.2
		c-14.4,22.7-33.8,46.1-60,67.8C833.2,863.3,766,878.7,735.8,883.9z"/>
</g>
<g id="Слой_2">
	<g id="Слой_3">
		<path class="st14" d="M833.4,317c-35.8-7.4-64.6-6.3-83.9-3.9c-53.1,6.4-97.9,28.9-124.1,43.1c-26.6,14.4-50.3,31.3-53.7,27.4
			c-3.3-3.9,15.7-26,31.6-41c28.8-27.3,54.5-38.3,53.7-40c-1.2-2.4-58.4,14.2-112.4,50.5C512.5,374.5,459,418.1,416.1,501
			c0-10.7,0-21.4,0-32.1c0-28.6,0-30.5,0-30.7c0-17.7,59.8-70.4,252-195.5c30.2,4.6,60.3,9.1,90.5,13.7
			c135.9,19.4,240.4,89.4,262,181.8c4.4,18.7,6.7,44,0,75.4c-15.8-36.7-47.7-96-109.4-147C883.7,344,856.6,328.1,833.4,317z"/>
	</g>
	<path class="st15" d="M833.4,296.7c-35.8-7.4-64.6-6.3-83.9-3.9c-53.1,6.4-97.9,28.9-124.1,43.1c-26.6,14.4-50.3,31.3-53.7,27.4
		c-3.3-3.9,15.7-26,31.6-41c28.8-27.3,54.5-38.3,53.7-40c-1.2-2.4-59.5,14-112.4,50.5C513,354.5,455,403,416.1,501
		c0-27.7,0-55.4,0-83c0-162.2,123.7-295,274.8-295h54.8c151.2,0,274.8,132.7,274.8,295c0,31.9,0,63.8,0,95.7
		c-11.8-37.5-40.5-108.9-109.4-167.3C883.8,323.2,856.5,307.5,833.4,296.7z"/>
</g>
<g id="Слой_5">
	<path class="st16" d="M736.1,884.1h-35c-32.2-6.2-81.6-20.4-131.7-55.6c-19.4-13.6-49.7-35.4-75.7-73.7
		c-33.8-49.8-52.6-116.5-52.6-116.5l0,0c0,0,85.4,0.9,149.8-14.1c32.5-7.6,77.8-23.6,129-61c59.2,34.3,109.6,48.5,145,55
		c52,9.6,130.6,13.8,130.7,13.8l0,0c0,0-10.9,65.7-41,113.2c-14.4,22.7-33.8,46.1-60,67.8C833.5,863.5,766.3,878.9,736.1,884.1z"/>
</g>
<g id="Слой_6">
	<path class="st17" d="M718.3,0l718.2,460c-197.4-35-435.6-62.4-705.9-63.2C449.7,396,203,424,0.1,460
		C239.5,306.7,478.9,153.3,718.3,0z"/>
</g>
<g id="Слой_8">
	<g class="st18">
		<path d="M735.6,883.9c-4.9,0.5-9.9,0.9-14.8,1.4c0-12.1,0-62.7,0-75c0-148.8,0.2-149.2,0-187c-0.3-64.7-0.8-74.7-1-146
			c-0.1-34,0-61.9,0-80.4c7.2,0,10.6,0,10.6,0l0,0c3.7-77.8,8.4-107.4,8.4-107.4c1.7-10.5,6.6-39.1-6.5-48.2c-2.1-1.4-3.9-1.9-4-3.2
			c-0.4-6.5,44-20.3,83.1-16.8c37.6,3.4,65.7,14,83.1,22.1c88.1,41.1,117.4,119.8,117.8,124.4c0,0.4,0,2.8,1.4,5.3
			c1.2,2.3,3.5,4.7,3.5,4.7c-0.1,65.2-4,158.2-22.2,254.1c-6.8,36-15.8,73.4-41,113.2c-14.4,22.7-33.8,46.1-60,67.8
			C833,863.3,765.9,878.7,735.6,883.9z"/>
		<path d="M833.3,296.7c-22-16.1-18.1-15.1-34-26c-45.3-30.9-65.9-30.8-74.4-52.4c-2.6-6.6-0.2-7.7-1.3-41.1
			c-0.6-18.1-1.1-36.2-1.7-54.3c7.9,0,15.7,0,23.6,0c151.2,0,274.8,132.7,274.8,295c0,31.9,0,63.8,0,95.7
			c-11.8-37.5-40.5-108.9-109.4-167.3C888.4,327.2,875.9,327.8,833.3,296.7z"/>
		<path d="M736,884.1c-5,0.4-10.1,0.8-15.1,1.2c-0.4-5.1-0.8-13.1-1-23c-0.1-6,0-9.6,0-20c0,0,0-12.2,0-25c-0.1-18.4-0.7-28.9-1-40
			c-0.5-17.8,0.1-25.4,1-57c1.1-38.8,2.2-79.2,1-126c-0.3-13.3-0.8-24.1-1.1-31c59.2,34.3,109.6,48.5,145,55
			c52,9.6,130.6,13.8,130.7,13.8c0,0-10.9,65.7-41,113.2c-14.4,22.7-33.8,46.1-60,67.8C833.4,863.5,766.2,878.9,736,884.1z"/>
		<path d="M718.2,0l718.2,460c-53.3-9.5-112.8-18.9-177.8-27.6c-38.6-5.1-104.9-13.8-191.2-20.8c-109.1-8.8-206.4-12.2-336.9-14.8
			c0,0,0,0,0,0C726.3,264.6,722.3,132.3,718.2,0z"/>
	</g>
	<g>
	</g>
	<g>
	</g>
	<g>
	</g>
	<g>
	</g>
	<g>
	</g>
	<g>
	</g>
</g>
</svg>
