<svg width="410" height="415" viewBox="0 0 410 415" fill="none" xmlns="http://www.w3.org/2000/svg">
<path opacity="0.3" d="M175.822 413H160.73C157.969 413 155.73 410.761 155.73 408V26.9496C155.73 24.1882 157.969 21.9496 160.73 21.9496H403C405.761 21.9496 408 24.1882 408 26.9496V364.122C408 379.651 404.254 390.927 397.116 398.327C389.991 405.714 379.155 409.58 364.222 409.58C352.744 409.58 338.266 409.122 320.778 408.203C318.302 408.073 316.281 406.124 316.036 403.614C315.487 397.988 314.816 392.201 314.023 386.252C313.581 382.94 316.379 380.084 319.683 380.462C335.72 382.297 348.156 383.224 356.949 383.224C365.183 383.224 371.731 381.43 376.234 377.492C380.789 373.51 382.908 367.641 382.908 360.274V56.0226C382.908 51.0521 378.878 47.0226 373.908 47.0226H189.822C184.852 47.0226 180.822 51.052 180.822 56.0226V408C180.822 410.761 178.584 413 175.822 413ZM49.8324 133.444C57.9804 133.331 67.7635 133.115 79.1801 132.797C82.3743 132.708 85.2894 130.929 86.8156 128.112C95.1439 112.741 103.47 96.3842 111.794 79.0423C113.017 76.494 116.09 75.4481 118.597 76.7198L134.282 84.6739C136.834 85.9681 137.778 89.1316 136.354 91.6038C110.222 136.974 82.448 181.688 53.031 225.746C48.8019 232.08 53.8336 240.531 61.4393 239.749C73.9104 238.467 86.7106 237.131 99.8397 235.74C105.417 235.149 109.1 229.654 107.522 224.271C104.97 215.561 102.417 206.909 99.8646 198.316C99.0839 195.687 100.561 192.921 103.178 192.109L115.033 188.433C117.576 187.644 120.284 188.987 121.183 191.477C130.396 216.982 138.053 241.237 144.157 264.241C144.827 266.766 143.401 269.381 140.895 270.202L126.81 274.821C124.073 275.719 121.139 274.123 120.398 271.329C119.837 269.214 119.276 267.115 118.715 265.031C117.565 260.76 113.468 257.973 109.078 258.451C70.7039 262.629 40.8124 266.917 19.4344 271.322C16.6829 271.889 13.9941 270.166 13.3911 267.473L8.47335 245.502C8.10807 243.87 8.58326 242.154 9.74353 240.914C27.0249 222.441 44.476 199.069 62.1032 170.826C65.9464 164.668 61.1965 156.809 53.9555 157.358C39.1814 158.478 26.9171 159.912 17.1805 161.666C14.5576 162.138 12.0078 160.635 11.2272 158.183L5.23699 139.369C4.76455 137.886 5.01155 136.253 5.90547 134.943C25.5751 106.121 46.6776 63.1494 69.2283 6.11833C70.2326 3.57849 73.0732 2.29994 75.6239 3.23339L92.2806 9.32896C95.0608 10.3464 96.3511 13.5541 95.0494 16.217C73.7339 59.8215 56.017 94.4403 41.8952 120.085C38.5867 126.093 42.8936 133.541 49.8324 133.444ZM201.802 214.344H361.501C364.262 214.344 366.501 216.583 366.501 219.344V233.99C366.501 236.751 364.262 238.99 361.501 238.99H259.131C254.16 238.99 250.131 243.019 250.131 247.99V301.542C250.131 306.512 254.16 310.542 259.131 310.542H349.521C352.283 310.542 354.521 312.78 354.521 315.542V329.76C354.521 332.521 352.283 334.76 349.521 334.76H230.038C227.277 334.76 225.038 332.521 225.038 329.76V247.99C225.038 243.019 221.009 238.99 216.038 238.99H201.802C199.04 238.99 196.802 236.751 196.802 233.99V219.344C196.802 216.583 199.04 214.344 201.802 214.344ZM202.229 129.263H281.344C284.64 129.263 287.677 127.457 289.248 124.558C301.826 101.348 311.34 82.5308 317.777 68.1227C318.962 65.4713 322.074 64.3108 324.645 65.5379L339.81 72.776C342.452 74.037 343.446 77.2814 341.965 79.7936C335.108 91.4287 327.926 103.325 320.418 115.481C316.711 121.484 321.009 129.263 328.084 129.263H361.501C364.262 129.263 366.501 131.502 366.501 134.263V148.481C366.501 151.242 364.262 153.481 361.501 153.481H202.229C199.468 153.481 197.229 151.242 197.229 148.481V134.263C197.229 131.502 199.468 129.263 202.229 129.263ZM43.2726 317.023C38.2502 346.892 32.2883 374.128 25.3901 398.733C24.6498 401.374 21.8773 402.896 19.2171 402.107L5.83196 398.136C3.0479 397.31 1.51717 394.263 2.51175 391.463C10.5693 368.778 16.787 342.684 21.178 313.196C21.6059 310.323 24.331 308.39 27.1465 308.943L39.3207 311.337C41.9684 311.857 43.7173 314.379 43.2726 317.023ZM82.2657 310.56C86.8774 339.388 90.2731 363.855 92.4554 383.965C92.7356 386.548 90.9577 388.909 88.3789 389.366L76.1298 391.538C73.1556 392.065 70.3672 389.849 70.1926 386.793C69.1196 368.013 66.8048 343.526 63.2528 313.346C62.9361 310.655 64.8082 308.199 67.4792 307.796L76.5944 306.421C79.3034 306.012 81.8339 307.86 82.2657 310.56ZM126.319 300.071C132.969 322.616 138.642 343.595 143.341 363.011C143.98 365.654 142.361 368.322 139.705 368.985L126.384 372.313C123.555 373.02 120.71 371.158 120.216 368.265C115.859 342.784 111.497 321.773 107.125 305.248C106.385 302.452 108.068 299.605 110.829 298.941L120.373 296.645C122.956 296.023 125.569 297.531 126.319 300.071ZM222.186 71.1991L234.745 65.0302C236.976 63.9342 239.665 64.6458 241.044 66.6915C251.185 81.7329 259.253 94.9484 265.259 106.345C266.489 108.677 265.576 111.585 263.182 112.858L249.328 120.227C246.765 121.591 243.532 120.493 242.268 117.795C236.249 104.948 228.896 91.8786 220.215 78.5874C218.526 76.0008 219.464 72.5361 222.186 71.1991ZM265.788 166.998L277.596 161.912C279.927 160.907 282.608 161.81 283.817 163.989C287.974 171.488 293.251 181.571 299.651 194.246C300.94 196.799 299.814 199.914 297.185 201.058L284.124 206.742C281.526 207.873 278.475 206.619 277.382 203.947C272.984 193.204 268.316 183.308 263.376 174.262C261.897 171.554 263.036 168.183 265.788 166.998Z" stroke="white" stroke-width="4"/>
</svg>
