<svg width="25" height="25" viewBox="0 0 25 25" fill="none" xmlns="http://www.w3.org/2000/svg">
<path d="M15.6465 0.292893C15.256 -0.097631 14.6228 -0.0976311 14.2323 0.292893C13.8418 0.683417 13.8418 1.31658 14.2323 1.70711L15.6465 0.292893ZM23.2929 10.7677C23.6834 11.1582 24.3166 11.1582 24.7071 10.7677C25.0976 10.3772 25.0976 9.74402 24.7071 9.3535L23.2929 10.7677ZM19.1212 12.1515L19.8283 12.8586L19.1212 12.1515ZM15.1042 12.1507L14.6363 11.2669L15.1042 12.1507ZM9.65832 11.3492L9.9102 12.317L9.65832 11.3492ZM17.4673 11.765L17.6948 10.7912L17.4673 11.765ZM15.3042 12.0448L14.8363 11.1611L15.3042 12.0448ZM8.57185 22.7009L7.86474 21.9938L8.57185 22.7009ZM2.29912 16.4281L1.59202 15.721L2.29912 16.4281ZM23.3132 7.95956L17.0404 1.68683L15.6262 3.10105L21.899 9.37377L23.3132 7.95956ZM17.0404 1.68683L15.6465 0.292893L14.2323 1.70711L15.6262 3.10105L17.0404 1.68683ZM21.899 9.37377L23.2929 10.7677L24.7071 9.3535L23.3132 7.95956L21.899 9.37377ZM15.6262 1.68683L5.86865 11.4444L7.28286 12.8586L17.0404 3.10105L15.6262 1.68683ZM5.86865 11.4444L1.59202 15.721L3.00623 17.1353L7.28286 12.8586L5.86865 11.4444ZM9.27896 23.408L19.8283 12.8586L18.4141 11.4444L7.86474 21.9938L9.27896 23.408ZM19.8283 12.8586L23.3132 9.37377L21.899 7.95956L18.4141 11.4444L19.8283 12.8586ZM6.82764 13.1193L9.9102 12.317L9.40644 10.3814L6.32388 11.1838L6.82764 13.1193ZM17.2397 12.7388L18.8936 13.1253L19.3488 11.1778L17.6948 10.7912L17.2397 12.7388ZM15.5721 13.0345L15.7721 12.9286L14.8363 11.1611L14.6363 11.2669L15.5721 13.0345ZM11.4579 12.6469C12.6296 13.5843 14.246 13.7366 15.5721 13.0345L14.6363 11.2669C14.0146 11.5961 13.2567 11.5247 12.7073 11.0852L11.4579 12.6469ZM9.9102 12.317C10.4493 12.1767 11.0229 12.299 11.4579 12.6469L12.7073 11.0852C11.7796 10.3431 10.5561 10.0822 9.40644 10.3814L9.9102 12.317ZM17.6948 10.7912C16.7286 10.5654 15.7133 10.6968 14.8363 11.1611L15.7721 12.9286C16.2223 12.6903 16.7436 12.6228 17.2397 12.7388L17.6948 10.7912ZM0 19.5645C0 22.5664 2.43355 25 5.43549 25V23C3.53812 23 2 21.4619 2 19.5645H0ZM5.43549 25C6.87707 25 8.25961 24.4273 9.27896 23.408L7.86474 21.9938C7.22047 22.638 6.34664 23 5.43549 23V25ZM2 19.5645C2 18.6534 2.36195 17.7795 3.00623 17.1353L1.59202 15.721C0.572665 16.7404 0 18.1229 0 19.5645H2Z" fill="#666666"/>
</svg>
