<svg width="17" height="29" viewBox="0 0 17 29" fill="none" xmlns="http://www.w3.org/2000/svg">
<path d="M9.5 8.5C9.5 7.94772 9.05228 7.5 8.5 7.5C7.94772 7.5 7.5 7.94772 7.5 8.5H9.5ZM7.5 13C7.5 13.5523 7.94772 14 8.5 14C9.05228 14 9.5 13.5523 9.5 13H7.5ZM1 8.71429C2 8.71429 2 8.71473 2 8.71515C2 8.71525 2 8.71564 2 8.71584C2 8.71624 2 8.71653 2 8.71671C1.99999 8.71706 1.99999 8.71696 2 8.71641C2.00001 8.71531 2.00003 8.71244 2.00011 8.70784C2.00025 8.69863 2.00058 8.68254 2.00131 8.66004C2.00277 8.61501 2.00583 8.54447 2.01225 8.45209C2.0251 8.267 2.05126 7.99628 2.10431 7.66888C2.2112 7.00924 2.42309 6.14553 2.83687 5.29434C3.24905 4.44642 3.85026 3.63305 4.72959 3.03009C5.60125 2.43237 6.80586 2 8.5 2V0C6.44414 0 4.83625 0.531912 3.59853 1.38063C2.36849 2.22409 1.56345 3.33929 1.03813 4.41995C0.514405 5.49733 0.257551 6.56219 0.130063 7.34898C0.0659256 7.74479 0.0334947 8.07675 0.017051 8.31353C0.00881752 8.4321 0.00455842 8.52729 0.00235576 8.59526C0.00125395 8.62926 0.000665202 8.65649 0.000351806 8.67648C0.000195084 8.68647 0.000107143 8.69466 5.83776e-05 8.70098C3.39934e-05 8.70414 1.93997e-05 8.70683 1.09016e-05 8.70905C6.65254e-06 8.71016 3.92717e-06 8.71115 2.26405e-06 8.71203C1.48402e-06 8.71246 7.28093e-07 8.71303 5.08359e-07 8.71325C1.1312e-07 8.71378 0 8.71429 1 8.71429ZM8.5 2C10.1941 2 11.3987 2.43237 12.2704 3.03009C13.1497 3.63305 13.751 4.44642 14.1631 5.29434C14.5769 6.14553 14.7888 7.00924 14.8957 7.66888C14.9487 7.99628 14.9749 8.267 14.9878 8.45209C14.9942 8.54447 14.9972 8.61501 14.9987 8.66004C14.9994 8.68254 14.9997 8.69863 14.9999 8.70784C15 8.71244 15 8.71531 15 8.71641C15 8.71696 15 8.71706 15 8.71671C15 8.71653 15 8.71624 15 8.71584C15 8.71564 15 8.71525 15 8.71515C15 8.71473 15 8.71429 16 8.71429C17 8.71429 17 8.71378 17 8.71325C17 8.71303 17 8.71246 17 8.71203C17 8.71115 17 8.71016 17 8.70905C17 8.70683 17 8.70414 16.9999 8.70098C16.9999 8.69466 16.9998 8.68647 16.9996 8.67648C16.9993 8.65649 16.9987 8.62926 16.9976 8.59526C16.9954 8.52729 16.9912 8.4321 16.9829 8.31353C16.9665 8.07675 16.9341 7.74479 16.8699 7.34898C16.7424 6.56219 16.4856 5.49733 15.9619 4.41995C15.4365 3.33929 14.6315 2.22409 13.4015 1.38063C12.1638 0.531912 10.5559 0 8.5 0V2ZM15 8.71429V20.2857H17V8.71429H15ZM2 20.2857V8.71429H0V20.2857H2ZM16 20.2857C15 20.2857 15 20.2853 15 20.2849C15 20.2848 15 20.2844 15 20.2842C15 20.2838 15 20.2835 15 20.2833C15 20.2829 15 20.283 15 20.2836C15 20.2847 15 20.2876 14.9999 20.2922C14.9997 20.3014 14.9994 20.3175 14.9987 20.34C14.9972 20.385 14.9942 20.4555 14.9878 20.5479C14.9749 20.733 14.9487 21.0037 14.8957 21.3311C14.7888 21.9908 14.5769 22.8545 14.1631 23.7057C13.751 24.5536 13.1497 25.3669 12.2704 25.9699C11.3987 26.5676 10.1941 27 8.5 27V29C10.5559 29 12.1638 28.4681 13.4015 27.6194C14.6315 26.7759 15.4365 25.6607 15.9619 24.58C16.4856 23.5027 16.7424 22.4378 16.8699 21.651C16.9341 21.2552 16.9665 20.9233 16.9829 20.6865C16.9912 20.5679 16.9954 20.4727 16.9976 20.4047C16.9987 20.3707 16.9993 20.3435 16.9996 20.3235C16.9998 20.3135 16.9999 20.3053 16.9999 20.299C17 20.2959 17 20.2932 17 20.2909C17 20.2898 17 20.2888 17 20.288C17 20.2875 17 20.287 17 20.2868C17 20.2862 17 20.2857 16 20.2857ZM8.5 27C6.80586 27 5.60125 26.5676 4.72959 25.9699C3.85026 25.3669 3.24905 24.5536 2.83687 23.7057C2.42309 22.8545 2.2112 21.9908 2.10431 21.3311C2.05126 21.0037 2.0251 20.733 2.01225 20.5479C2.00583 20.4555 2.00277 20.385 2.00131 20.34C2.00058 20.3175 2.00025 20.3014 2.00011 20.2922C2.00003 20.2876 2.00001 20.2847 2 20.2836C1.99999 20.283 1.99999 20.2829 2 20.2833C2 20.2835 2 20.2838 2 20.2842C2 20.2844 2 20.2848 2 20.2849C2 20.2853 2 20.2857 1 20.2857C0 20.2857 1.1312e-07 20.2862 5.08359e-07 20.2868C7.28093e-07 20.287 1.48402e-06 20.2875 2.26405e-06 20.288C3.92717e-06 20.2888 6.65254e-06 20.2898 1.09016e-05 20.2909C1.93997e-05 20.2932 3.39934e-05 20.2959 5.83776e-05 20.299C0.000107143 20.3053 0.000195084 20.3135 0.000351806 20.3235C0.000665202 20.3435 0.00125395 20.3707 0.00235576 20.4047C0.00455842 20.4727 0.00881752 20.5679 0.017051 20.6865C0.0334947 20.9233 0.0659256 21.2552 0.130063 21.651C0.257551 22.4378 0.514405 23.5027 1.03813 24.58C1.56345 25.6607 2.36849 26.7759 3.59853 27.6194C4.83625 28.4681 6.44414 29 8.5 29V27ZM7.5 8.5V13H9.5V8.5H7.5Z" fill="#666666"/>
</svg>
