<svg width="276" height="280" viewBox="0 0 276 280" fill="none" xmlns="http://www.w3.org/2000/svg">
<g filter="url(#filter0_d)">
<path d="M63.75 218.625H143.387C149.463 218.625 154.595 214.277 155.593 208.284L163.497 160.875H54.4811L51.9896 130.973C51.4616 124.608 46.0455 119.625 39.66 119.625H22.5C15.6772 119.625 10.125 125.177 10.125 132C10.125 138.823 15.6772 144.375 22.5 144.375H44.8286L51.3874 223.092H51.408C51.5771 229.164 56.127 234.114 62.0134 234.952C60.5325 237.423 59.625 240.285 59.625 243.375C59.625 252.475 67.0252 259.875 76.125 259.875C85.2247 259.875 92.625 252.475 92.625 243.375C92.625 240.355 91.7505 237.563 90.3315 235.125H127.923C126.499 237.563 125.625 240.355 125.625 243.375C125.625 252.475 133.025 259.875 142.125 259.875C151.225 259.875 158.625 252.475 158.625 243.375C158.625 234.275 151.225 226.875 142.125 226.875H63.75C61.4771 226.875 59.625 225.027 59.625 222.75C59.625 220.473 61.4771 218.625 63.75 218.625ZM22.5 136.125C20.2271 136.125 18.375 134.273 18.375 132C18.375 129.727 20.2271 127.875 22.5 127.875H39.66C41.7885 127.875 43.5952 129.537 43.7726 131.658L44.1439 136.125H22.5ZM84.375 243.375C84.375 247.925 80.6749 251.625 76.125 251.625C71.5751 251.625 67.875 247.925 67.875 243.375C67.875 238.825 71.5751 235.125 76.125 235.125C80.6749 235.125 84.375 238.825 84.375 243.375ZM150.375 243.375C150.375 247.925 146.675 251.625 142.125 251.625C137.575 251.625 133.875 247.925 133.875 243.375C133.875 238.825 137.575 235.125 142.125 235.125C146.675 235.125 150.375 238.825 150.375 243.375ZM61.3327 169.125H74.4173L67.875 175.667L61.3327 169.125ZM62.0423 181.5L56.6509 186.891L55.6691 175.131L62.0423 181.5ZM127.333 169.125H140.417L133.875 175.667L127.333 169.125ZM128.042 181.5L117.375 192.167L106.708 181.5L117.375 170.833L128.042 181.5ZM100.875 175.667L94.3327 169.125H107.417L100.875 175.667ZM84.375 170.833L95.0423 181.5L84.375 192.167L73.7077 181.5L84.375 170.833ZM100.875 187.333L111.542 198L100.875 208.667L90.2077 198L100.875 187.333ZM117.375 203.833L123.917 210.375H110.833L117.375 203.833ZM90.9173 210.375H77.8327L84.375 203.833L90.9173 210.375ZM143.387 210.375H135.583L123.208 198L133.875 187.333L148.312 201.77L147.454 206.931C147.12 208.923 145.408 210.375 143.387 210.375ZM149.979 191.771L139.708 181.5L152.083 169.125H153.753L149.979 191.771ZM58.701 211.476L57.5501 197.658L67.875 187.333L78.5423 198L66.1673 210.375H63.75C61.9474 210.375 60.2479 210.783 58.701 211.476Z" fill="white"/>
<path d="M228.75 152.835V144.375C228.75 137.552 223.198 132 216.375 132H171C168.727 132 166.875 130.148 166.875 127.875C166.875 125.602 168.727 123.75 171 123.75H253.5C260.323 123.75 265.875 118.198 265.875 111.375C265.875 104.552 260.323 99 253.5 99H223.92C222.818 99 221.779 98.571 220.999 97.7914L209.833 86.625L218.083 78.375L197.458 57.75L212.584 42.6236L149.484 32.109L159.999 95.2091L175.125 80.0828L195.75 100.708L204 92.4578L215.166 103.624C217.501 105.963 220.611 107.25 223.92 107.25H253.5C255.773 107.25 257.625 109.102 257.625 111.375C257.625 113.648 255.773 115.5 253.5 115.5H171C164.177 115.5 158.625 121.052 158.625 127.875C158.625 134.698 164.177 140.25 171 140.25H216.375C218.648 140.25 220.5 142.098 220.5 144.375V152.835C199.685 154.914 183.375 172.524 183.375 193.875V218.625C183.375 241.37 201.88 259.875 224.625 259.875C247.37 259.875 265.875 241.37 265.875 218.625V193.875C265.875 172.524 249.565 154.91 228.75 152.835ZM175.125 68.4173L165.501 78.0409L159.516 42.141L195.416 48.1264L185.792 57.75L206.417 78.375L195.75 89.0423L175.125 68.4173ZM220.5 161.16C221.853 160.991 223.227 160.875 224.625 160.875C226.023 160.875 227.397 160.991 228.75 161.16V173.25C228.75 175.527 226.898 177.375 224.625 177.375C222.352 177.375 220.5 175.527 220.5 173.25V161.16ZM224.625 251.625C206.43 251.625 191.625 236.82 191.625 218.625V202.125H257.625V218.625C257.625 236.82 242.82 251.625 224.625 251.625ZM191.625 193.875C191.625 180.056 200.172 168.213 212.25 163.305V173.25C212.25 180.073 217.802 185.625 224.625 185.625C231.448 185.625 237 180.073 237 173.25V163.305C249.078 168.213 257.625 180.056 257.625 193.875H191.625Z" fill="white"/>
<path d="M67.875 107.25C67.875 127.718 84.5317 144.375 105 144.375C125.468 144.375 142.125 127.718 142.125 107.25C142.125 92.8826 133.904 80.4169 121.929 74.25C133.904 68.0831 142.125 55.6174 142.125 41.25C142.125 20.7817 125.468 4.125 105 4.125C84.5317 4.125 67.875 20.7817 67.875 41.25C67.875 55.6174 76.0961 68.0831 88.071 74.25C76.0961 80.4169 67.875 92.8826 67.875 107.25ZM76.125 41.25C76.125 25.3275 89.0775 12.375 105 12.375C120.923 12.375 133.875 25.3275 133.875 41.25C133.875 57.1725 120.923 70.125 105 70.125C89.0775 70.125 76.125 57.1725 76.125 41.25ZM105 78.375C120.923 78.375 133.875 91.3275 133.875 107.25C133.875 123.173 120.923 136.125 105 136.125C89.0775 136.125 76.125 123.173 76.125 107.25C76.125 91.3275 89.0775 78.375 105 78.375Z" fill="white"/>
<path d="M124.416 97.7914L118.584 91.9586L96.75 113.792L91.4164 108.459L85.5836 114.291L96.75 125.458L124.416 97.7914Z" fill="white"/>
<path d="M96.75 47.7922L91.4164 42.4586L85.5836 48.2914L96.75 59.4577L124.416 31.7914L118.584 25.9586L96.75 47.7922Z" fill="white"/>
</g>
<defs>
<filter id="filter0_d" x="-4" y="0" width="284" height="284" filterUnits="userSpaceOnUse" color-interpolation-filters="sRGB">
<feFlood flood-opacity="0" result="BackgroundImageFix"/>
<feColorMatrix in="SourceAlpha" type="matrix" values="0 0 0 0 0 0 0 0 0 0 0 0 0 0 0 0 0 0 127 0"/>
<feOffset dy="10"/>
<feGaussianBlur stdDeviation="5"/>
<feColorMatrix type="matrix" values="0 0 0 0 0 0 0 0 0 0 0 0 0 0 0 0 0 0 0.25 0"/>
<feBlend mode="normal" in2="BackgroundImageFix" result="effect1_dropShadow"/>
<feBlend mode="normal" in="SourceGraphic" in2="effect1_dropShadow" result="shape"/>
</filter>
</defs>
</svg>
