<svg width="276" height="264" viewBox="0 0 276 264" fill="none" xmlns="http://www.w3.org/2000/svg">
<g filter="url(#filter0_d)">
<path d="M253.5 28.875H22.5C15.6772 28.875 10.125 34.4272 10.125 41.25V222.75C10.125 229.573 15.6772 235.125 22.5 235.125H253.5C260.323 235.125 265.875 229.573 265.875 222.75V41.25C265.875 34.4272 260.323 28.875 253.5 28.875ZM22.5 37.125H253.5C255.777 37.125 257.625 38.9771 257.625 41.25V78.375H18.375V41.25C18.375 38.9771 20.223 37.125 22.5 37.125ZM18.375 222.75V86.625H142.125V226.875H22.5C20.223 226.875 18.375 225.027 18.375 222.75ZM253.5 226.875H150.375V86.625H257.625V222.75C257.625 225.027 255.777 226.875 253.5 226.875Z" fill="white"/>
<path d="M51.375 45.375H26.625V70.125H51.375V45.375ZM43.125 61.875H34.875V53.625H43.125V61.875Z" fill="white"/>
<path d="M84.375 45.375H59.625V70.125H84.375V45.375ZM76.125 61.875H67.875V53.625H76.125V61.875Z" fill="white"/>
<path d="M117.375 45.375H92.625V70.125H117.375V45.375ZM109.125 61.875H100.875V53.625H109.125V61.875Z" fill="white"/>
<path d="M158.625 218.625H183.375V193.875H158.625V218.625ZM166.875 202.125H175.125V210.375H166.875V202.125Z" fill="white"/>
<path d="M191.625 218.625H216.375V193.875H191.625V218.625ZM199.875 202.125H208.125V210.375H199.875V202.125Z" fill="white"/>
<path d="M224.625 218.625H249.375V193.875H224.625V218.625ZM232.875 202.125H241.125V210.375H232.875V202.125Z" fill="white"/>
<path d="M26.625 94.875V152.625H133.875V94.875H26.625ZM125.625 144.375H34.875V103.125H125.625V144.375Z" fill="white"/>
<path d="M26.625 218.625H133.875V160.875H26.625V218.625ZM34.875 169.125H125.625V210.375H34.875V169.125Z" fill="white"/>
<path d="M208.125 94.875H158.625V152.625H208.125V94.875ZM199.875 144.375H166.875V103.125H199.875V144.375Z" fill="white"/>
<path d="M216.375 94.875H224.625V103.125H216.375V94.875Z" fill="white"/>
<path d="M232.875 94.875H249.375V103.125H232.875V94.875Z" fill="white"/>
<path d="M216.375 111.375H249.375V119.625H216.375V111.375Z" fill="white"/>
<path d="M216.375 127.875H249.375V136.125H216.375V127.875Z" fill="white"/>
<path d="M216.375 144.375H249.375V152.625H216.375V144.375Z" fill="white"/>
<path d="M158.625 160.875H166.875V169.125H158.625V160.875Z" fill="white"/>
<path d="M175.125 160.875H249.375V169.125H175.125V160.875Z" fill="white"/>
<path d="M241.125 177.375H249.375V185.625H241.125V177.375Z" fill="white"/>
<path d="M158.625 177.375H232.875V185.625H158.625V177.375Z" fill="white"/>
</g>
<defs>
<filter id="filter0_d" x="-4" y="0" width="284" height="284" filterUnits="userSpaceOnUse" color-interpolation-filters="sRGB">
<feFlood flood-opacity="0" result="BackgroundImageFix"/>
<feColorMatrix in="SourceAlpha" type="matrix" values="0 0 0 0 0 0 0 0 0 0 0 0 0 0 0 0 0 0 127 0"/>
<feOffset dy="10"/>
<feGaussianBlur stdDeviation="5"/>
<feColorMatrix type="matrix" values="0 0 0 0 0 0 0 0 0 0 0 0 0 0 0 0 0 0 0.25 0"/>
<feBlend mode="normal" in2="BackgroundImageFix" result="effect1_dropShadow"/>
<feBlend mode="normal" in="SourceGraphic" in2="effect1_dropShadow" result="shape"/>
</filter>
</defs>
</svg>
