<svg width="276" height="280" viewBox="0 0 276 280" fill="none" xmlns="http://www.w3.org/2000/svg">
<g filter="url(#filter0_d)">
<path d="M34.875 185.625H43.125V193.875H34.875V185.625Z" fill="#37422f"/>
<path d="M67.875 185.625H76.125V193.875H67.875V185.625Z" fill="#37422f"/>
<path d="M51.375 185.625H59.625V193.875H51.375V185.625Z" fill="#37422f"/>
<path d="M260.1 211.2C263.825 206.234 265.875 200.079 265.875 193.875V140.25C265.875 134.879 262.414 130.342 257.625 128.634V16.5C257.625 9.67725 252.073 4.125 245.25 4.125H154.5C147.677 4.125 142.125 9.67725 142.125 16.5V20.625H55.5C48.6772 20.625 43.125 26.1772 43.125 33V45.375H30.75C19.3774 45.375 10.125 54.6274 10.125 66V189.75C10.125 201.123 19.3774 210.375 30.75 210.375H88.3432C87.6503 216.954 84.2306 222.919 78.8723 226.875H67.875C61.0522 226.875 55.5 232.427 55.5 239.25V247.5C55.5 254.323 61.0522 259.875 67.875 259.875H171H179.25H261.75V226.875H253.5V219.999L260.1 211.2ZM150.375 16.5C150.375 14.2271 152.227 12.375 154.5 12.375H245.25C247.523 12.375 249.375 14.2271 249.375 16.5V128.634C249.218 128.692 249.049 128.721 248.896 128.782C247.473 123.523 242.705 119.625 237 119.625C233.82 119.625 230.945 120.867 228.75 122.843C226.555 120.863 223.68 119.625 220.5 119.625C219.048 119.625 217.67 119.922 216.375 120.384V111.375H228.75C235.573 111.375 241.125 105.823 241.125 99C241.125 92.1772 235.573 86.625 228.75 86.625H216.375V78.375H228.75C235.573 78.375 241.125 72.8228 241.125 66C241.125 59.1772 235.573 53.625 228.75 53.625H171C164.177 53.625 158.625 59.1772 158.625 66C158.625 72.8228 164.177 78.375 171 78.375H191.625V86.625H171C164.177 86.625 158.625 92.1772 158.625 99C158.625 105.823 164.177 111.375 171 111.375H191.625V137.185C186.093 131.365 178.239 127.702 169.428 127.702C163.476 127.702 158.629 132.544 158.625 138.501C158.625 140.167 159.021 141.838 159.764 143.336L164.408 152.625H158.625H154.5C152.227 152.625 150.375 150.773 150.375 148.5V16.5ZM216.375 103.125V94.875H228.75C231.023 94.875 232.875 96.7271 232.875 99C232.875 101.273 231.023 103.125 228.75 103.125H216.375ZM216.375 70.125V61.875H228.75C231.023 61.875 232.875 63.7271 232.875 66C232.875 68.2729 231.023 70.125 228.75 70.125H216.375ZM208.125 61.875V66.759C206.83 66.297 205.452 66 204 66C200.358 66 197.111 67.6129 194.842 70.125H191.625V61.875H208.125ZM183.375 61.875V70.125H171C168.727 70.125 166.875 68.2729 166.875 66C166.875 63.7271 168.727 61.875 171 61.875H183.375ZM191.625 94.875V103.125H171C168.727 103.125 166.875 101.273 166.875 99C166.875 96.7271 168.727 94.875 171 94.875H191.625ZM51.375 33C51.375 30.7271 53.2271 28.875 55.5 28.875H142.125V53.625H51.375V33ZM51.375 61.875H142.125V148.5C142.125 149.952 142.422 151.33 142.884 152.625H55.5C53.2271 152.625 51.375 150.773 51.375 148.5V61.875ZM55.5 160.875H154.5H158.625H166.768C166.821 161.481 166.875 162.092 166.875 162.698V169.125H34.875V70.125H43.125V148.5C43.125 155.323 48.6772 160.875 55.5 160.875ZM30.75 202.125C23.9272 202.125 18.375 196.573 18.375 189.75V66C18.375 59.1772 23.9272 53.625 30.75 53.625H43.125V61.875H34.875C30.3251 61.875 26.625 65.5751 26.625 70.125V169.125C26.625 173.675 30.3251 177.375 34.875 177.375H166.875V187.894C166.875 192.324 167.915 196.767 169.886 200.735L170.579 202.125H30.75ZM152.561 226.875H90.4387C93.978 222.111 96.123 216.414 96.5932 210.375H146.403C146.877 216.414 149.022 222.111 152.561 226.875ZM171 251.625H67.875C65.6021 251.625 63.75 249.773 63.75 247.5V239.25C63.75 236.977 65.6021 235.125 67.875 235.125H171V251.625ZM171 226.875H164.128C158.769 222.919 155.35 216.954 154.657 210.375H174.675L179.25 219.59V226.875H171ZM253.5 251.625H179.25V235.125H253.5V251.625ZM245.25 217.251V226.875H187.5V217.66L177.274 197.068C175.867 194.23 175.125 191.062 175.125 187.894V162.698C175.125 158.058 174.028 153.409 171.949 149.255L167.143 139.644C166.97 139.293 166.875 138.893 166.875 138.501C166.875 137.094 168.022 135.952 169.82 135.952C181.845 135.952 191.625 145.736 191.625 157.761V164.827V173.077H199.875V164.827V157.761V78.375C199.875 76.1021 201.727 74.25 204 74.25C206.273 74.25 208.125 76.1021 208.125 78.375V132V148.5H216.375V132C216.375 129.727 218.227 127.875 220.5 127.875C222.773 127.875 224.625 129.727 224.625 132V148.5H232.875V132C232.875 129.727 234.727 127.875 237 127.875C239.273 127.875 241.125 129.727 241.125 132V140.25V148.5H249.375V140.25C249.375 137.977 251.227 136.125 253.5 136.125C255.773 136.125 257.625 137.977 257.625 140.25V193.875C257.625 198.309 256.161 202.702 253.5 206.25L245.25 217.251Z" fill="#37422f"/>
<path d="M171 45.375H228.75C235.573 45.375 241.125 39.8228 241.125 33C241.125 26.1772 235.573 20.625 228.75 20.625H171C164.177 20.625 158.625 26.1772 158.625 33C158.625 39.8228 164.177 45.375 171 45.375ZM216.375 28.875H228.75C231.023 28.875 232.875 30.7271 232.875 33C232.875 35.2729 231.023 37.125 228.75 37.125H216.375V28.875ZM191.625 28.875H208.125V37.125H191.625V28.875ZM171 28.875H183.375V37.125H171C168.727 37.125 166.875 35.2729 166.875 33C166.875 30.7271 168.727 28.875 171 28.875Z" fill="#37422f"/>
<path d="M76.125 37.125H84.375V45.375H76.125V37.125Z" fill="#37422f"/>
<path d="M92.625 37.125H100.875V45.375H92.625V37.125Z" fill="#37422f"/>
<path d="M59.625 37.125H67.875V45.375H59.625V37.125Z" fill="#37422f"/>
<path d="M133.875 70.125H59.625V111.375H133.875V70.125ZM125.625 103.125H67.875V78.375H125.625V103.125Z" fill="#37422f"/>
<path d="M59.625 119.625H67.875V127.875H59.625V119.625Z" fill="#37422f"/>
<path d="M76.125 119.625H133.875V127.875H76.125V119.625Z" fill="#37422f"/>
<path d="M59.625 136.125H133.875V144.375H59.625V136.125Z" fill="#37422f"/>
</g>
<defs>
<filter id="filter0_d" x="-4" y="0" width="284" height="284" filterUnits="userSpaceOnUse" color-interpolation-filters="sRGB">
<feFlood flood-opacity="0" result="BackgroundImageFix"/>
<feColorMatrix in="SourceAlpha" type="matrix" values="0 0 0 0 0 0 0 0 0 0 0 0 0 0 0 0 0 0 127 0"/>
<feOffset dy="10"/>
<feGaussianBlur stdDeviation="5"/>
<feColorMatrix type="matrix" values="0 0 0 0 0 0 0 0 0 0 0 0 0 0 0 0 0 0 0.25 0"/>
<feBlend mode="normal" in2="BackgroundImageFix" result="effect1_dropShadow"/>
<feBlend mode="normal" in="SourceGraphic" in2="effect1_dropShadow" result="shape"/>
</filter>
</defs>
</svg>
