<svg width="76" height="76" viewBox="0 0 76 76" fill="none" xmlns="http://www.w3.org/2000/svg">
<circle cx="38" cy="38" r="37" stroke="#CFC9CF" stroke-width="2"/>
<path d="M33.1875 27.8148H28.375L27 27M33.1875 27.8148L33.0553 31.8889L32.5 49M33.1875 27.8148H38M42.8125 27.8148H47.625L49 27M42.8125 27.8148L42.9447 31.8889L43.5 49M42.8125 27.8148H38M28.375 31.8889H38M47.625 31.8889H38M38 31.8889V27.8148" stroke="#CFC9CF" stroke-width="2" stroke-linecap="square"/>
<path d="M28.7578 6.47734L29.9967 10.4171L31.2299 10.022L31.5239 10.9569L28.0575 12.0675L27.7635 11.1327L28.9967 10.7375L27.7578 6.79772L28.7578 6.47734Z" fill="#CFC9CF"/>
<path d="M23.6711 8.54977L26.1575 13.014L25.2446 13.5327L24.2909 11.8204L23.2684 12.4013L24.2221 14.1136L23.3091 14.6323L20.8227 10.1681L21.7356 9.64938L22.7915 11.5452L23.814 10.9642L22.7581 9.06846L23.6711 8.54977Z" fill="#CFC9CF"/>
<path d="M18.0628 12.2394L18.6576 12.9281L17.8963 13.5993L20.0467 16.0892L20.8081 15.418L21.4029 16.1067L19.0926 18.1435L18.4978 17.4548L19.2591 16.7836L17.1087 14.2937L16.3473 14.9649L15.7525 14.2762L18.0628 12.2394Z" fill="#CFC9CF"/>
<path d="M13.471 16.8301L17.5286 19.9363L16.7939 20.9165L12.86 19.5711C13.0055 19.6648 13.1727 19.7723 13.3618 19.8935C13.5546 20.0176 13.7441 20.1421 13.9303 20.2671C14.1175 20.3986 14.2741 20.5126 14.4001 20.609L16.0676 21.8856L15.5134 22.6249L11.4558 19.5187L12.1905 18.5385L16.116 19.8952C15.9891 19.8156 15.8399 19.719 15.6684 19.6054C15.497 19.4918 15.3251 19.3749 15.1527 19.2547C14.9776 19.1382 14.8252 19.0304 14.6955 18.9311L12.9168 17.5695L13.471 16.8301Z" fill="#CFC9CF"/>
<path d="M9.80147 22.4171L14.4083 24.6281L13.9621 25.5786L12.1761 24.7214L11.9649 25.1713L13.3938 26.7888L12.9089 27.8216L11.1527 25.8141L8.28413 25.6486L8.77503 24.6031L11.094 24.7533L11.3052 24.3034L9.35519 23.3675L9.80147 22.4171Z" fill="#CFC9CF"/>
<path d="M5.7148 37.5232L10.822 37.3535L10.876 39.0116C10.8875 39.3661 10.8299 39.6762 10.7031 39.9419C10.5765 40.2122 10.392 40.4238 10.1495 40.5766C9.91181 40.7339 9.6274 40.8181 9.29625 40.8291L7.47026 40.8897C7.14377 40.9006 6.8545 40.8355 6.60245 40.6945C6.35054 40.5581 6.1503 40.3593 6.00173 40.0981C5.85796 39.8414 5.78032 39.5358 5.76878 39.1813L5.7148 37.5232ZM6.72842 38.5401L6.74824 39.1488C6.75522 39.3633 6.82147 39.5339 6.94699 39.6604C7.07251 39.787 7.23554 39.847 7.4361 39.8403L9.26209 39.7796C9.45798 39.7731 9.61444 39.7025 9.73145 39.5679C9.84847 39.4333 9.90348 39.2587 9.8965 39.0442L9.87669 38.4355L6.72842 38.5401Z" fill="#CFC9CF"/>
<path d="M6.38676 44.2841L7.27061 44.0675L7.50751 45.0545L10.703 44.2715L10.4661 43.2845L11.3499 43.0679L12.0688 46.0629L11.185 46.2794L10.9481 45.2925L7.75259 46.0755L7.9895 47.0625L7.10565 47.2791L6.38676 44.2841Z" fill="#CFC9CF"/>
<path d="M8.97566 52.0711C8.82293 51.7458 8.74474 51.4366 8.74109 51.1433C8.73744 50.8501 8.80376 50.5906 8.94006 50.3649C9.07635 50.1391 9.27916 49.9617 9.54848 49.8326L9.99477 50.783C9.83907 50.8576 9.7427 50.9763 9.70566 51.1389C9.67481 51.3038 9.70798 51.4897 9.80517 51.6967C9.8984 51.8953 10.015 52.0283 10.1549 52.0957C10.2969 52.1674 10.4457 52.1659 10.6014 52.0913C10.736 52.0267 10.8319 51.929 10.889 51.7982C10.9462 51.6673 10.9558 51.5177 10.9181 51.3495L10.8052 50.8292C10.7133 50.392 10.74 50.004 10.8851 49.6654C11.0364 49.3289 11.2931 49.0739 11.655 48.9004C11.9243 48.7713 12.1866 48.7206 12.4419 48.7483C12.7034 48.7782 12.9424 48.881 13.1589 49.0567C13.3755 49.2323 13.5571 49.4764 13.7039 49.789C13.926 50.2621 13.9837 50.6924 13.877 51.08C13.7765 51.4697 13.5284 51.7594 13.1329 51.949L12.6866 50.9986C12.8339 50.928 12.9248 50.8197 12.9594 50.6738C12.9959 50.532 12.9686 50.364 12.8773 50.1697C12.7921 49.9881 12.6845 49.8688 12.5547 49.812C12.4292 49.7532 12.2906 49.7601 12.1391 49.8327C12.0045 49.8973 11.9066 49.9908 11.8455 50.1132C11.7906 50.2378 11.7801 50.38 11.8138 50.5398L11.9323 51.0885C12.0321 51.5426 12.0096 51.9338 11.8647 52.262C11.724 52.5882 11.4664 52.841 11.0918 53.0206C10.8225 53.1497 10.553 53.196 10.2834 53.1597C10.0157 53.1276 9.76848 53.0184 9.5418 52.8321C9.3171 52.65 9.12839 52.3963 8.97566 52.0711Z" fill="#CFC9CF"/>
<path d="M12.5133 57.7644C12.3062 57.4881 12.1757 57.2089 12.1219 56.927C12.0718 56.6422 12.0941 56.3724 12.189 56.1177C12.2904 55.8639 12.4634 55.6435 12.708 55.4563L14.4315 54.1379C14.6799 53.9479 14.9368 53.8394 15.2024 53.8125C15.4708 53.7894 15.732 53.8422 15.9859 53.9711C16.2436 54.0971 16.476 54.2982 16.6831 54.5746C16.8874 54.8472 17.0132 55.1241 17.0605 55.4051C17.1144 55.6871 17.0925 55.9535 16.9948 56.2045C16.8999 56.4592 16.7283 56.6815 16.48 56.8715L15.8504 56.0312C16.0134 55.9065 16.1026 55.7648 16.1179 55.6062C16.136 55.4514 16.0821 55.29 15.9562 55.1219C15.8302 54.9538 15.6897 54.8557 15.5344 54.8276C15.382 54.8032 15.2243 54.8534 15.0612 54.9781L13.3377 56.2966C13.1783 56.4185 13.0877 56.5583 13.0659 56.716C13.0506 56.8746 13.1059 57.0379 13.2319 57.2059C13.3578 57.374 13.497 57.4702 13.6494 57.4946C13.8083 57.5199 13.9674 57.4716 14.1268 57.3497L14.7565 58.19C14.5118 58.3771 14.2535 58.4837 13.9814 58.5097C13.7158 58.5366 13.4542 58.487 13.1965 58.361C12.9453 58.2359 12.7176 58.0371 12.5133 57.7644Z" fill="#CFC9CF"/>
<path d="M17.0772 62.5562C16.6887 62.2135 16.4722 61.8359 16.4278 61.4234C16.3869 61.014 16.5251 60.6256 16.8424 60.2584L19.2039 57.5253L19.9913 58.2199L17.6344 60.9477C17.4941 61.1101 17.426 61.271 17.4302 61.4302C17.441 61.5891 17.5216 61.7349 17.6721 61.8676C17.8191 61.9973 17.9712 62.0568 18.1284 62.0461C18.2887 62.0319 18.439 61.9436 18.5793 61.7812L20.9363 59.0534L21.7237 59.7479L19.3622 62.481C19.048 62.8447 18.684 63.034 18.2704 63.0487C17.8634 63.063 17.4656 62.8988 17.0772 62.5562Z" fill="#CFC9CF"/>
<path d="M22.5347 66.3299C22.2224 66.1523 21.9801 65.9447 21.8079 65.7072C21.6357 65.4697 21.5401 65.2194 21.5211 64.9563C21.5021 64.6932 21.5652 64.4312 21.7106 64.1702L22.6233 64.6893C22.5393 64.8401 22.5291 64.9927 22.5927 65.147C22.6627 65.2995 22.797 65.4323 22.9958 65.5453C23.1865 65.6537 23.3584 65.6951 23.5115 65.6695C23.6688 65.6462 23.7894 65.5591 23.8734 65.4082C23.9461 65.2778 23.968 65.1426 23.9391 65.0027C23.9102 64.8628 23.8318 64.735 23.7039 64.6193L23.3115 64.2593C22.9842 63.9551 22.7821 63.6227 22.7052 63.2622C22.6345 62.9 22.6969 62.5435 22.8922 62.1929C23.0375 61.932 23.2224 61.7392 23.4468 61.6145C23.6775 61.488 23.9319 61.4341 24.21 61.4526C24.4881 61.4712 24.7772 61.5659 25.0774 61.7366C25.5317 61.9949 25.8272 62.3132 25.9637 62.6915C26.1065 63.068 26.0712 63.4478 25.8577 63.831L24.945 63.312C25.0245 63.1693 25.0362 63.0284 24.9802 62.8891C24.9283 62.7522 24.809 62.6307 24.6224 62.5246C24.448 62.4254 24.2914 62.3901 24.1527 62.4185C24.0162 62.4429 23.9071 62.5285 23.8253 62.6753C23.7527 62.8058 23.7267 62.9386 23.7475 63.0739C23.7746 63.2074 23.8481 63.3297 23.9678 63.4408L24.3811 63.8207C24.7247 64.1342 24.932 64.4668 25.0031 64.8186C25.0765 65.1664 25.0121 65.5216 24.81 65.8845C24.6647 66.1454 24.4714 66.3388 24.2303 66.4648C23.9933 66.593 23.7285 66.6464 23.436 66.625C23.1475 66.6059 22.8471 66.5075 22.5347 66.3299Z" fill="#CFC9CF"/>
<path d="M28.6344 68.9026C28.2922 68.7928 28.0127 68.6394 27.7958 68.4423C27.5789 68.2453 27.4345 68.02 27.3626 67.7666C27.2906 67.5131 27.2994 67.244 27.389 66.959L28.3888 67.2799C28.337 67.4446 28.3579 67.5959 28.4515 67.7338C28.551 67.8687 28.7096 67.971 28.9273 68.0409C29.1361 68.1079 29.313 68.1132 29.4579 68.0568C29.6073 68.0019 29.7079 67.892 29.7597 67.7273C29.8045 67.5848 29.7985 67.4481 29.7418 67.3172C29.6852 67.1863 29.5824 67.0774 29.4337 66.9904L28.9761 66.7186C28.5937 66.488 28.3282 66.2043 28.1798 65.8675C28.0371 65.5277 28.026 65.1663 28.1464 64.7835C28.236 64.4985 28.3781 64.2721 28.5727 64.1043C28.7732 63.9334 29.0116 63.8285 29.2879 63.7898C29.5643 63.7511 29.8668 63.7845 30.1957 63.89C30.6933 64.0497 31.0474 64.3006 31.2578 64.6426C31.4741 64.9816 31.5164 65.3603 31.3849 65.7788L30.3851 65.4579C30.4341 65.3021 30.4171 65.1618 30.334 65.0371C30.2553 64.9139 30.1138 64.8194 29.9094 64.7538C29.7183 64.6925 29.5577 64.69 29.4275 64.7462C29.2987 64.798 29.2091 64.904 29.1587 65.0643C29.1139 65.2067 29.1154 65.342 29.1632 65.4701C29.2169 65.5951 29.3136 65.6997 29.4535 65.7838L29.9356 66.0708C30.3358 66.3071 30.6064 66.59 30.7474 66.9195C30.8898 67.2446 30.8987 67.6052 30.7741 68.0014C30.6845 68.2864 30.5344 68.5151 30.3236 68.6876C30.1173 68.8615 29.8686 68.9679 29.5775 69.0068C29.2909 69.0472 28.9765 69.0124 28.6344 68.9026Z" fill="#CFC9CF"/>
<path d="M40.0671 70.1842L39.5494 65.1005L41.1995 64.9289C41.5522 64.8923 41.8655 64.9277 42.1391 65.0353C42.4174 65.1425 42.641 65.3116 42.8099 65.5427C42.9831 65.7687 43.0864 66.0465 43.12 66.3761L43.3051 68.1937C43.3382 68.5187 43.293 68.8119 43.1695 69.0734C43.0507 69.3345 42.866 69.5484 42.6156 69.7151C42.3694 69.8768 42.0699 69.976 41.7172 70.0126L40.0671 70.1842ZM41.0121 69.1007L41.6179 69.0377C41.8314 69.0155 41.997 68.9373 42.1147 68.8031C42.2323 68.6688 42.281 68.5019 42.2607 68.3023L42.0756 66.4847C42.0557 66.2897 41.9747 66.1386 41.8324 66.0314C41.6902 65.9242 41.5123 65.8817 41.2988 65.9039L40.693 65.9669L41.0121 69.1007Z" fill="#CFC9CF"/>
<path d="M46.6845 69.0477L45.1519 64.173L48.1512 63.2103L48.4199 64.065L46.4004 64.7132L46.7447 65.8084L48.5309 65.2351L48.7997 66.0898L47.0134 66.6631L47.3955 67.8785L49.4151 67.2303L49.6838 68.085L46.6845 69.0477Z" fill="#CFC9CF"/>
<path d="M53.5907 66.178L50.0026 62.3403L50.9458 61.8039L53.1308 64.2735C53.2055 64.3598 53.2991 64.4703 53.4116 64.605C53.528 64.7374 53.6239 64.852 53.6992 64.9488C53.6564 64.8335 53.6051 64.6936 53.5454 64.5289C53.4857 64.3642 53.4377 64.2252 53.4012 64.1117L52.4305 60.9596L53.3493 60.4371L54.7469 65.5206L53.5907 66.178Z" fill="#CFC9CF"/>
<path d="M58.3482 62.9697L55.0074 59.1031L57.3697 57.0194L57.9555 57.6974L56.3648 59.1004L57.1154 59.9691L58.5223 58.7281L59.1081 59.4061L57.7012 60.6471L58.5341 61.6111L60.1248 60.208L60.7106 60.886L58.3482 62.9697Z" fill="#CFC9CF"/>
<path d="M63.088 58.1799L59.0293 55.0751L59.659 54.2348L62.9393 56.7442L64.1776 55.0917L64.9559 55.6871L63.088 58.1799Z" fill="#CFC9CF"/>
<path d="M67.3735 51.3275C67.2287 51.6358 67.046 51.8768 66.8252 52.0505C66.6003 52.2221 66.355 52.3219 66.0893 52.3497C65.8213 52.3714 65.5485 52.3156 65.2708 52.1825L63.314 51.2445C63.0362 51.1113 62.823 50.9341 62.6744 50.7128C62.5235 50.4852 62.4447 50.2301 62.4382 49.9475C62.4275 49.6629 62.4946 49.3665 62.6394 49.0581C62.7861 48.7455 62.971 48.5055 63.194 48.3381C63.4147 48.1645 63.659 48.0668 63.9269 48.0452C64.1926 48.0173 64.4644 48.07 64.7421 48.2031L66.6989 49.1411C66.9766 49.2742 67.191 49.4546 67.3419 49.6822C67.4905 49.9035 67.5702 50.1565 67.581 50.4411C67.5895 50.7194 67.5203 51.0149 67.3735 51.3275ZM66.5529 50.9341C66.6422 50.744 66.6602 50.5793 66.6071 50.44C66.5517 50.2944 66.4336 50.1783 66.2526 50.0915L64.2958 49.1535C64.1107 49.0648 63.9479 49.0437 63.8074 49.0902C63.667 49.1367 63.5512 49.2572 63.4599 49.4515C63.3687 49.6458 63.3497 49.8126 63.4028 49.9519C63.456 50.0912 63.5751 50.2053 63.7603 50.294L65.7171 51.2321C65.898 51.3188 66.0608 51.3399 66.2054 51.2954C66.3478 51.2446 66.4637 51.1242 66.5529 50.9341Z" fill="#CFC9CF"/>
<path d="M69.0622 46.5799L64.099 45.3637L64.5059 43.6688C64.5897 43.3194 64.7284 43.0315 64.922 42.8051C65.1166 42.5741 65.3486 42.4171 65.6181 42.3342C65.8886 42.2468 66.1825 42.2419 66.4998 42.3197C66.8126 42.3963 67.0716 42.5367 67.277 42.7407C67.4778 42.9437 67.6129 43.1906 67.6823 43.4815C67.7516 43.7723 67.7444 44.0925 67.6605 44.4419L67.4988 45.1157L69.3073 45.5589L69.0622 46.5799ZM66.5809 44.8908L66.7427 44.217C66.795 43.9991 66.7774 43.8123 66.6901 43.6563C66.5993 43.4948 66.4542 43.3895 66.2547 43.3407C66.0553 43.2918 65.8809 43.3187 65.7314 43.4214C65.5786 43.5185 65.476 43.6759 65.4237 43.8938L65.2619 44.5676L66.5809 44.8908Z" fill="#CFC9CF"/>
<path d="M69.0296 29.471C69.1056 29.8079 69.1105 30.1157 69.0442 30.3944C68.9734 30.6742 68.8425 30.9103 68.6515 31.1029C68.4549 31.2919 68.2066 31.4211 67.9065 31.4904L65.7921 31.9785C65.4875 32.0488 65.2083 32.0414 64.9547 31.9563C64.7001 31.8666 64.4831 31.7107 64.3039 31.4887C64.1201 31.2677 63.9902 30.9888 63.9142 30.6519C63.8392 30.3196 63.8377 30.0158 63.9095 29.7406C63.9758 29.4619 64.105 29.2285 64.297 29.0405C64.4879 28.848 64.7357 28.7165 65.0404 28.6462L65.2715 29.6705C65.0714 29.7167 64.9319 29.8087 64.853 29.9467C64.773 30.0801 64.7562 30.2492 64.8024 30.4541C64.8486 30.6589 64.9368 30.8062 65.0671 30.8958C65.1963 30.9809 65.361 31.0004 65.561 30.9542L67.6754 30.4661C67.871 30.421 68.011 30.3312 68.0955 30.1967C68.1744 30.0588 68.1907 29.8874 68.1445 29.6825C68.0983 29.4777 68.0106 29.3327 67.8813 29.2476C67.7465 29.159 67.5814 29.1372 67.3858 29.1824L67.1548 28.1581C67.4549 28.0888 67.7345 28.0985 67.9937 28.1871C68.2473 28.2723 68.466 28.4253 68.6498 28.6463C68.8281 28.8638 68.9547 29.1387 69.0296 29.471Z" fill="#CFC9CF"/>
<path d="M67.441 24.73L62.8037 26.8766L62.125 25.3782C61.9748 25.0466 61.902 24.7332 61.9066 24.438C61.9112 24.1427 61.9895 23.8802 62.1415 23.6504C62.2917 23.4164 62.5107 23.2327 62.7987 23.0994C63.0994 22.9602 63.402 22.9101 63.7065 22.9491C64.0092 22.9838 64.2702 23.1021 64.4897 23.3039L65.9968 21.5418L66.4676 22.5811L65.0552 24.1451L65.2574 24.5915L67.0106 23.7799L67.441 24.73ZM64.4316 24.9738L64.1832 24.4254C64.0869 24.2129 63.9598 24.0737 63.8019 24.0079C63.6422 23.9379 63.467 23.947 63.2764 24.0352C63.0774 24.1274 62.9497 24.2585 62.8936 24.4284C62.8354 24.5942 62.8545 24.7833 62.9508 24.9959L63.1992 25.5442L64.4316 24.9738Z" fill="#CFC9CF"/>
<path d="M64.2374 18.7768L60.1372 21.8265L58.2828 19.2802L59.0018 18.7454L60.2504 20.4599L61.1715 19.7748L60.0671 18.2584L60.7861 17.7236L61.8905 19.2401L62.9127 18.4798L61.6641 16.7653L62.383 16.2305L64.2374 18.7768Z" fill="#CFC9CF"/>
<path d="M60.2485 13.9546L55.9271 16.934L54.9417 16.0408L57.396 11.3689L58.1895 12.0882L57.6041 13.1164L58.5065 13.9344L59.455 13.2353L60.2485 13.9546ZM57.8191 14.445L57.1812 13.8667L56.5447 14.9525C56.4511 15.107 56.3609 15.2614 56.2739 15.4156C56.1803 15.5701 56.1079 15.6903 56.0567 15.7761C56.1356 15.7153 56.2445 15.6314 56.3833 15.5242C56.5187 15.4139 56.6591 15.305 56.8045 15.1975L57.8191 14.445Z" fill="#CFC9CF"/>
<path d="M53.8816 9.08926L51.8228 12.6695L52.9398 13.3248L52.4512 14.1744L49.3117 12.3324L49.8002 11.4829L50.9172 12.1382L52.976 8.55793L53.8816 9.08926Z" fill="#CFC9CF"/>
<path d="M48.8382 6.66521L47.2391 11.5185L44.253 10.5156L44.5334 9.66459L46.544 10.3399L46.9033 9.24957L45.1249 8.65226L45.4053 7.80126L47.1837 8.39858L47.5824 7.18857L45.5718 6.51325L45.8522 5.66225L48.8382 6.66521Z" fill="#CFC9CF"/>
</svg>
